<svg width="128" height="128" viewBox="0 0 128 128" fill="none" xmlns="http://www.w3.org/2000/svg">
<g filter="url(#filter0_d)">
<rect x="25" y="14" width="78" height="101" rx="7" fill="#F1F1ED"/>
</g>
<rect x="32" y="95" width="64" height="6" fill="#DCDCDC"/>
<rect x="32" y="83" width="64" height="6" fill="#DCDCDC"/>
<rect x="32" y="71" width="64" height="6" fill="#DCDCDC"/>
<rect x="32" y="59" width="64" height="6" fill="#DCDCDC"/>
<rect x="32" y="47" width="64" height="6" fill="#DCDCDC"/>
<rect x="32" y="35" width="64" height="6" fill="#DCDCDC"/>
<rect x="32" y="23" width="64" height="6" fill="#DCDCDC"/>
<mask id="mask0" mask-type="alpha" maskUnits="userSpaceOnUse" x="44" y="44" width="41" height="41">
<circle cx="64.5" cy="64.5" r="20.5" fill="white"/>
<circle cx="64.5" cy="64.5" r="20.5" stroke="black"/>
</mask>
<g mask="url(#mask0)">
<path d="M32.4205 23.6591H34.2642V29H34.7955V23.6591H36.6392V23.1818H32.4205V23.6591ZM38.8615 29.0909C39.7365 29.0909 40.3246 28.6165 40.5234 28.0682L40.0433 27.9119C39.8757 28.304 39.4808 28.6278 38.8615 28.6278C37.9695 28.6278 37.4041 27.9773 37.3814 26.9688H40.6314V26.7188C40.6314 25.2614 39.7308 24.5767 38.7848 24.5767C37.6541 24.5767 36.8729 25.5227 36.8729 26.8438C36.8729 28.1676 37.6399 29.0909 38.8615 29.0909ZM37.3842 26.5227C37.4382 25.7102 37.9865 25.0369 38.7848 25.0369C39.5661 25.0369 40.1143 25.6818 40.1143 26.5227H37.3842ZM41.9411 24.6364H41.3558L42.7422 26.8182L41.3558 29H41.9411L43.0661 27.1989L44.1911 29H44.7791L43.3757 26.8182L44.7791 24.6364H44.1911L43.0661 26.4972L41.9411 24.6364ZM47.5582 24.6364H46.6349V23.5909H46.1264V24.6364H45.4759V25.0767H46.1264V27.9801C46.1264 28.6932 46.6889 29.0653 47.2486 29.0653C47.4588 29.0653 47.6009 29.0256 47.6974 28.9886L47.5895 28.5312C47.5185 28.5511 47.4276 28.571 47.294 28.571C46.9503 28.571 46.6349 28.4091 46.6349 27.8608V25.0767H47.5582V24.6364ZM52.7209 29.0909C53.5959 29.0909 54.1839 28.6165 54.3828 28.0682L53.9027 27.9119C53.7351 28.304 53.3402 28.6278 52.7209 28.6278C51.8288 28.6278 51.2635 27.9773 51.2408 26.9688H54.4908V26.7188C54.4908 25.2614 53.5902 24.5767 52.6442 24.5767C51.5135 24.5767 50.7322 25.5227 50.7322 26.8438C50.7322 28.1676 51.4993 29.0909 52.7209 29.0909ZM51.2436 26.5227C51.2976 25.7102 51.8459 25.0369 52.6442 25.0369C53.4254 25.0369 53.9737 25.6818 53.9737 26.5227H51.2436ZM55.8004 24.6364H55.2152L56.6016 26.8182L55.2152 29H55.8004L56.9254 27.1989L58.0504 29H58.6385L57.2351 26.8182L58.6385 24.6364H58.0504L56.9254 26.4972L55.8004 24.6364ZM61.4176 24.6364H60.4943V23.5909H59.9858V24.6364H59.3352V25.0767H59.9858V27.9801C59.9858 28.6932 60.5483 29.0653 61.108 29.0653C61.3182 29.0653 61.4602 29.0256 61.5568 28.9886L61.4489 28.5312C61.3778 28.5511 61.2869 28.571 61.1534 28.571C60.8097 28.571 60.4943 28.4091 60.4943 27.8608V25.0767H61.4176V24.6364ZM62.5661 29H63.0717V26.1818C63.0717 25.5341 63.5689 25.0653 64.2507 25.0653C64.3842 25.0653 64.5092 25.0881 64.5547 25.0938V24.5795C64.4865 24.5767 64.37 24.571 64.2876 24.571C63.7393 24.571 63.2706 24.8665 63.0945 25.3068H63.0575V24.6364H62.5661V29ZM66.6364 29.0994C67.3636 29.0994 67.8068 28.696 67.9886 28.3097H68.0199V29H68.5256V26.0369C68.5256 24.8665 67.6449 24.5767 66.9773 24.5767C66.3097 24.5767 65.6222 24.8409 65.3267 25.554L65.8068 25.7273C65.9659 25.3523 66.3608 25.0312 66.9915 25.0312C67.6534 25.0312 68.0199 25.3949 68.0199 25.9915V26.0938C68.0199 26.4233 67.6108 26.429 66.8778 26.5199C65.892 26.642 65.2017 26.9176 65.2017 27.7812C65.2017 28.6222 65.8438 29.0994 66.6364 29.0994ZM66.7045 28.6364C66.1335 28.6364 65.7074 28.3324 65.7074 27.804C65.7074 27.2756 66.1392 27.054 66.8778 26.9631C67.2358 26.9205 67.8722 26.8409 68.0199 26.696V27.3267C68.0199 28.0426 67.5114 28.6364 66.7045 28.6364ZM71.5753 29.0909C72.4844 29.0909 73.1236 28.517 73.2401 27.7273H72.7287C72.6122 28.2841 72.1548 28.6278 71.5753 28.6278C70.7202 28.6278 70.1548 27.8835 70.1548 26.821C70.1548 25.7642 70.7372 25.0369 71.5753 25.0369C72.1974 25.0369 72.6179 25.4375 72.7259 25.9318H73.2372C73.1179 25.1222 72.4418 24.5767 71.5668 24.5767C70.4247 24.5767 69.6463 25.5256 69.6463 26.8381C69.6463 28.1392 70.402 29.0909 71.5753 29.0909ZM76.0426 24.6364H75.1193V23.5909H74.6108V24.6364H73.9602V25.0767H74.6108V27.9801C74.6108 28.6932 75.1733 29.0653 75.733 29.0653C75.9432 29.0653 76.0852 29.0256 76.1818 28.9886L76.0739 28.5312C76.0028 28.5511 75.9119 28.571 75.7784 28.571C75.4347 28.571 75.1193 28.4091 75.1193 27.8608V25.0767H76.0426V24.6364ZM77.1967 29H77.7053V24.6364H77.1967V29ZM77.4553 23.8864C77.6626 23.8864 77.8359 23.7216 77.8359 23.5227C77.8359 23.3239 77.6626 23.1591 77.4553 23.1591C77.2479 23.1591 77.0774 23.3239 77.0774 23.5227C77.0774 23.7216 77.2479 23.8864 77.4553 23.8864ZM80.7386 29.0909C81.8693 29.0909 82.6591 28.1676 82.6591 26.8381C82.6591 25.5 81.8693 24.5767 80.7386 24.5767C79.608 24.5767 78.8182 25.5 78.8182 26.8381C78.8182 28.1676 79.608 29.0909 80.7386 29.0909ZM80.7386 28.6278C79.8324 28.6278 79.3267 27.8153 79.3267 26.8381C79.3267 25.8608 79.8324 25.0369 80.7386 25.0369C81.6449 25.0369 82.1506 25.8608 82.1506 26.8381C82.1506 27.8153 81.6449 28.6278 80.7386 28.6278ZM84.2749 26.2727C84.2749 25.5114 84.7749 25.0426 85.4624 25.0426C86.1328 25.0426 86.5646 25.4915 86.5646 26.2045V29H87.0703V26.1733C87.0703 25.1392 86.4709 24.5795 85.5902 24.5795C84.951 24.5795 84.5107 24.875 84.3061 25.321H84.2607V24.6364H83.7692V29H84.2749V26.2727ZM34.3864 36.6364H33.4631V35.5909H32.9545V36.6364H32.304V37.0767H32.9545V39.9801C32.9545 40.6932 33.517 41.0653 34.0767 41.0653C34.2869 41.0653 34.429 41.0256 34.5256 40.9886L34.4176 40.5312C34.3466 40.5511 34.2557 40.571 34.1222 40.571C33.7784 40.571 33.4631 40.4091 33.4631 39.8608V37.0767H34.3864V36.6364ZM37.1839 41.0909C38.3146 41.0909 39.1044 40.1676 39.1044 38.8381C39.1044 37.5 38.3146 36.5767 37.1839 36.5767C36.0533 36.5767 35.2635 37.5 35.2635 38.8381C35.2635 40.1676 36.0533 41.0909 37.1839 41.0909ZM37.1839 40.6278C36.2777 40.6278 35.772 39.8153 35.772 38.8381C35.772 37.8608 36.2777 37.0369 37.1839 37.0369C38.0902 37.0369 38.5959 37.8608 38.5959 38.8381C38.5959 39.8153 38.0902 40.6278 37.1839 40.6278ZM41.9105 41.0909C43.0412 41.0909 43.831 40.1676 43.831 38.8381C43.831 37.5 43.0412 36.5767 41.9105 36.5767C40.7798 36.5767 39.9901 37.5 39.9901 38.8381C39.9901 40.1676 40.7798 41.0909 41.9105 41.0909ZM41.9105 40.6278C41.0043 40.6278 40.4986 39.8153 40.4986 38.8381C40.4986 37.8608 41.0043 37.0369 41.9105 37.0369C42.8168 37.0369 43.3224 37.8608 43.3224 38.8381C43.3224 39.8153 42.8168 40.6278 41.9105 40.6278ZM45.4467 35.1818H44.9411V41H45.4467V35.1818ZM50.8303 36.6364H49.8643V36.1023C49.8643 35.6449 50.1115 35.3892 50.5518 35.3892C50.7195 35.3892 50.8217 35.4261 50.8984 35.4517L51.0462 35.0085C50.9439 34.9659 50.7734 34.9119 50.5064 34.9119C49.9126 34.9119 49.3558 35.2926 49.3558 35.9972V36.6364H48.6854V37.0767H49.3558V41H49.8615L49.8643 37.0767H50.8303V36.6364ZM53.3558 41.0909C54.4865 41.0909 55.2763 40.1676 55.2763 38.8381C55.2763 37.5 54.4865 36.5767 53.3558 36.5767C52.2251 36.5767 51.4354 37.5 51.4354 38.8381C51.4354 40.1676 52.2251 41.0909 53.3558 41.0909ZM53.3558 40.6278C52.4496 40.6278 51.9439 39.8153 51.9439 38.8381C51.9439 37.8608 52.4496 37.0369 53.3558 37.0369C54.2621 37.0369 54.7678 37.8608 54.7678 38.8381C54.7678 39.8153 54.2621 40.6278 53.3558 40.6278ZM56.3864 41H56.892V38.1818C56.892 37.5341 57.3892 37.0653 58.071 37.0653C58.2045 37.0653 58.3295 37.0881 58.375 37.0938V36.5795C58.3068 36.5767 58.1903 36.571 58.108 36.571C57.5597 36.571 57.0909 36.8665 56.9148 37.3068H56.8778V36.6364H56.3864V41ZM34.4318 53.0909C35.3068 53.0909 35.8949 52.6165 36.0938 52.0682L35.6136 51.9119C35.446 52.304 35.0511 52.6278 34.4318 52.6278C33.5398 52.6278 32.9744 51.9773 32.9517 50.9688H36.2017V50.7188C36.2017 49.2614 35.3011 48.5767 34.3551 48.5767C33.2244 48.5767 32.4432 49.5227 32.4432 50.8438C32.4432 52.1676 33.2102 53.0909 34.4318 53.0909ZM32.9545 50.5227C33.0085 49.7102 33.5568 49.0369 34.3551 49.0369C35.1364 49.0369 35.6847 49.6818 35.6847 50.5227H32.9545ZM37.8217 47.1818H37.3161V53H37.8217V47.1818ZM40.924 53.0909C41.799 53.0909 42.3871 52.6165 42.5859 52.0682L42.1058 51.9119C41.9382 52.304 41.5433 52.6278 40.924 52.6278C40.032 52.6278 39.4666 51.9773 39.4439 50.9688H42.6939V50.7188C42.6939 49.2614 41.7933 48.5767 40.8473 48.5767C39.7166 48.5767 38.9354 49.5227 38.9354 50.8438C38.9354 52.1676 39.7024 53.0909 40.924 53.0909ZM39.4467 50.5227C39.5007 49.7102 40.049 49.0369 40.8473 49.0369C41.6286 49.0369 42.1768 49.6818 42.1768 50.5227H39.4467ZM43.8082 53H44.3139V50.2045C44.3139 49.5256 44.7656 49.0426 45.3707 49.0426C45.9673 49.0426 46.3139 49.4403 46.3139 50.0312V53H46.831V50.1278C46.831 49.5 47.206 49.0426 47.8707 49.0426C48.4474 49.0426 48.831 49.3892 48.831 50.0767V53H49.3366V50.0767C49.3366 49.0994 48.8338 48.5795 48.0241 48.5795C47.3878 48.5795 46.9276 48.8892 46.7315 49.3722H46.6946C46.5014 48.8778 46.1179 48.5795 45.5156 48.5795C44.9446 48.5795 44.5185 48.8551 44.3452 49.3068H44.2997V48.6364H43.8082V53ZM52.4396 53.0909C53.3146 53.0909 53.9027 52.6165 54.1016 52.0682L53.6214 51.9119C53.4538 52.304 53.0589 52.6278 52.4396 52.6278C51.5476 52.6278 50.9822 51.9773 50.9595 50.9688H54.2095V50.7188C54.2095 49.2614 53.3089 48.5767 52.3629 48.5767C51.2322 48.5767 50.451 49.5227 50.451 50.8438C50.451 52.1676 51.218 53.0909 52.4396 53.0909ZM50.9624 50.5227C51.0163 49.7102 51.5646 49.0369 52.3629 49.0369C53.1442 49.0369 53.6925 49.6818 53.6925 50.5227H50.9624ZM55.8295 50.2727C55.8295 49.5114 56.3295 49.0426 57.017 49.0426C57.6875 49.0426 58.1193 49.4915 58.1193 50.2045V53H58.625V50.1733C58.625 49.1392 58.0256 48.5795 57.1449 48.5795C56.5057 48.5795 56.0653 48.875 55.8608 49.321H55.8153V48.6364H55.3239V53H55.8295V50.2727ZM61.6754 48.6364H60.7521V47.5909H60.2436V48.6364H59.593V49.0767H60.2436V51.9801C60.2436 52.6932 60.8061 53.0653 61.3658 53.0653C61.576 53.0653 61.718 53.0256 61.8146 52.9886L61.7067 52.5312C61.6357 52.5511 61.5447 52.571 61.4112 52.571C61.0675 52.571 60.7521 52.4091 60.7521 51.8608V49.0767H61.6754V48.6364ZM64.0426 53.0994C64.7699 53.0994 65.2131 52.696 65.3949 52.3097H65.4261V53H65.9318V50.0369C65.9318 48.8665 65.0511 48.5767 64.3835 48.5767C63.7159 48.5767 63.0284 48.8409 62.733 49.554L63.2131 49.7273C63.3722 49.3523 63.767 49.0312 64.3977 49.0312C65.0597 49.0312 65.4261 49.3949 65.4261 49.9915V50.0938C65.4261 50.4233 65.017 50.429 64.2841 50.5199C63.2983 50.642 62.608 50.9176 62.608 51.7812C62.608 52.6222 63.25 53.0994 64.0426 53.0994ZM64.1108 52.6364C63.5398 52.6364 63.1136 52.3324 63.1136 51.804C63.1136 51.2756 63.5455 51.054 64.2841 50.9631C64.642 50.9205 65.2784 50.8409 65.4261 50.696V51.3267C65.4261 52.0426 64.9176 52.6364 64.1108 52.6364ZM67.277 53H67.7827V50.1818C67.7827 49.5341 68.2798 49.0653 68.9616 49.0653C69.0952 49.0653 69.2202 49.0881 69.2656 49.0938V48.5795C69.1974 48.5767 69.081 48.571 68.9986 48.571C68.4503 48.571 67.9815 48.8665 67.8054 49.3068H67.7685V48.6364H67.277V53ZM70.6136 54.6364C71.1591 54.6364 71.5597 54.3239 71.7926 53.6903L73.642 48.6449L73.0909 48.6364L71.7955 52.3324H71.7557L70.4602 48.6364H69.9119L71.517 53.0426L71.358 53.4858C71.1165 54.1449 70.7756 54.2614 70.2614 54.0994L70.125 54.5455C70.2273 54.5938 70.4148 54.6364 70.6136 54.6364ZM81.7536 50.0909C81.7536 48.2699 80.7081 47.1023 79.2365 47.1023C77.7678 47.1023 76.7223 48.2727 76.7223 50.0909C76.7223 51.9091 77.7649 53.0795 79.2365 53.0795C80.7081 53.0795 81.7536 51.9119 81.7536 50.0909ZM81.2365 50.0909C81.2393 51.6562 80.3842 52.5795 79.2365 52.5795C78.0859 52.5795 77.2365 51.6506 77.2365 50.0909C77.2365 48.5227 78.0945 47.6023 79.2365 47.6023C80.3842 47.6023 81.2365 48.5256 81.2365 50.0909ZM86.1974 48.6364H86.7116C86.6719 47.7528 85.9077 47.0994 84.8253 47.0994C83.7514 47.0994 82.9247 47.7443 82.9247 48.6818C82.9247 49.429 83.4531 49.8977 84.3651 50.1676L85.0611 50.3722C85.7827 50.5824 86.277 50.8523 86.277 51.446C86.277 52.1449 85.6435 52.6136 84.7741 52.6136C83.9901 52.6136 83.3764 52.2358 83.3196 51.5455H82.7741C82.8366 52.4659 83.5866 53.0994 84.7741 53.0994C86.0355 53.0994 86.7912 52.3864 86.7912 51.4545C86.7912 50.4886 85.9503 50.1023 85.2116 49.8949L84.598 49.7188C84.0327 49.5597 83.4389 49.2727 83.4389 48.6591C83.4389 48.0341 83.9986 47.5767 84.8111 47.5767C85.581 47.5767 86.1321 47.9886 86.1974 48.6364ZM88.3679 53.0426C88.5952 53.0426 88.777 52.858 88.777 52.6335C88.777 52.4062 88.5952 52.2244 88.3679 52.2244C88.1435 52.2244 87.9588 52.4062 87.9588 52.6335C87.9588 52.858 88.1435 53.0426 88.3679 53.0426ZM34.9773 59.1818V63.3778C34.9744 64.2216 34.5483 64.6023 33.9318 64.6023C33.3324 64.6023 32.8835 64.2472 32.8864 63.7273H32.3636C32.3608 64.5483 33.0284 65.0795 33.9318 65.0795C34.8551 65.0795 35.5057 64.517 35.5085 63.3778V59.1818H34.9773ZM39.7216 63.3324C39.7216 64.1335 39.1193 64.5653 38.5284 64.5653C37.8977 64.5653 37.4545 64.1136 37.4545 63.4318V60.6364H36.9489V63.4631C36.9489 64.4972 37.5455 65.0568 38.3835 65.0568C39.0227 65.0568 39.4773 64.7244 39.6818 64.2756H39.7216V65H40.2273V60.6364H39.7216V63.3324ZM44.4979 61.5938C44.2848 60.9631 43.8189 60.5767 43.0206 60.5767C42.1399 60.5767 41.5007 61.0795 41.5007 61.7983C41.5007 62.3835 41.8558 62.7812 42.6143 62.9631L43.3274 63.1335C43.8075 63.2472 44.0376 63.4943 44.0376 63.8438C44.0376 64.2983 43.603 64.6364 42.9325 64.6364C42.3359 64.6364 41.9638 64.3665 41.8416 63.8494L41.3558 63.9688C41.5092 64.696 42.0859 65.0909 42.9411 65.0909C43.9013 65.0909 44.5604 64.5625 44.5604 63.821C44.5604 63.2386 44.1939 62.8494 43.4638 62.6705L42.8047 62.5085C42.2621 62.3722 42.0092 62.1534 42.0092 61.7756C42.0092 61.3324 42.4325 61.0227 43.0206 61.0227C43.6087 61.0227 43.8984 61.3324 44.0348 61.7244L44.4979 61.5938ZM47.3864 60.6364H46.4631V59.5909H45.9545V60.6364H45.304V61.0767H45.9545V63.9801C45.9545 64.6932 46.517 65.0653 47.0767 65.0653C47.2869 65.0653 47.429 65.0256 47.5256 64.9886L47.4176 64.5312C47.3466 64.5511 47.2557 64.571 47.1222 64.571C46.7784 64.571 46.4631 64.4091 46.4631 63.8608V61.0767H47.3864V60.6364ZM52.4496 66.7273C53.4837 66.7273 54.2507 66.2216 54.2507 65.1136V60.6364H53.7564V61.4688H53.7053C53.5263 61.0767 53.1655 60.5767 52.3643 60.5767C51.2848 60.5767 50.5604 61.4801 50.5604 62.8068C50.5604 64.1449 51.3104 64.9545 52.3558 64.9545C53.1399 64.9545 53.5234 64.5 53.6967 64.0994H53.7422V65.0824C53.7422 65.8949 53.2223 66.2727 52.4496 66.2727C51.7024 66.2727 51.3445 65.9119 51.1598 65.5795L50.745 65.8523C51.0007 66.3523 51.5575 66.7273 52.4496 66.7273ZM52.4155 64.4915C51.549 64.4915 51.0689 63.7983 51.0689 62.7983C51.0689 61.8153 51.5405 61.0369 52.4155 61.0369C53.2706 61.0369 53.7507 61.7756 53.7507 62.7983C53.7507 63.8523 53.2564 64.4915 52.4155 64.4915ZM55.5895 65H56.0952V62.1818C56.0952 61.5341 56.5923 61.0653 57.2741 61.0653C57.4077 61.0653 57.5327 61.0881 57.5781 61.0938V60.5795C57.5099 60.5767 57.3935 60.571 57.3111 60.571C56.7628 60.571 56.294 60.8665 56.1179 61.3068H56.081V60.6364H55.5895V65ZM59.6598 65.0994C60.3871 65.0994 60.8303 64.696 61.0121 64.3097H61.0433V65H61.549V62.0369C61.549 60.8665 60.6683 60.5767 60.0007 60.5767C59.3331 60.5767 58.6456 60.8409 58.3501 61.554L58.8303 61.7273C58.9893 61.3523 59.3842 61.0312 60.0149 61.0312C60.6768 61.0312 61.0433 61.3949 61.0433 61.9915V62.0938C61.0433 62.4233 60.6342 62.429 59.9013 62.5199C58.9155 62.642 58.2251 62.9176 58.2251 63.7812C58.2251 64.6222 58.8672 65.0994 59.6598 65.0994ZM59.728 64.6364C59.157 64.6364 58.7308 64.3324 58.7308 63.804C58.7308 63.2756 59.1626 63.054 59.9013 62.9631C60.2592 62.9205 60.8956 62.8409 61.0433 62.696V63.3267C61.0433 64.0426 60.5348 64.6364 59.728 64.6364ZM62.9993 65H63.4908V64.1903H63.5533C63.7294 64.5909 64.0987 65.0909 64.8942 65.0909C65.9652 65.0909 66.6896 64.1847 66.6896 62.8295C66.6896 61.4858 65.9624 60.5767 64.8857 60.5767C64.0874 60.5767 63.7266 61.0767 63.5533 61.4688H63.5078V59.1818H62.9993V65ZM63.4993 62.821C63.4993 61.7756 63.9794 61.0369 64.8317 61.0369C65.7067 61.0369 66.1811 61.8153 66.1811 62.821C66.1811 63.8381 65.701 64.6278 64.8317 64.6278C63.9851 64.6278 63.4993 63.875 63.4993 62.821ZM71.7692 60.6364H70.8459V59.5909H70.3374V60.6364H69.6868V61.0767H70.3374V63.9801C70.3374 64.6932 70.8999 65.0653 71.4595 65.0653C71.6697 65.0653 71.8118 65.0256 71.9084 64.9886L71.8004 64.5312C71.7294 64.5511 71.6385 64.571 71.505 64.571C71.1612 64.571 70.8459 64.4091 70.8459 63.8608V61.0767H71.7692V60.6364ZM73.517 62.2727C73.517 61.5114 74.0284 61.0426 74.7273 61.0426C75.4034 61.0426 75.8352 61.4858 75.8352 62.2045V65H76.3438V62.1733C76.3438 61.1335 75.7415 60.5795 74.8551 60.5795C74.196 60.5795 73.767 60.8693 73.5625 61.321H73.517V59.1818H73.0114V65H73.517V62.2727ZM79.4396 65.0909C80.3146 65.0909 80.9027 64.6165 81.1016 64.0682L80.6214 63.9119C80.4538 64.304 80.0589 64.6278 79.4396 64.6278C78.5476 64.6278 77.9822 63.9773 77.9595 62.9688H81.2095V62.7188C81.2095 61.2614 80.3089 60.5767 79.3629 60.5767C78.2322 60.5767 77.451 61.5227 77.451 62.8438C77.451 64.1676 78.218 65.0909 79.4396 65.0909ZM77.9624 62.5227C78.0163 61.7102 78.5646 61.0369 79.3629 61.0369C80.1442 61.0369 80.6925 61.6818 80.6925 62.5227H77.9624ZM33.8864 77.0994C34.6136 77.0994 35.0568 76.696 35.2386 76.3097H35.2699V77H35.7756V74.0369C35.7756 72.8665 34.8949 72.5767 34.2273 72.5767C33.5597 72.5767 32.8722 72.8409 32.5767 73.554L33.0568 73.7273C33.2159 73.3523 33.6108 73.0312 34.2415 73.0312C34.9034 73.0312 35.2699 73.3949 35.2699 73.9915V74.0938C35.2699 74.4233 34.8608 74.429 34.1278 74.5199C33.142 74.642 32.4517 74.9176 32.4517 75.7812C32.4517 76.6222 33.0938 77.0994 33.8864 77.0994ZM33.9545 76.6364C33.3835 76.6364 32.9574 76.3324 32.9574 75.804C32.9574 75.2756 33.3892 75.054 34.1278 74.9631C34.4858 74.9205 35.1222 74.8409 35.2699 74.696V75.3267C35.2699 76.0426 34.7614 76.6364 33.9545 76.6364ZM37.1207 77H37.6264V74.1818C37.6264 73.5341 38.1236 73.0653 38.8054 73.0653C38.9389 73.0653 39.0639 73.0881 39.1094 73.0938V72.5795C39.0412 72.5767 38.9247 72.571 38.8423 72.571C38.294 72.571 37.8253 72.8665 37.6491 73.3068H37.6122V72.6364H37.1207V77ZM41.6037 77.0909C42.4787 77.0909 43.0668 76.6165 43.2656 76.0682L42.7855 75.9119C42.6179 76.304 42.223 76.6278 41.6037 76.6278C40.7116 76.6278 40.1463 75.9773 40.1236 74.9688H43.3736V74.7188C43.3736 73.2614 42.473 72.5767 41.527 72.5767C40.3963 72.5767 39.6151 73.5227 39.6151 74.8438C39.6151 76.1676 40.3821 77.0909 41.6037 77.0909ZM40.1264 74.5227C40.1804 73.7102 40.7287 73.0369 41.527 73.0369C42.3082 73.0369 42.8565 73.6818 42.8565 74.5227H40.1264ZM45.7067 77.0994C46.4339 77.0994 46.8771 76.696 47.0589 76.3097H47.0902V77H47.5959V74.0369C47.5959 72.8665 46.7152 72.5767 46.0476 72.5767C45.38 72.5767 44.6925 72.8409 44.397 73.554L44.8771 73.7273C45.0362 73.3523 45.4311 73.0312 46.0618 73.0312C46.7237 73.0312 47.0902 73.3949 47.0902 73.9915V74.0938C47.0902 74.4233 46.6811 74.429 45.9482 74.5199C44.9624 74.642 44.272 74.9176 44.272 75.7812C44.272 76.6222 44.9141 77.0994 45.7067 77.0994ZM45.7749 76.6364C45.2038 76.6364 44.7777 76.3324 44.7777 75.804C44.7777 75.2756 45.2095 75.054 45.9482 74.9631C46.3061 74.9205 46.9425 74.8409 47.0902 74.696V75.3267C47.0902 76.0426 46.5817 76.6364 45.7749 76.6364ZM52.1598 77H52.6825L53.7166 73.4233H53.7706L54.8047 77H55.3274L56.6456 72.6364H56.1115L55.0774 76.2273H55.0376L54.0149 72.6364H53.478L52.4467 76.2358H52.4098L51.3757 72.6364H50.8416L52.1598 77ZM57.6342 77H58.1428V72.6364H57.6342V77ZM57.8928 71.8864C58.1001 71.8864 58.2734 71.7216 58.2734 71.5227C58.2734 71.3239 58.1001 71.1591 57.8928 71.1591C57.6854 71.1591 57.5149 71.3239 57.5149 71.5227C57.5149 71.7216 57.6854 71.8864 57.8928 71.8864ZM61.1989 72.6364H60.2756V71.5909H59.767V72.6364H59.1165V73.0767H59.767V75.9801C59.767 76.6932 60.3295 77.0653 60.8892 77.0653C61.0994 77.0653 61.2415 77.0256 61.3381 76.9886L61.2301 76.5312C61.1591 76.5511 61.0682 76.571 60.9347 76.571C60.5909 76.571 60.2756 76.4091 60.2756 75.8608V73.0767H61.1989V72.6364ZM62.9467 74.2727C62.9467 73.5114 63.4581 73.0426 64.157 73.0426C64.8331 73.0426 65.2649 73.4858 65.2649 74.2045V77H65.7734V74.1733C65.7734 73.1335 65.1712 72.5795 64.2848 72.5795C63.6257 72.5795 63.1967 72.8693 62.9922 73.321H62.9467V71.1818H62.4411V77H62.9467V74.2727ZM71.0739 72.6364H70.1506V71.5909H69.642V72.6364H68.9915V73.0767H69.642V75.9801C69.642 76.6932 70.2045 77.0653 70.7642 77.0653C70.9744 77.0653 71.1165 77.0256 71.2131 76.9886L71.1051 76.5312C71.0341 76.5511 70.9432 76.571 70.8097 76.571C70.4659 76.571 70.1506 76.4091 70.1506 75.8608V73.0767H71.0739V72.6364ZM72.8217 74.2727C72.8217 73.5114 73.3331 73.0426 74.032 73.0426C74.7081 73.0426 75.1399 73.4858 75.1399 74.2045V77H75.6484V74.1733C75.6484 73.1335 75.0462 72.5795 74.1598 72.5795C73.5007 72.5795 73.0717 72.8693 72.8672 73.321H72.8217V71.1818H72.3161V77H72.8217V74.2727ZM78.7443 77.0909C79.6193 77.0909 80.2074 76.6165 80.4062 76.0682L79.9261 75.9119C79.7585 76.304 79.3636 76.6278 78.7443 76.6278C77.8523 76.6278 77.2869 75.9773 77.2642 74.9688H80.5142V74.7188C80.5142 73.2614 79.6136 72.5767 78.6676 72.5767C77.5369 72.5767 76.7557 73.5227 76.7557 74.8438C76.7557 76.1676 77.5227 77.0909 78.7443 77.0909ZM77.267 74.5227C77.321 73.7102 77.8693 73.0369 78.6676 73.0369C79.4489 73.0369 79.9972 73.6818 79.9972 74.5227H77.267ZM34.3864 84.6364H33.4631V83.5909H32.9545V84.6364H32.304V85.0767H32.9545V87.9801C32.9545 88.6932 33.517 89.0653 34.0767 89.0653C34.2869 89.0653 34.429 89.0256 34.5256 88.9886L34.4176 88.5312C34.3466 88.5511 34.2557 88.571 34.1222 88.571C33.7784 88.571 33.4631 88.4091 33.4631 87.8608V85.0767H34.3864V84.6364ZM37.2521 89.0909C38.1271 89.0909 38.7152 88.6165 38.9141 88.0682L38.4339 87.9119C38.2663 88.304 37.8714 88.6278 37.2521 88.6278C36.3601 88.6278 35.7947 87.9773 35.772 86.9688H39.022V86.7188C39.022 85.2614 38.1214 84.5767 37.1754 84.5767C36.0447 84.5767 35.2635 85.5227 35.2635 86.8438C35.2635 88.1676 36.0305 89.0909 37.2521 89.0909ZM35.7749 86.5227C35.8288 85.7102 36.3771 85.0369 37.1754 85.0369C37.9567 85.0369 38.505 85.6818 38.505 86.5227H35.7749ZM40.3317 84.6364H39.7464L41.1328 86.8182L39.7464 89H40.3317L41.4567 87.1989L42.5817 89H43.1697L41.7663 86.8182L43.1697 84.6364H42.5817L41.4567 86.4972L40.3317 84.6364ZM45.9489 84.6364H45.0256V83.5909H44.517V84.6364H43.8665V85.0767H44.517V87.9801C44.517 88.6932 45.0795 89.0653 45.6392 89.0653C45.8494 89.0653 45.9915 89.0256 46.0881 88.9886L45.9801 88.5312C45.9091 88.5511 45.8182 88.571 45.6847 88.571C45.3409 88.571 45.0256 88.4091 45.0256 87.8608V85.0767H45.9489V84.6364ZM49.6996 90.6364C50.245 90.6364 50.6456 90.3239 50.8786 89.6903L52.728 84.6449L52.1768 84.6364L50.8814 88.3324H50.8416L49.5462 84.6364H48.9979L50.603 89.0426L50.4439 89.4858C50.2024 90.1449 49.8615 90.2614 49.3473 90.0994L49.2109 90.5455C49.3132 90.5938 49.5007 90.6364 49.6996 90.6364ZM55.2543 89.0909C56.3849 89.0909 57.1747 88.1676 57.1747 86.8381C57.1747 85.5 56.3849 84.5767 55.2543 84.5767C54.1236 84.5767 53.3338 85.5 53.3338 86.8381C53.3338 88.1676 54.1236 89.0909 55.2543 89.0909ZM55.2543 88.6278C54.348 88.6278 53.8423 87.8153 53.8423 86.8381C53.8423 85.8608 54.348 85.0369 55.2543 85.0369C56.1605 85.0369 56.6662 85.8608 56.6662 86.8381C56.6662 87.8153 56.1605 88.6278 55.2543 88.6278ZM61.0575 87.3324C61.0575 88.1335 60.4553 88.5653 59.8643 88.5653C59.2337 88.5653 58.7905 88.1136 58.7905 87.4318V84.6364H58.2848V87.4631C58.2848 88.4972 58.8814 89.0568 59.7195 89.0568C60.3587 89.0568 60.8132 88.7244 61.0178 88.2756H61.0575V89H61.5632V84.6364H61.0575V87.3324ZM66.1207 89H66.6435L67.6776 85.4233H67.7315L68.7656 89H69.2884L70.6065 84.6364H70.0724L69.0384 88.2273H68.9986L67.9759 84.6364H67.4389L66.4077 88.2358H66.3707L65.3366 84.6364H64.8026L66.1207 89ZM71.5952 89H72.1037V84.6364H71.5952V89ZM71.8537 83.8864C72.0611 83.8864 72.2344 83.7216 72.2344 83.5227C72.2344 83.3239 72.0611 83.1591 71.8537 83.1591C71.6463 83.1591 71.4759 83.3239 71.4759 83.5227C71.4759 83.7216 71.6463 83.8864 71.8537 83.8864ZM75.1598 84.6364H74.2365V83.5909H73.728V84.6364H73.0774V85.0767H73.728V87.9801C73.728 88.6932 74.2905 89.0653 74.8501 89.0653C75.0604 89.0653 75.2024 89.0256 75.299 88.9886L75.1911 88.5312C75.12 88.5511 75.0291 88.571 74.8956 88.571C74.5518 88.571 74.2365 88.4091 74.2365 87.8608V85.0767H75.1598V84.6364ZM76.9077 86.2727C76.9077 85.5114 77.419 85.0426 78.1179 85.0426C78.794 85.0426 79.2259 85.4858 79.2259 86.2045V89H79.7344V86.1733C79.7344 85.1335 79.1321 84.5795 78.2457 84.5795C77.5866 84.5795 77.1577 84.8693 76.9531 85.321H76.9077V83.1818H76.402V89H76.9077V86.2727ZM85.0348 84.6364H84.1115V83.5909H83.603V84.6364H82.9524V85.0767H83.603V87.9801C83.603 88.6932 84.1655 89.0653 84.7251 89.0653C84.9354 89.0653 85.0774 89.0256 85.174 88.9886L85.0661 88.5312C84.995 88.5511 84.9041 88.571 84.7706 88.571C84.4268 88.571 84.1115 88.4091 84.1115 87.8608V85.0767H85.0348V84.6364ZM87.8324 89.0909C88.9631 89.0909 89.7528 88.1676 89.7528 86.8381C89.7528 85.5 88.9631 84.5767 87.8324 84.5767C86.7017 84.5767 85.9119 85.5 85.9119 86.8381C85.9119 88.1676 86.7017 89.0909 87.8324 89.0909ZM87.8324 88.6278C86.9261 88.6278 86.4205 87.8153 86.4205 86.8381C86.4205 85.8608 86.9261 85.0369 87.8324 85.0369C88.7386 85.0369 89.2443 85.8608 89.2443 86.8381C89.2443 87.8153 88.7386 88.6278 87.8324 88.6278ZM32.7727 101H33.2642V100.19H33.3267C33.5028 100.591 33.8722 101.091 34.6676 101.091C35.7386 101.091 36.4631 100.185 36.4631 98.8295C36.4631 97.4858 35.7358 96.5767 34.6591 96.5767C33.8608 96.5767 33.5 97.0767 33.3267 97.4688H33.2812V95.1818H32.7727V101ZM33.2727 98.821C33.2727 97.7756 33.7528 97.0369 34.6051 97.0369C35.4801 97.0369 35.9545 97.8153 35.9545 98.821C35.9545 99.8381 35.4744 100.628 34.6051 100.628C33.7585 100.628 33.2727 99.875 33.2727 98.821ZM39.3381 101.091C40.2131 101.091 40.8011 100.616 41 100.068L40.5199 99.9119C40.3523 100.304 39.9574 100.628 39.3381 100.628C38.446 100.628 37.8807 99.9773 37.858 98.9688H41.108V98.7188C41.108 97.2614 40.2074 96.5767 39.2614 96.5767C38.1307 96.5767 37.3494 97.5227 37.3494 98.8438C37.3494 100.168 38.1165 101.091 39.3381 101.091ZM37.8608 98.5227C37.9148 97.7102 38.4631 97.0369 39.2614 97.0369C40.0426 97.0369 40.5909 97.6818 40.5909 98.5227H37.8608ZM46.2365 101.091C47.1115 101.091 47.6996 100.616 47.8984 100.068L47.4183 99.9119C47.2507 100.304 46.8558 100.628 46.2365 100.628C45.3445 100.628 44.7791 99.9773 44.7564 98.9688H48.0064V98.7188C48.0064 97.2614 47.1058 96.5767 46.1598 96.5767C45.0291 96.5767 44.2479 97.5227 44.2479 98.8438C44.2479 100.168 45.0149 101.091 46.2365 101.091ZM44.7592 98.5227C44.8132 97.7102 45.3615 97.0369 46.1598 97.0369C46.9411 97.0369 47.4893 97.6818 47.4893 98.5227H44.7592ZM49.3161 96.6364H48.7308L50.1172 98.8182L48.7308 101H49.3161L50.4411 99.1989L51.5661 101H52.1541L50.7507 98.8182L52.1541 96.6364H51.5661L50.4411 98.4972L49.3161 96.6364ZM54.9332 96.6364H54.0099V95.5909H53.5014V96.6364H52.8509V97.0767H53.5014V99.9801C53.5014 100.693 54.0639 101.065 54.6236 101.065C54.8338 101.065 54.9759 101.026 55.0724 100.989L54.9645 100.531C54.8935 100.551 54.8026 100.571 54.669 100.571C54.3253 100.571 54.0099 100.409 54.0099 99.8608V97.0767H54.9332V96.6364ZM56.0817 101H56.5874V98.1818C56.5874 97.5341 57.0845 97.0653 57.7663 97.0653C57.8999 97.0653 58.0249 97.0881 58.0703 97.0938V96.5795C58.0021 96.5767 57.8857 96.571 57.8033 96.571C57.255 96.571 56.7862 96.8665 56.6101 97.3068H56.5732V96.6364H56.0817V101ZM60.152 101.099C60.8793 101.099 61.3224 100.696 61.5043 100.31H61.5355V101H62.0412V98.0369C62.0412 96.8665 61.1605 96.5767 60.4929 96.5767C59.8253 96.5767 59.1378 96.8409 58.8423 97.554L59.3224 97.7273C59.4815 97.3523 59.8764 97.0312 60.5071 97.0312C61.169 97.0312 61.5355 97.3949 61.5355 97.9915V98.0938C61.5355 98.4233 61.1264 98.429 60.3935 98.5199C59.4077 98.642 58.7173 98.9176 58.7173 99.7812C58.7173 100.622 59.3594 101.099 60.152 101.099ZM60.2202 100.636C59.6491 100.636 59.223 100.332 59.223 99.804C59.223 99.2756 59.6548 99.054 60.3935 98.9631C60.7514 98.9205 61.3878 98.8409 61.5355 98.696V99.3267C61.5355 100.043 61.027 100.636 60.2202 100.636ZM65.0909 101.091C66 101.091 66.6392 100.517 66.7557 99.7273H66.2443C66.1278 100.284 65.6705 100.628 65.0909 100.628C64.2358 100.628 63.6705 99.8835 63.6705 98.821C63.6705 97.7642 64.2528 97.0369 65.0909 97.0369C65.7131 97.0369 66.1335 97.4375 66.2415 97.9318H66.7528C66.6335 97.1222 65.9574 96.5767 65.0824 96.5767C63.9403 96.5767 63.1619 97.5256 63.1619 98.8381C63.1619 100.139 63.9176 101.091 65.0909 101.091ZM69.5582 96.6364H68.6349V95.5909H68.1264V96.6364H67.4759V97.0767H68.1264V99.9801C68.1264 100.693 68.6889 101.065 69.2486 101.065C69.4588 101.065 69.6009 101.026 69.6974 100.989L69.5895 100.531C69.5185 100.551 69.4276 100.571 69.294 100.571C68.9503 100.571 68.6349 100.409 68.6349 99.8608V97.0767H69.5582V96.6364ZM72.424 101.091C73.299 101.091 73.8871 100.616 74.0859 100.068L73.6058 99.9119C73.4382 100.304 73.0433 100.628 72.424 100.628C71.532 100.628 70.9666 99.9773 70.9439 98.9688H74.1939V98.7188C74.1939 97.2614 73.2933 96.5767 72.3473 96.5767C71.2166 96.5767 70.4354 97.5227 70.4354 98.8438C70.4354 100.168 71.2024 101.091 72.424 101.091ZM70.9467 98.5227C71.0007 97.7102 71.549 97.0369 72.3473 97.0369C73.1286 97.0369 73.6768 97.6818 73.6768 98.5227H70.9467ZM76.8793 101.091C77.6719 101.091 78.0412 100.588 78.2202 100.19H78.2798V101H78.7741V95.1818H78.2656V97.4688H78.2202C78.0469 97.0767 77.6861 96.5767 76.8878 96.5767C75.8111 96.5767 75.0838 97.4858 75.0838 98.8295C75.0838 100.185 75.8082 101.091 76.8793 101.091ZM76.9389 100.628C76.0696 100.628 75.5923 99.8381 75.5923 98.821C75.5923 97.8153 76.0639 97.0369 76.9389 97.0369C77.7912 97.0369 78.2741 97.7756 78.2741 98.821C78.2741 99.875 77.7855 100.628 76.9389 100.628ZM83.6832 101.099C84.4105 101.099 84.8537 100.696 85.0355 100.31H85.0668V101H85.5724V98.0369C85.5724 96.8665 84.6918 96.5767 84.0241 96.5767C83.3565 96.5767 82.669 96.8409 82.3736 97.554L82.8537 97.7273C83.0128 97.3523 83.4077 97.0312 84.0384 97.0312C84.7003 97.0312 85.0668 97.3949 85.0668 97.9915V98.0938C85.0668 98.4233 84.6577 98.429 83.9247 98.5199C82.9389 98.642 82.2486 98.9176 82.2486 99.7812C82.2486 100.622 82.8906 101.099 83.6832 101.099ZM83.7514 100.636C83.1804 100.636 82.7543 100.332 82.7543 99.804C82.7543 99.2756 83.1861 99.054 83.9247 98.9631C84.2827 98.9205 84.919 98.8409 85.0668 98.696V99.3267C85.0668 100.043 84.5582 100.636 83.7514 100.636ZM87.4233 98.2727C87.4233 97.5114 87.9233 97.0426 88.6108 97.0426C89.2812 97.0426 89.7131 97.4915 89.7131 98.2045V101H90.2188V98.1733C90.2188 97.1392 89.6193 96.5795 88.7386 96.5795C88.0994 96.5795 87.6591 96.875 87.4545 97.321H87.4091V96.6364H86.9176V101H87.4233V98.2727ZM93.1214 101.091C93.9141 101.091 94.2834 100.588 94.4624 100.19H94.522V101H95.0163V95.1818H94.5078V97.4688H94.4624C94.2891 97.0767 93.9283 96.5767 93.13 96.5767C92.0533 96.5767 91.326 97.4858 91.326 98.8295C91.326 100.185 92.0504 101.091 93.1214 101.091ZM93.1811 100.628C92.3118 100.628 91.8345 99.8381 91.8345 98.821C91.8345 97.8153 92.3061 97.0369 93.1811 97.0369C94.0334 97.0369 94.5163 97.7756 94.5163 98.821C94.5163 99.875 94.0277 100.628 93.1811 100.628ZM32.6676 113H33.1733V110.205C33.1733 109.526 33.625 109.043 34.2301 109.043C34.8267 109.043 35.1733 109.44 35.1733 110.031V113H35.6903V110.128C35.6903 109.5 36.0653 109.043 36.7301 109.043C37.3068 109.043 37.6903 109.389 37.6903 110.077V113H38.196V110.077C38.196 109.099 37.6932 108.58 36.8835 108.58C36.2472 108.58 35.7869 108.889 35.5909 109.372H35.554C35.3608 108.878 34.9773 108.58 34.375 108.58C33.804 108.58 33.3778 108.855 33.2045 109.307H33.1591V108.636H32.6676V113ZM40.7536 113.099C41.4808 113.099 41.924 112.696 42.1058 112.31H42.1371V113H42.6428V110.037C42.6428 108.866 41.7621 108.577 41.0945 108.577C40.4268 108.577 39.7393 108.841 39.4439 109.554L39.924 109.727C40.0831 109.352 40.478 109.031 41.1087 109.031C41.7706 109.031 42.1371 109.395 42.1371 109.991V110.094C42.1371 110.423 41.728 110.429 40.995 110.52C40.0092 110.642 39.3189 110.918 39.3189 111.781C39.3189 112.622 39.9609 113.099 40.7536 113.099ZM40.8217 112.636C40.2507 112.636 39.8246 112.332 39.8246 111.804C39.8246 111.276 40.2564 111.054 40.995 110.963C41.353 110.92 41.9893 110.841 42.1371 110.696V111.327C42.1371 112.043 41.6286 112.636 40.8217 112.636ZM45.6527 114.727C46.6868 114.727 47.4538 114.222 47.4538 113.114V108.636H46.9595V109.469H46.9084C46.7294 109.077 46.3686 108.577 45.5675 108.577C44.4879 108.577 43.7635 109.48 43.7635 110.807C43.7635 112.145 44.5135 112.955 45.5589 112.955C46.343 112.955 46.7266 112.5 46.8999 112.099H46.9453V113.082C46.9453 113.895 46.4254 114.273 45.6527 114.273C44.9055 114.273 44.5476 113.912 44.3629 113.58L43.9482 113.852C44.2038 114.352 44.7607 114.727 45.6527 114.727ZM45.6186 112.491C44.7521 112.491 44.272 111.798 44.272 110.798C44.272 109.815 44.7436 109.037 45.6186 109.037C46.4737 109.037 46.9538 109.776 46.9538 110.798C46.9538 111.852 46.4595 112.491 45.6186 112.491ZM48.7983 113H49.3068V108.636H48.7983V113ZM49.0568 107.886C49.2642 107.886 49.4375 107.722 49.4375 107.523C49.4375 107.324 49.2642 107.159 49.0568 107.159C48.8494 107.159 48.679 107.324 48.679 107.523C48.679 107.722 48.8494 107.886 49.0568 107.886ZM52.3487 113.091C53.2578 113.091 53.897 112.517 54.0135 111.727H53.5021C53.3857 112.284 52.9283 112.628 52.3487 112.628C51.4936 112.628 50.9283 111.884 50.9283 110.821C50.9283 109.764 51.5107 109.037 52.3487 109.037C52.9709 109.037 53.3913 109.438 53.4993 109.932H54.0107C53.8913 109.122 53.2152 108.577 52.3402 108.577C51.1982 108.577 50.4197 109.526 50.4197 110.838C50.4197 112.139 51.1754 113.091 52.3487 113.091ZM57.853 110.273C57.853 109.511 58.3643 109.043 59.0632 109.043C59.7393 109.043 60.1712 109.486 60.1712 110.205V113H60.6797V110.173C60.6797 109.134 60.0774 108.58 59.1911 108.58C58.532 108.58 58.103 108.869 57.8984 109.321H57.853V107.182H57.3473V113H57.853V110.273ZM63.2301 113.099C63.9574 113.099 64.4006 112.696 64.5824 112.31H64.6136V113H65.1193V110.037C65.1193 108.866 64.2386 108.577 63.571 108.577C62.9034 108.577 62.2159 108.841 61.9205 109.554L62.4006 109.727C62.5597 109.352 62.9545 109.031 63.5852 109.031C64.2472 109.031 64.6136 109.395 64.6136 109.991V110.094C64.6136 110.423 64.2045 110.429 63.4716 110.52C62.4858 110.642 61.7955 110.918 61.7955 111.781C61.7955 112.622 62.4375 113.099 63.2301 113.099ZM63.2983 112.636C62.7273 112.636 62.3011 112.332 62.3011 111.804C62.3011 111.276 62.733 111.054 63.4716 110.963C63.8295 110.92 64.4659 110.841 64.6136 110.696V111.327C64.6136 112.043 64.1051 112.636 63.2983 112.636ZM66.456 114.636H66.9645V112.19H67.0099C67.1832 112.591 67.5582 113.091 68.3509 113.091C69.419 113.091 70.1463 112.182 70.1463 110.83C70.1463 109.483 69.4219 108.577 68.3423 108.577C67.5412 108.577 67.1861 109.077 67.0099 109.469H66.9474V108.636H66.456V114.636ZM66.956 110.821C66.956 109.776 67.4361 109.037 68.2884 109.037C69.1662 109.037 69.6378 109.815 69.6378 110.821C69.6378 111.838 69.1577 112.628 68.2884 112.628C67.4446 112.628 66.956 111.875 66.956 110.821ZM71.245 114.636H71.7536V112.19H71.799C71.9723 112.591 72.3473 113.091 73.1399 113.091C74.2081 113.091 74.9354 112.182 74.9354 110.83C74.9354 109.483 74.2109 108.577 73.1314 108.577C72.3303 108.577 71.9751 109.077 71.799 109.469H71.7365V108.636H71.245V114.636ZM71.745 110.821C71.745 109.776 72.2251 109.037 73.0774 109.037C73.9553 109.037 74.4268 109.815 74.4268 110.821C74.4268 111.838 73.9467 112.628 73.0774 112.628C72.2337 112.628 71.745 111.875 71.745 110.821ZM77.8068 113.091C78.6818 113.091 79.2699 112.616 79.4688 112.068L78.9886 111.912C78.821 112.304 78.4261 112.628 77.8068 112.628C76.9148 112.628 76.3494 111.977 76.3267 110.969H79.5767V110.719C79.5767 109.261 78.6761 108.577 77.7301 108.577C76.5994 108.577 75.8182 109.523 75.8182 110.844C75.8182 112.168 76.5852 113.091 77.8068 113.091ZM76.3295 110.523C76.3835 109.71 76.9318 109.037 77.7301 109.037C78.5114 109.037 79.0597 109.682 79.0597 110.523H76.3295ZM81.1967 110.273C81.1967 109.511 81.6967 109.043 82.3842 109.043C83.0547 109.043 83.4865 109.491 83.4865 110.205V113H83.9922V110.173C83.9922 109.139 83.3928 108.58 82.5121 108.58C81.8729 108.58 81.4325 108.875 81.228 109.321H81.1825V108.636H80.6911V113H81.1967V110.273ZM88.2557 109.594C88.0426 108.963 87.5767 108.577 86.7784 108.577C85.8977 108.577 85.2585 109.08 85.2585 109.798C85.2585 110.384 85.6136 110.781 86.3722 110.963L87.0852 111.134C87.5653 111.247 87.7955 111.494 87.7955 111.844C87.7955 112.298 87.3608 112.636 86.6903 112.636C86.0938 112.636 85.7216 112.366 85.5994 111.849L85.1136 111.969C85.267 112.696 85.8438 113.091 86.6989 113.091C87.6591 113.091 88.3182 112.562 88.3182 111.821C88.3182 111.239 87.9517 110.849 87.2216 110.67L86.5625 110.509C86.0199 110.372 85.767 110.153 85.767 109.776C85.767 109.332 86.1903 109.023 86.7784 109.023C87.3665 109.023 87.6562 109.332 87.7926 109.724L88.2557 109.594ZM90.1357 107.182H89.5618L89.5987 111.332H90.0987L90.1357 107.182ZM89.8487 113.043C90.076 113.043 90.2578 112.858 90.2578 112.634C90.2578 112.406 90.076 112.224 89.8487 112.224C89.6243 112.224 89.4396 112.406 89.4396 112.634C89.4396 112.858 89.6243 113.043 89.8487 113.043Z" fill="black"/>
</g>
<g filter="url(#filter1_d)">
<path d="M76 81.1782L82.1782 75L105.422 98.244C106.594 99.4155 106.594 101.315 105.422 102.487L103.487 104.422C102.315 105.594 100.416 105.594 99.244 104.422L76 81.1782Z" fill="url(#paint0_linear)"/>
<circle cx="64.5" cy="64.5" r="20.5" fill="#C4EAE7" fill-opacity="0.15"/>
<circle cx="64.5" cy="64.5" r="19.5" stroke="#17384A" stroke-opacity="0.81" stroke-width="2"/>
<path d="M60.5 51L59.0115 51.7442C54.8624 53.8188 51.7744 57.5396 50.5 62V62" stroke="white" stroke-width="3" stroke-linecap="round"/>
</g>
<defs>
<filter id="filter0_d" x="21" y="12" width="86" height="109" filterUnits="userSpaceOnUse" color-interpolation-filters="sRGB">
<feFlood flood-opacity="0" result="BackgroundImageFix"/>
<feColorMatrix in="SourceAlpha" type="matrix" values="0 0 0 0 0 0 0 0 0 0 0 0 0 0 0 0 0 0 127 0" result="hardAlpha"/>
<feOffset dy="2"/>
<feGaussianBlur stdDeviation="2"/>
<feComposite in2="hardAlpha" operator="out"/>
<feColorMatrix type="matrix" values="0 0 0 0 0 0 0 0 0 0 0 0 0 0 0 0 0 0 0.25 0"/>
<feBlend mode="normal" in2="BackgroundImageFix" result="effect1_dropShadow"/>
<feBlend mode="normal" in="SourceGraphic" in2="effect1_dropShadow" result="shape"/>
</filter>
<filter id="filter1_d" x="42" y="44" width="66.3008" height="67.3008" filterUnits="userSpaceOnUse" color-interpolation-filters="sRGB">
<feFlood flood-opacity="0" result="BackgroundImageFix"/>
<feColorMatrix in="SourceAlpha" type="matrix" values="0 0 0 0 0 0 0 0 0 0 0 0 0 0 0 0 0 0 127 0" result="hardAlpha"/>
<feOffset dy="4"/>
<feGaussianBlur stdDeviation="1"/>
<feComposite in2="hardAlpha" operator="out"/>
<feColorMatrix type="matrix" values="0 0 0 0 0 0 0 0 0 0 0 0 0 0 0 0 0 0 0.25 0"/>
<feBlend mode="normal" in2="BackgroundImageFix" result="effect1_dropShadow"/>
<feBlend mode="normal" in="SourceGraphic" in2="effect1_dropShadow" result="shape"/>
</filter>
<linearGradient id="paint0_linear" x1="84.8272" y1="91.1083" x2="90.4642" y2="84.4151" gradientUnits="userSpaceOnUse">
<stop stop-color="#A77255"/>
<stop offset="1" stop-color="#E1B68F"/>
</linearGradient>
</defs>
</svg>
