<svg width="128" height="128" viewBox="0 0 128 128" fill="none" xmlns="http://www.w3.org/2000/svg">
<path opacity="0.5" d="M64 116C86.6437 116 105 110.851 105 104.5C105 98.1487 86.6437 93 64 93C41.3563 93 23 98.1487 23 104.5C23 110.851 41.3563 116 64 116Z" fill="url(#paint0_radial)"/>
<path opacity="0.6" d="M64 114.172C82.4976 114.172 97.4929 110.29 97.4929 105.5C97.4929 100.71 82.4976 96.8278 64 96.8278C45.5025 96.8278 30.5072 100.71 30.5072 105.5C30.5072 110.29 45.5025 114.172 64 114.172Z" fill="url(#paint1_radial)"/>
<g filter="url(#filter0_i)">
<path d="M101.91 21.5162C79.9883 11.2845 67.5326 28.6339 69.0273 37.9759H59.0627C58.0663 22.4059 41.076 11.8905 25.1831 21.961C11.3704 30.7135 16.0205 41.9565 20.2462 49.0081C21.0424 50.3367 20.7604 52.0431 19.6634 53.1366C11.4835 61.2901 2.32037 80.6627 20.699 96.2521C40.6282 113.157 81.9812 118.495 106.394 96.2521C124.539 79.7207 115.563 61.5254 107.673 52.7242C106.686 51.6234 106.544 49.9843 107.307 48.7181C115.993 34.3089 107.292 24.3428 101.91 21.5162Z" fill="url(#paint2_linear)"/>
</g>
<path d="M101.91 21.5162C79.9883 11.2845 67.5326 28.6339 69.0273 37.9759H59.0627C58.0663 22.4059 41.076 11.8905 25.1831 21.961C11.3704 30.7135 16.0205 41.9565 20.2462 49.0081C21.0424 50.3367 20.7604 52.0431 19.6634 53.1366C11.4835 61.2901 2.32037 80.6627 20.699 96.2521C40.6282 113.157 81.9812 118.495 106.394 96.2521C124.539 79.7207 115.563 61.5254 107.673 52.7242C106.686 51.6234 106.544 49.9843 107.307 48.7181C115.993 34.3089 107.292 24.3428 101.91 21.5162Z" stroke="url(#paint3_linear)" stroke-opacity="0.8"/>
<path opacity="0.3" d="M69.0273 38.4759H69.6136L69.521 37.8969C68.8091 33.4477 71.4346 26.9467 76.9864 22.8067C82.4902 18.7026 90.8824 16.9246 101.688 21.9643C104.283 23.3306 107.705 26.4384 109.417 30.951C111.12 35.4421 111.149 41.376 106.879 48.46C106.004 49.9112 106.165 51.7908 107.301 53.058C111.204 57.4124 115.355 64.0704 116.301 71.6512C117.242 79.1981 115.015 87.7211 106.058 95.8825C93.9725 106.893 77.672 111.096 61.8862 110.433C46.0953 109.769 30.8875 104.239 21.0225 95.8708C11.9627 88.186 9.72349 79.6135 10.7176 71.9704C11.7162 64.292 15.9866 57.5075 20.0163 53.4907C21.2617 52.2494 21.5995 50.2936 20.6751 48.7511C18.5719 45.2413 16.4155 40.7679 16.4502 36.1261C16.4846 31.5354 18.665 26.6832 25.4507 22.3834C41.0121 12.5229 57.5908 22.8043 58.5638 38.0078L58.5937 38.4759H59.0627H69.0273Z" stroke="url(#paint4_linear)"/>
<circle cx="90" cy="43" r="13" fill="url(#paint5_linear)" stroke="#7E8087"/>
<circle cx="89.5" cy="43.5" r="6.5" fill="url(#paint6_linear)" stroke="black" stroke-opacity="0.7"/>
<circle cx="38" cy="43" r="13" fill="url(#paint7_linear)" stroke="#7E8087"/>
<circle cx="38.5" cy="43.5" r="6.5" fill="url(#paint8_linear)" stroke="black" stroke-opacity="0.7"/>
<path d="M29.5015 73.0706C64.2894 78.6271 85.5 75 97.7626 73.0706C98.7739 72.804 101.808 73.0706 100.796 77.8791C99.7852 82.6875 88.6612 103.524 63.3793 102.99C38.0974 102.456 28.4902 83.2218 26.4677 77.8791C24.8497 73.6049 27.8161 72.8925 29.5015 73.0706Z" fill="url(#paint9_linear)" stroke="#3F3F3F"/>
<path d="M47 98.5C52.5 101.167 66.9 105 80.5 99C75.5 94.5 61.8 88.1 47 98.5Z" fill="url(#paint10_linear)" stroke="#ED5353"/>
<path d="M99.5 76C71.1 88.8 39.3333 81.3333 27 76C26.6 74 28.5 73.8333 29.5 74C69.5 80.5 95.5 74 98 74C100 74 100.215 75.6776 99.5 76Z" fill="url(#paint11_linear)" stroke="#ABACAE" stroke-opacity="0.5"/>
<ellipse cx="58.5" cy="67" rx="2.5" ry="4" fill="black" fill-opacity="0.15"/>
<ellipse cx="58.5" cy="67" rx="2.5" ry="4" stroke="black" stroke-opacity="0.15"/>
<ellipse cx="58.5" cy="67" rx="2.5" ry="4" stroke="black" stroke-opacity="0.07"/>
<ellipse cx="69.5" cy="67" rx="2.5" ry="4" fill="black" fill-opacity="0.15"/>
<ellipse cx="69.5" cy="67" rx="2.5" ry="4" stroke="black" stroke-opacity="0.15"/>
<ellipse cx="69.5" cy="67" rx="2.5" ry="4" stroke="black" stroke-opacity="0.07"/>
<ellipse cx="58.5" cy="66" rx="2.5" ry="4" fill="url(#paint12_linear)" stroke="black" stroke-opacity="0.7"/>
<ellipse cx="69.5" cy="66" rx="2.5" ry="4" fill="url(#paint13_linear)" stroke="black" stroke-opacity="0.7"/>
<ellipse cx="88.0137" cy="42.1774" rx="2" ry="2.5" transform="rotate(31.6153 88.0137 42.1774)" fill="white"/>
<ellipse cx="37.0137" cy="42.1774" rx="2" ry="2.5" transform="rotate(31.6153 37.0137 42.1774)" fill="white"/>
<ellipse cx="90.2524" cy="44.7947" rx="1" ry="0.888037" transform="rotate(-40.5787 90.2524 44.7947)" fill="white"/>
<ellipse cx="39.2524" cy="44.7947" rx="1" ry="0.888037" transform="rotate(-40.5787 39.2524 44.7947)" fill="white"/>
<path opacity="0.366162" fill-rule="evenodd" clip-rule="evenodd" d="M93.3872 40.077C93.9384 41.0569 94.1926 42.2109 94.0238 43.35C93.6501 45.8721 91.3593 47.381 88.9104 46.7228C86.4616 46.0645 84.7836 43.4888 85.1573 40.9667C85.3102 39.9345 85.7825 39.0696 86.4566 38.4555C85.2353 39.1712 84.3455 40.4401 84.1069 42.0504C83.6577 45.0816 85.6793 48.1788 88.6223 48.9699C91.5654 49.761 94.3148 47.9462 94.764 44.915C95.0217 43.1759 94.4635 41.4119 93.3872 40.077Z" fill="url(#paint14_radial)"/>
<path opacity="0.366162" fill-rule="evenodd" clip-rule="evenodd" d="M70.7847 64.2958C70.9544 64.7632 71.0163 65.3304 70.9308 65.908C70.7412 67.1868 69.9054 68.0395 69.065 67.8136C68.2246 67.5877 67.6983 66.3689 67.8878 65.09C67.9654 64.5666 68.1506 64.1135 68.4005 63.7774C67.957 64.1876 67.6164 64.8607 67.4954 65.6772C67.2677 67.2142 67.9018 68.6797 68.9119 68.9512C69.9219 69.2227 70.9251 68.1974 71.1529 66.6604C71.2835 65.7785 71.1297 64.9188 70.7847 64.2958Z" fill="url(#paint15_radial)"/>
<path opacity="0.366162" fill-rule="evenodd" clip-rule="evenodd" d="M59.7769 64.289C59.9478 64.7487 60.0112 65.3058 59.9272 65.8724C59.7413 67.127 58.9084 67.96 58.068 67.7341C57.2276 67.5082 56.6984 66.3091 56.8843 65.0545C56.9604 64.541 57.1443 64.0971 57.3931 63.7684C56.951 64.1688 56.6125 64.828 56.4938 65.629C56.2703 67.1369 56.908 68.5786 57.918 68.8501C58.928 69.1216 59.9278 68.12 60.1512 66.6122C60.2794 65.7471 60.1233 64.9023 59.7769 64.289Z" fill="url(#paint16_radial)"/>
<path opacity="0.366162" fill-rule="evenodd" clip-rule="evenodd" d="M42.0934 40.3234C42.6446 41.3033 42.8988 42.4574 42.73 43.5965C42.3563 46.1186 40.0655 47.6275 37.6167 46.9692C35.1679 46.311 33.4898 43.7353 33.8635 41.2131C34.0165 40.1809 34.4888 39.3161 35.1628 38.702C33.9415 39.4177 33.0517 40.6865 32.8131 42.2968C32.364 45.328 34.3855 48.4253 37.3286 49.2164C40.2716 50.0075 43.0211 48.1927 43.4702 45.1615C43.7279 43.4224 43.1698 41.6584 42.0934 40.3234Z" fill="url(#paint17_radial)"/>
<ellipse cx="58.0729" cy="65.1503" rx="1.10529" ry="1.87328" transform="rotate(14.7818 58.0729 65.1503)" fill="white"/>
<ellipse cx="69.1639" cy="64.9923" rx="1.10061" ry="1.87328" transform="rotate(14.7818 69.1639 64.9923)" fill="white"/>
<g filter="url(#filter1_f)">
<ellipse cx="94.5" cy="64.5" rx="8.5" ry="5.5" fill="#9BDB4D"/>
</g>
<g filter="url(#filter2_f)">
<ellipse cx="33.5" cy="64.5" rx="8.5" ry="5.5" fill="#9BDB4D"/>
</g>
<g opacity="0.4" filter="url(#filter3_f)">
<path d="M116.067 76C112.494 76 103.791 82.1931 105.141 88.5C107.067 97.5 114.494 88.5 116.067 76Z" fill="url(#paint18_radial)"/>
</g>
<g opacity="0.4" filter="url(#filter4_f)">
<path d="M11 76C14.5735 76 23.2765 82.1931 21.9265 88.5C20 97.5 12.5735 88.5 11 76Z" fill="url(#paint19_radial)"/>
</g>
<defs>
<filter id="filter0_i" x="9.50006" y="11.4985" width="108" height="100.001" filterUnits="userSpaceOnUse" color-interpolation-filters="sRGB">
<feFlood flood-opacity="0" result="BackgroundImageFix"/>
<feBlend mode="normal" in="SourceGraphic" in2="BackgroundImageFix" result="shape"/>
<feColorMatrix in="SourceAlpha" type="matrix" values="0 0 0 0 0 0 0 0 0 0 0 0 0 0 0 0 0 0 127 0" result="hardAlpha"/>
<feOffset dy="-6"/>
<feGaussianBlur stdDeviation="10"/>
<feComposite in2="hardAlpha" operator="arithmetic" k2="-1" k3="1"/>
<feColorMatrix type="matrix" values="0 0 0 0 0 0 0 0 0 0.45098 0 0 0 0 0.403922 0 0 0 0.15 0"/>
<feBlend mode="normal" in2="shape" result="effect1_innerShadow"/>
</filter>
<filter id="filter1_f" x="80" y="53" width="29" height="23" filterUnits="userSpaceOnUse" color-interpolation-filters="sRGB">
<feFlood flood-opacity="0" result="BackgroundImageFix"/>
<feBlend mode="normal" in="SourceGraphic" in2="BackgroundImageFix" result="shape"/>
<feGaussianBlur stdDeviation="3" result="effect1_foregroundBlur"/>
</filter>
<filter id="filter2_f" x="19" y="53" width="29" height="23" filterUnits="userSpaceOnUse" color-interpolation-filters="sRGB">
<feFlood flood-opacity="0" result="BackgroundImageFix"/>
<feBlend mode="normal" in="SourceGraphic" in2="BackgroundImageFix" result="shape"/>
<feGaussianBlur stdDeviation="3" result="effect1_foregroundBlur"/>
</filter>
<filter id="filter3_f" x="103" y="74" width="15.0674" height="20.1449" filterUnits="userSpaceOnUse" color-interpolation-filters="sRGB">
<feFlood flood-opacity="0" result="BackgroundImageFix"/>
<feBlend mode="normal" in="SourceGraphic" in2="BackgroundImageFix" result="shape"/>
<feGaussianBlur stdDeviation="1" result="effect1_foregroundBlur"/>
</filter>
<filter id="filter4_f" x="9" y="74" width="15.0674" height="20.1449" filterUnits="userSpaceOnUse" color-interpolation-filters="sRGB">
<feFlood flood-opacity="0" result="BackgroundImageFix"/>
<feBlend mode="normal" in="SourceGraphic" in2="BackgroundImageFix" result="shape"/>
<feGaussianBlur stdDeviation="1" result="effect1_foregroundBlur"/>
</filter>
<radialGradient id="paint0_radial" cx="0" cy="0" r="1" gradientUnits="userSpaceOnUse" gradientTransform="translate(64 104.5) scale(41 11.5)">
<stop/>
<stop offset="1" stop-opacity="0"/>
</radialGradient>
<radialGradient id="paint1_radial" cx="0" cy="0" r="1" gradientUnits="userSpaceOnUse" gradientTransform="translate(64 105.5) scale(33.4928 8.67225)">
<stop/>
<stop offset="1" stop-opacity="0"/>
</radialGradient>
<linearGradient id="paint2_linear" x1="64" y1="12.5" x2="64" y2="132.5" gradientUnits="userSpaceOnUse">
<stop stop-color="#9BDB4D"/>
<stop offset="1" stop-color="#28BCA3"/>
</linearGradient>
<linearGradient id="paint3_linear" x1="63.5" y1="18" x2="63.5" y2="111" gradientUnits="userSpaceOnUse">
<stop stop-color="#206B00" stop-opacity="0.8"/>
<stop offset="1" stop-color="#007367" stop-opacity="0.8"/>
</linearGradient>
<linearGradient id="paint4_linear" x1="63.5" y1="18" x2="63.5" y2="111" gradientUnits="userSpaceOnUse">
<stop stop-color="#FAFAFA"/>
<stop offset="1" stop-color="#D4D4D4"/>
</linearGradient>
<linearGradient id="paint5_linear" x1="90" y1="30" x2="90" y2="68" gradientUnits="userSpaceOnUse">
<stop stop-color="#FAFAFA"/>
<stop offset="1" stop-color="#D4D4D4"/>
</linearGradient>
<linearGradient id="paint6_linear" x1="89.5" y1="37" x2="89.5" y2="50" gradientUnits="userSpaceOnUse">
<stop stop-color="#333333"/>
<stop offset="1" stop-color="#1A1A1A"/>
</linearGradient>
<linearGradient id="paint7_linear" x1="38" y1="30" x2="38" y2="68" gradientUnits="userSpaceOnUse">
<stop stop-color="#FAFAFA"/>
<stop offset="1" stop-color="#D4D4D4"/>
</linearGradient>
<linearGradient id="paint8_linear" x1="38.5" y1="37" x2="38.5" y2="50" gradientUnits="userSpaceOnUse">
<stop stop-color="#333333"/>
<stop offset="1" stop-color="#1A1A1A"/>
</linearGradient>
<linearGradient id="paint9_linear" x1="63.5" y1="73" x2="63.5" y2="103" gradientUnits="userSpaceOnUse">
<stop stop-color="#666666"/>
<stop offset="1" stop-color="#4D4D4D"/>
</linearGradient>
<linearGradient id="paint10_linear" x1="63.75" y1="92.887" x2="63.75" y2="102.186" gradientUnits="userSpaceOnUse">
<stop stop-color="#FF8C82"/>
<stop offset="1" stop-color="#ED5353"/>
</linearGradient>
<linearGradient id="paint11_linear" x1="63.4095" y1="73.9511" x2="63.5" y2="95.5" gradientUnits="userSpaceOnUse">
<stop stop-color="#FAFAFA"/>
<stop offset="1" stop-color="#D4D4D4"/>
</linearGradient>
<linearGradient id="paint12_linear" x1="58.5" y1="62" x2="58.5" y2="70" gradientUnits="userSpaceOnUse">
<stop stop-color="#4D4D4D"/>
<stop offset="1" stop-color="#333333"/>
</linearGradient>
<linearGradient id="paint13_linear" x1="69.5" y1="62" x2="69.5" y2="70" gradientUnits="userSpaceOnUse">
<stop stop-color="#4D4D4D"/>
<stop offset="1" stop-color="#333333"/>
</linearGradient>
<radialGradient id="paint14_radial" cx="0" cy="0" r="1" gradientUnits="userSpaceOnUse" gradientTransform="translate(91.7093 44.3803) rotate(29.3259) scale(14.6458 13.8678)">
<stop stop-color="#0C1143"/>
<stop offset="0.25" stop-color="#89FFDD" stop-opacity="0.74902"/>
<stop offset="0.5" stop-opacity="0.498039"/>
<stop offset="1" stop-color="#51FFBE" stop-opacity="0"/>
</radialGradient>
<radialGradient id="paint15_radial" cx="0" cy="0" r="1" gradientUnits="userSpaceOnUse" gradientTransform="translate(70.0978 66.522) rotate(35.3924) scale(5.26839 6.70875)">
<stop stop-color="#0C1143"/>
<stop offset="0.25" stop-color="#89FFDD" stop-opacity="0.74902"/>
<stop offset="0.5" stop-opacity="0.498039"/>
<stop offset="1" stop-color="#51FFBE" stop-opacity="0"/>
</radialGradient>
<radialGradient id="paint16_radial" cx="0" cy="0" r="1" gradientUnits="userSpaceOnUse" gradientTransform="translate(59.0966 66.4711) rotate(35.0519) scale(5.2526 6.60112)">
<stop stop-color="#0C1143"/>
<stop offset="0.25" stop-color="#89FFDD" stop-opacity="0.74902"/>
<stop offset="0.5" stop-opacity="0.498039"/>
<stop offset="1" stop-color="#51FFBE" stop-opacity="0"/>
</radialGradient>
<radialGradient id="paint17_radial" cx="0" cy="0" r="1" gradientUnits="userSpaceOnUse" gradientTransform="translate(40.4155 44.6268) rotate(29.3259) scale(14.6458 13.8678)">
<stop stop-color="#0C1143"/>
<stop offset="0.25" stop-color="#89FFDD" stop-opacity="0.74902"/>
<stop offset="0.5" stop-opacity="0.498039"/>
<stop offset="1" stop-color="#51FFBE" stop-opacity="0"/>
</radialGradient>
<radialGradient id="paint18_radial" cx="0" cy="0" r="1" gradientUnits="userSpaceOnUse" gradientTransform="translate(110.141 68.5) rotate(88.9949) scale(28.5044 19.1853)">
<stop stop-color="white"/>
<stop offset="0.566246" stop-color="#D1FF82"/>
<stop offset="0.928025" stop-color="#9BDB4D"/>
</radialGradient>
<radialGradient id="paint19_radial" cx="0" cy="0" r="1" gradientUnits="userSpaceOnUse" gradientTransform="translate(16.9265 68.5) rotate(91.0051) scale(28.5044 19.1853)">
<stop stop-color="white"/>
<stop offset="0.566246" stop-color="#D1FF82"/>
<stop offset="0.928025" stop-color="#9BDB4D"/>
</radialGradient>
</defs>
</svg>
