<svg width="64" height="64" viewBox="0 0 64 64" fill="none" xmlns="http://www.w3.org/2000/svg">
<path opacity="0.5" d="M32 58C43.3218 58 52.5 55.4256 52.5 52.25C52.5 49.0744 43.3218 46.5 32 46.5C20.6782 46.5 11.5 49.0744 11.5 52.25C11.5 55.4256 20.6782 58 32 58Z" fill="url(#paint0_radial)"/>
<path opacity="0.6" d="M32 57.0861C41.2487 57.0861 48.7464 55.1448 48.7464 52.75C48.7464 50.3552 41.2487 48.4139 32 48.4139C22.7512 48.4139 15.2535 50.3552 15.2535 52.75C15.2535 55.1448 22.7512 57.0861 32 57.0861Z" fill="url(#paint1_radial)"/>
<g filter="url(#filter0_i)">
<path d="M50.5257 10.7392C39.6671 5.67835 33.4974 14.2598 34.2378 18.8805H29.3021C28.8085 11.1793 20.3928 5.97809 12.5206 10.9592C6.42291 14.8176 7.58927 19.6544 9.39686 23.13C10.1123 24.5056 9.84618 26.2118 8.85216 27.4018C5.11892 31.8709 1.89419 40.5858 10.2995 47.7053C20.171 56.0667 40.6543 58.7072 52.7468 47.7053C61.0957 40.1095 57.8524 31.8035 54.2163 27.1718C53.3023 26.0076 53.1681 24.383 53.8234 23.0559C57.0395 16.5434 53.0472 12.0616 50.5257 10.7392Z" fill="url(#paint2_linear)"/>
</g>
<path d="M50.5257 10.7392C39.6671 5.67835 33.4974 14.2598 34.2378 18.8805H29.3021C28.8085 11.1793 20.3928 5.97809 12.5206 10.9592C6.42291 14.8176 7.58927 19.6544 9.39686 23.13C10.1123 24.5056 9.84618 26.2118 8.85216 27.4018C5.11892 31.8709 1.89419 40.5858 10.2995 47.7053C20.171 56.0667 40.6543 58.7072 52.7468 47.7053C61.0957 40.1095 57.8524 31.8035 54.2163 27.1718C53.3023 26.0076 53.1681 24.383 53.8234 23.0559C57.0395 16.5434 53.0472 12.0616 50.5257 10.7392Z" stroke="url(#paint3_linear)" stroke-opacity="0.8"/>
<path opacity="0.3" d="M34.2378 19.3805H34.8243L34.7315 18.8014C34.3969 16.7132 35.6391 13.5847 38.3308 11.5803C40.9745 9.61168 45.0295 8.73303 50.3037 11.1874C51.4721 11.8034 53.0085 13.1709 53.8675 15.1503C54.7191 17.1127 54.9193 19.7076 53.3751 22.8345C52.6387 24.3257 52.7845 26.1577 53.823 27.4805C55.6032 29.7481 57.2635 32.8877 57.4769 36.3577C57.6886 39.8004 56.4811 43.6319 52.4103 47.3355C46.4855 52.7259 38.4824 54.7931 30.7112 54.467C22.9349 54.1407 15.4588 51.4201 10.6227 47.3238C6.53641 43.8626 5.31073 40.055 5.52294 36.5902C5.73691 33.0969 7.41764 29.899 9.23589 27.7223C10.3453 26.3942 10.6586 24.4724 9.84045 22.8993C8.95403 21.1949 8.26318 19.2245 8.49097 17.2453C8.7151 15.2978 9.84069 13.2466 12.788 11.3817C20.3295 6.60979 28.3331 11.5786 28.8031 18.9125L28.8331 19.3805H29.3021H34.2378Z" stroke="url(#paint4_linear)"/>
<circle cx="44.5" cy="21.5" r="6.5" fill="url(#paint5_linear)" stroke="#7E8087"/>
<circle cx="44.5" cy="21.5" r="3.5" fill="url(#paint6_linear)" stroke="black" stroke-opacity="0.7"/>
<circle cx="18.5" cy="21.5" r="6.5" fill="url(#paint7_linear)" stroke="#7E8087"/>
<circle cx="18.5" cy="21.5" r="3.5" fill="url(#paint8_linear)" stroke="black" stroke-opacity="0.7"/>
<path d="M14.7274 36.0353C31.8894 38.8135 42.3533 37 48.4029 36.0353C48.9018 35.902 50.3985 36.0353 49.8996 38.4395C49.4007 40.8438 43.9128 51.2621 31.4404 50.995C18.968 50.7278 14.2285 41.1109 13.2307 38.4395C12.4325 36.3024 13.8959 35.9463 14.7274 36.0353Z" fill="url(#paint9_linear)" stroke="#3F3F3F"/>
<path d="M23 48.0182C25.791 49.4521 33.0985 51.5134 40 48.2871C37.4627 45.8673 30.5104 42.4259 23 48.0182Z" fill="url(#paint10_linear)" stroke="#ED5353"/>
<path d="M48.8208 37.899C35.1909 43.5152 19.9452 40.2391 14.0262 37.899C13.8342 37.0214 14.746 36.9483 15.226 37.0214C34.423 39.8734 46.9011 37.0214 48.1009 37.0214C49.0607 37.0214 49.164 37.7575 48.8208 37.899Z" fill="url(#paint11_linear)" stroke="#ABACAE" stroke-opacity="0.4"/>
<ellipse cx="28.5" cy="34" rx="1.5" ry="2" fill="black" fill-opacity="0.15"/>
<ellipse cx="28.5" cy="34" rx="1.5" ry="2" stroke="black" stroke-opacity="0.15"/>
<ellipse cx="28.5" cy="34" rx="1.5" ry="2" stroke="black" stroke-opacity="0.07"/>
<ellipse cx="34.5" cy="34" rx="1.5" ry="2" fill="black" fill-opacity="0.15"/>
<ellipse cx="34.5" cy="34" rx="1.5" ry="2" stroke="black" stroke-opacity="0.15"/>
<ellipse cx="34.5" cy="34" rx="1.5" ry="2" stroke="black" stroke-opacity="0.07"/>
<ellipse cx="28.5" cy="33" rx="1.5" ry="2" fill="url(#paint12_linear)" stroke="black" stroke-opacity="0.7"/>
<ellipse cx="34.5" cy="33" rx="1.5" ry="2" fill="url(#paint13_linear)" stroke="black" stroke-opacity="0.7"/>
<ellipse cx="43.5875" cy="20.9587" rx="0.989247" ry="1.23656" transform="rotate(31.6153 43.5875 20.9587)" fill="white"/>
<ellipse cx="17.3616" cy="20.9587" rx="0.989247" ry="1.23656" transform="rotate(31.6153 17.3616 20.9587)" fill="white"/>
<ellipse cx="44.6948" cy="22.2533" rx="0.494624" ry="0.439244" transform="rotate(-40.5787 44.6948 22.2533)" fill="white"/>
<ellipse cx="18.469" cy="22.2533" rx="0.494624" ry="0.439244" transform="rotate(-40.5787 18.469 22.2533)" fill="white"/>
<path opacity="0.366162" fill-rule="evenodd" clip-rule="evenodd" d="M46.4585 19.9753C46.7397 20.4668 46.8703 21.0447 46.7859 21.6143C46.599 22.8753 45.437 23.6253 44.1921 23.2907C42.9472 22.956 42.0915 21.6637 42.2784 20.4027C42.3549 19.8865 42.5938 19.4549 42.9355 19.1491C42.3159 19.5045 41.8653 20.1374 41.746 20.9426C41.5215 22.4582 42.5522 24.0122 44.0484 24.4143C45.5445 24.8165 46.9392 23.9145 47.1638 22.3989C47.2926 21.5293 47.007 20.6455 46.4585 19.9753Z" fill="url(#paint14_radial)"/>
<path opacity="0.366162" fill-rule="evenodd" clip-rule="evenodd" d="M35.3924 32.1479C35.4773 32.3816 35.5082 32.6652 35.4654 32.954C35.3707 33.5934 34.9528 34.0197 34.5325 33.9068C34.1123 33.7938 33.8492 33.1844 33.9439 32.545C33.9827 32.2833 34.0754 32.0567 34.2003 31.8887C33.9785 32.0938 33.8083 32.4303 33.7478 32.8386C33.6339 33.6071 33.9509 34.3398 34.456 34.4756C34.961 34.6113 35.4626 34.0987 35.5765 33.3302C35.6418 32.8892 35.5649 32.4594 35.3924 32.1479Z" fill="url(#paint15_radial)"/>
<path opacity="0.366162" fill-rule="evenodd" clip-rule="evenodd" d="M29.3213 31.9921C29.4089 32.2225 29.4419 32.5014 29.4 32.7847C29.307 33.412 28.884 33.8268 28.4558 33.7116C28.0276 33.5965 27.7565 32.9952 27.8495 32.3679C27.8875 32.1112 27.9805 31.8895 28.1068 31.7257C27.8822 31.925 27.7107 32.2539 27.6514 32.6545C27.5397 33.4084 27.8663 34.1313 28.381 34.2697C28.8956 34.408 29.4033 33.9093 29.515 33.1554C29.5791 32.7229 29.4985 32.2998 29.3213 31.9921Z" fill="url(#paint16_radial)"/>
<path opacity="0.366162" fill-rule="evenodd" clip-rule="evenodd" d="M20.0467 20.1617C20.3223 20.6517 20.4494 21.2287 20.365 21.7982C20.1782 23.0593 19.0328 23.8137 17.8083 23.4846C16.5839 23.1555 15.7449 21.8676 15.9318 20.6066C16.0082 20.0905 16.2444 19.658 16.5814 19.351C15.9708 19.7088 15.5259 20.3433 15.4066 21.1484C15.182 22.664 16.1928 24.2126 17.6643 24.6082C19.1358 25.0037 20.5105 24.0963 20.7351 22.5807C20.864 21.7112 20.5849 20.8292 20.0467 20.1617Z" fill="url(#paint17_radial)"/>
<ellipse cx="28.3085" cy="32.4624" rx="0.563976" ry="0.899242" transform="rotate(14.7818 28.3085 32.4624)" fill="white"/>
<ellipse cx="34.334" cy="32.5409" rx="0.560315" ry="0.933066" transform="rotate(14.7818 34.334 32.5409)" fill="white"/>
<g filter="url(#filter1_f)">
<ellipse cx="47" cy="32" rx="4" ry="3" fill="#9BDB4D"/>
</g>
<g filter="url(#filter2_f)">
<ellipse cx="16.5" cy="32" rx="4.5" ry="3" fill="#9BDB4D"/>
</g>
<g opacity="0.4" filter="url(#filter3_f)">
<path d="M57 38C55.3856 38 51.4538 41.0687 52.0637 44.1939C52.934 48.6535 56.2891 44.1939 57 38Z" fill="url(#paint18_radial)"/>
</g>
<g opacity="0.4" filter="url(#filter4_f)">
<path d="M5.00001 38C6.93732 38 11.6555 41.0687 10.9236 44.1939C9.87918 48.6535 5.85306 44.1939 5.00001 38Z" fill="url(#paint19_radial)"/>
</g>
<defs>
<filter id="filter0_i" x="4.5" y="2.49863" width="54" height="53.0014" filterUnits="userSpaceOnUse" color-interpolation-filters="sRGB">
<feFlood flood-opacity="0" result="BackgroundImageFix"/>
<feBlend mode="normal" in="SourceGraphic" in2="BackgroundImageFix" result="shape"/>
<feColorMatrix in="SourceAlpha" type="matrix" values="0 0 0 0 0 0 0 0 0 0 0 0 0 0 0 0 0 0 127 0" result="hardAlpha"/>
<feOffset dy="-6"/>
<feGaussianBlur stdDeviation="10"/>
<feComposite in2="hardAlpha" operator="arithmetic" k2="-1" k3="1"/>
<feColorMatrix type="matrix" values="0 0 0 0 0 0 0 0 0 0.45098 0 0 0 0 0.403922 0 0 0 0.15 0"/>
<feBlend mode="normal" in2="shape" result="effect1_innerShadow"/>
</filter>
<filter id="filter1_f" x="37" y="23" width="20" height="18" filterUnits="userSpaceOnUse" color-interpolation-filters="sRGB">
<feFlood flood-opacity="0" result="BackgroundImageFix"/>
<feBlend mode="normal" in="SourceGraphic" in2="BackgroundImageFix" result="shape"/>
<feGaussianBlur stdDeviation="3" result="effect1_foregroundBlur"/>
</filter>
<filter id="filter2_f" x="6" y="23" width="21" height="18" filterUnits="userSpaceOnUse" color-interpolation-filters="sRGB">
<feFlood flood-opacity="0" result="BackgroundImageFix"/>
<feBlend mode="normal" in="SourceGraphic" in2="BackgroundImageFix" result="shape"/>
<feGaussianBlur stdDeviation="3" result="effect1_foregroundBlur"/>
</filter>
<filter id="filter3_f" x="50" y="36" width="8.99999" height="12" filterUnits="userSpaceOnUse" color-interpolation-filters="sRGB">
<feFlood flood-opacity="0" result="BackgroundImageFix"/>
<feBlend mode="normal" in="SourceGraphic" in2="BackgroundImageFix" result="shape"/>
<feGaussianBlur stdDeviation="1" result="effect1_foregroundBlur"/>
</filter>
<filter id="filter4_f" x="3" y="36" width="9.99999" height="12" filterUnits="userSpaceOnUse" color-interpolation-filters="sRGB">
<feFlood flood-opacity="0" result="BackgroundImageFix"/>
<feBlend mode="normal" in="SourceGraphic" in2="BackgroundImageFix" result="shape"/>
<feGaussianBlur stdDeviation="1" result="effect1_foregroundBlur"/>
</filter>
<radialGradient id="paint0_radial" cx="0" cy="0" r="1" gradientUnits="userSpaceOnUse" gradientTransform="translate(32 52.25) scale(20.5 5.75)">
<stop/>
<stop offset="1" stop-opacity="0"/>
</radialGradient>
<radialGradient id="paint1_radial" cx="0" cy="0" r="1" gradientUnits="userSpaceOnUse" gradientTransform="translate(32 52.75) scale(16.7464 4.33612)">
<stop/>
<stop offset="1" stop-opacity="0"/>
</radialGradient>
<linearGradient id="paint2_linear" x1="31.7477" y1="6.27957" x2="31.7477" y2="65.6344" gradientUnits="userSpaceOnUse">
<stop stop-color="#9BDB4D"/>
<stop offset="1" stop-color="#28BCA3"/>
</linearGradient>
<linearGradient id="paint3_linear" x1="31.5" y1="9" x2="31.5" y2="55" gradientUnits="userSpaceOnUse">
<stop stop-color="#206B00" stop-opacity="0.8"/>
<stop offset="1" stop-color="#007367" stop-opacity="0.8"/>
</linearGradient>
<linearGradient id="paint4_linear" x1="31.5" y1="9" x2="31.5" y2="55" gradientUnits="userSpaceOnUse">
<stop stop-color="#FAFAFA"/>
<stop offset="1" stop-color="#D4D4D4"/>
</linearGradient>
<linearGradient id="paint5_linear" x1="44.5" y1="15" x2="44.5" y2="34" gradientUnits="userSpaceOnUse">
<stop stop-color="#FAFAFA"/>
<stop offset="1" stop-color="#D4D4D4"/>
</linearGradient>
<linearGradient id="paint6_linear" x1="44.5" y1="18" x2="44.5" y2="25" gradientUnits="userSpaceOnUse">
<stop stop-color="#333333"/>
<stop offset="1" stop-color="#1A1A1A"/>
</linearGradient>
<linearGradient id="paint7_linear" x1="18.5" y1="15" x2="18.5" y2="34" gradientUnits="userSpaceOnUse">
<stop stop-color="#FAFAFA"/>
<stop offset="1" stop-color="#D4D4D4"/>
</linearGradient>
<linearGradient id="paint8_linear" x1="18.5" y1="18" x2="18.5" y2="25" gradientUnits="userSpaceOnUse">
<stop stop-color="#333333"/>
<stop offset="1" stop-color="#1A1A1A"/>
</linearGradient>
<linearGradient id="paint9_linear" x1="31.5" y1="36" x2="31.5" y2="51" gradientUnits="userSpaceOnUse">
<stop stop-color="#666666"/>
<stop offset="1" stop-color="#4D4D4D"/>
</linearGradient>
<linearGradient id="paint10_linear" x1="31.5" y1="45" x2="31.5" y2="50" gradientUnits="userSpaceOnUse">
<stop stop-color="#FF8C82"/>
<stop offset="1" stop-color="#ED5353"/>
</linearGradient>
<linearGradient id="paint11_linear" x1="31.5" y1="37" x2="31.5363" y2="46.455" gradientUnits="userSpaceOnUse">
<stop stop-color="#FAFAFA"/>
<stop offset="1" stop-color="#D4D4D4"/>
</linearGradient>
<linearGradient id="paint12_linear" x1="28.5" y1="31" x2="28.5" y2="35" gradientUnits="userSpaceOnUse">
<stop stop-color="#4D4D4D"/>
<stop offset="1" stop-color="#333333"/>
</linearGradient>
<linearGradient id="paint13_linear" x1="34.5" y1="31" x2="34.5" y2="35" gradientUnits="userSpaceOnUse">
<stop stop-color="#4D4D4D"/>
<stop offset="1" stop-color="#333333"/>
</linearGradient>
<radialGradient id="paint14_radial" cx="0" cy="0" r="1" gradientUnits="userSpaceOnUse" gradientTransform="translate(45.6112 22.1247) rotate(29.1067) scale(7.43465 6.94396)">
<stop stop-color="#0C1143"/>
<stop offset="0.25" stop-color="#89FFDD" stop-opacity="0.74902"/>
<stop offset="0.5" stop-opacity="0.498039"/>
<stop offset="1" stop-color="#51FFBE" stop-opacity="0"/>
</radialGradient>
<radialGradient id="paint15_radial" cx="0" cy="0" r="1" gradientUnits="userSpaceOnUse" gradientTransform="translate(35.049 33.261) rotate(35.3924) scale(2.63419 3.35438)">
<stop stop-color="#0C1143"/>
<stop offset="0.25" stop-color="#89FFDD" stop-opacity="0.74902"/>
<stop offset="0.5" stop-opacity="0.498039"/>
<stop offset="1" stop-color="#51FFBE" stop-opacity="0"/>
</radialGradient>
<radialGradient id="paint16_radial" cx="0" cy="0" r="1" gradientUnits="userSpaceOnUse" gradientTransform="translate(28.9778 33.0822) rotate(34.7205) scale(2.66875 3.31007)">
<stop stop-color="#0C1143"/>
<stop offset="0.25" stop-color="#89FFDD" stop-opacity="0.74902"/>
<stop offset="0.5" stop-opacity="0.498039"/>
<stop offset="1" stop-color="#51FFBE" stop-opacity="0"/>
</radialGradient>
<radialGradient id="paint17_radial" cx="0" cy="0" r="1" gradientUnits="userSpaceOnUse" gradientTransform="translate(19.2078 22.3134) rotate(29.3259) scale(7.32288 6.93388)">
<stop stop-color="#0C1143"/>
<stop offset="0.25" stop-color="#89FFDD" stop-opacity="0.74902"/>
<stop offset="0.5" stop-opacity="0.498039"/>
<stop offset="1" stop-color="#51FFBE" stop-opacity="0"/>
</radialGradient>
<radialGradient id="paint18_radial" cx="0" cy="0" r="1" gradientUnits="userSpaceOnUse" gradientTransform="translate(54.3225 34.2836) rotate(89.0836) scale(14.1239 8.66768)">
<stop stop-color="white"/>
<stop offset="0.566246" stop-color="#D1FF82"/>
<stop offset="0.928025" stop-color="#9BDB4D"/>
</radialGradient>
<radialGradient id="paint19_radial" cx="0" cy="0" r="1" gradientUnits="userSpaceOnUse" gradientTransform="translate(8.21295 34.2836) rotate(91.0996) scale(14.1247 10.4006)">
<stop stop-color="white"/>
<stop offset="0.566246" stop-color="#D1FF82"/>
<stop offset="0.928025" stop-color="#9BDB4D"/>
</radialGradient>
</defs>
</svg>
