<svg width="64" height="64" viewBox="0 0 64 64" fill="none" xmlns="http://www.w3.org/2000/svg">
<g filter="url(#filter0_d)">
<rect x="12.5" y="7" width="39" height="50.5" rx="3.5" fill="#F1F1ED"/>
</g>
<rect x="16" y="21" width="32" height="4" fill="#DCDCDC"/>
<rect x="16" y="29" width="32" height="4" fill="#DCDCDC"/>
<rect x="16" y="37" width="32" height="4" fill="#DCDCDC"/>
<rect x="16" y="45" width="32" height="4" fill="#DCDCDC"/>
<rect x="16" y="53" width="32" height="4" fill="#DCDCDC"/>
<rect x="16" y="13" width="32" height="4" fill="#DCDCDC"/>
<mask id="mask0" mask-type="alpha" maskUnits="userSpaceOnUse" x="22" y="22" width="21" height="21">
<circle cx="32.25" cy="32.25" r="10.25" fill="white"/>
<circle cx="32.25" cy="32.25" r="10.25" stroke="black"/>
</mask>
<g mask="url(#mask0)">
<path d="M16.3153 12.9943H17.6982V17H18.0966V12.9943H19.4794V12.6364H16.3153V12.9943ZM21.1461 17.0682C21.8024 17.0682 22.2434 16.7124 22.3926 16.3011L22.0325 16.1839C21.9068 16.478 21.6106 16.7209 21.1461 16.7209C20.4771 16.7209 20.0531 16.233 20.036 15.4766H22.4735V15.2891C22.4735 14.196 21.7981 13.6825 21.0886 13.6825C20.2406 13.6825 19.6547 14.392 19.6547 15.3828C19.6547 16.3757 20.2299 17.0682 21.1461 17.0682ZM20.0382 15.142C20.0787 14.5327 20.4899 14.0277 21.0886 14.0277C21.6745 14.0277 22.0858 14.5114 22.0858 15.142H20.0382ZM23.4558 13.7273H23.0169L24.0566 15.3636L23.0169 17H23.4558L24.2995 15.6491L25.1433 17H25.5843L24.5318 15.3636L25.5843 13.7273H25.1433L24.2995 15.1229L23.4558 13.7273ZM27.6687 13.7273H26.9762V12.9432H26.5948V13.7273H26.1069V14.0575H26.5948V16.2351C26.5948 16.7699 27.0167 17.049 27.4364 17.049C27.5941 17.049 27.7006 17.0192 27.7731 16.9915L27.6921 16.6484C27.6388 16.6634 27.5707 16.6783 27.4705 16.6783C27.2127 16.6783 26.9762 16.5568 26.9762 16.1456V14.0575H27.6687V13.7273ZM17.8239 25.0682C18.4801 25.0682 18.9212 24.7124 19.0703 24.3011L18.7102 24.1839C18.5845 24.478 18.2884 24.7209 17.8239 24.7209C17.1548 24.7209 16.7308 24.233 16.7138 23.4766H19.1513V23.2891C19.1513 22.196 18.4759 21.6825 17.7663 21.6825C16.9183 21.6825 16.3324 22.392 16.3324 23.3828C16.3324 24.3757 16.9077 25.0682 17.8239 25.0682ZM16.7159 23.142C16.7564 22.5327 17.1676 22.0277 17.7663 22.0277C18.3523 22.0277 18.7635 22.5114 18.7635 23.142H16.7159ZM20.1335 21.7273H19.6946L20.7344 23.3636L19.6946 25H20.1335L20.9773 23.6491L21.821 25H22.2621L21.2095 23.3636L22.2621 21.7273H21.821L20.9773 23.1229L20.1335 21.7273ZM24.3464 21.7273H23.6539V20.9432H23.2725V21.7273H22.7846V22.0575H23.2725V24.2351C23.2725 24.7699 23.6944 25.049 24.1142 25.049C24.2718 25.049 24.3784 25.0192 24.4508 24.9915L24.3699 24.6484C24.3166 24.6634 24.2484 24.6783 24.1483 24.6783C23.8904 24.6783 23.6539 24.5568 23.6539 24.1456V22.0575H24.3464V21.7273ZM25.2077 25H25.587V22.8864C25.587 22.4006 25.9599 22.049 26.4712 22.049C26.5714 22.049 26.6651 22.0661 26.6992 22.0703V21.6847C26.6481 21.6825 26.5607 21.6783 26.4989 21.6783C26.0877 21.6783 25.7362 21.8999 25.604 22.2301H25.5763V21.7273H25.2077V25ZM28.2605 25.0746C28.8059 25.0746 29.1383 24.772 29.2747 24.4822H29.2981V25H29.6774V22.7777C29.6774 21.8999 29.0169 21.6825 28.5162 21.6825C28.0154 21.6825 27.4998 21.8807 27.2782 22.4155L27.6383 22.5455C27.7576 22.2642 28.0538 22.0234 28.5268 22.0234C29.0233 22.0234 29.2981 22.2962 29.2981 22.7436V22.8203C29.2981 23.0675 28.9913 23.0717 28.4416 23.1399C27.7022 23.2315 27.1845 23.4382 27.1845 24.0859C27.1845 24.7166 27.666 25.0746 28.2605 25.0746ZM28.3116 24.7273C27.8833 24.7273 27.5637 24.4993 27.5637 24.103C27.5637 23.7067 27.8876 23.5405 28.4416 23.4723C28.71 23.4403 29.1873 23.3807 29.2981 23.272V23.745C29.2981 24.282 28.9167 24.7273 28.3116 24.7273ZM31.9647 25.0682C32.6465 25.0682 33.1259 24.6378 33.2132 24.0455H32.8297C32.7424 24.4631 32.3993 24.7209 31.9647 24.7209C31.3233 24.7209 30.8993 24.1626 30.8993 23.3658C30.8993 22.5732 31.3361 22.0277 31.9647 22.0277C32.4313 22.0277 32.7466 22.3281 32.8276 22.6989H33.2111C33.1216 22.0916 32.6145 21.6825 31.9583 21.6825C31.1017 21.6825 30.5179 22.3942 30.5179 23.3786C30.5179 24.3544 31.0847 25.0682 31.9647 25.0682ZM35.3152 21.7273H34.6227V20.9432H34.2413V21.7273H33.7534V22.0575H34.2413V24.2351C34.2413 24.7699 34.6632 25.049 35.0829 25.049C35.2406 25.049 35.3471 25.0192 35.4196 24.9915L35.3386 24.6484C35.2853 24.6634 35.2172 24.6783 35.117 24.6783C34.8592 24.6783 34.6227 24.5568 34.6227 24.1456V22.0575H35.3152V21.7273ZM36.1808 25H36.5621V21.7273H36.1808V25ZM36.3746 21.1648C36.5302 21.1648 36.6602 21.0412 36.6602 20.892C36.6602 20.7429 36.5302 20.6193 36.3746 20.6193C36.2191 20.6193 36.0913 20.7429 36.0913 20.892C36.0913 21.0412 36.2191 21.1648 36.3746 21.1648ZM38.8372 25.0682C39.6852 25.0682 40.2775 24.3757 40.2775 23.3786C40.2775 22.375 39.6852 21.6825 38.8372 21.6825C37.9892 21.6825 37.3968 22.375 37.3968 23.3786C37.3968 24.3757 37.9892 25.0682 38.8372 25.0682ZM38.8372 24.7209C38.1575 24.7209 37.7782 24.1115 37.7782 23.3786C37.7782 22.6456 38.1575 22.0277 38.8372 22.0277C39.5169 22.0277 39.8961 22.6456 39.8961 23.3786C39.8961 24.1115 39.5169 24.7209 38.8372 24.7209ZM41.4893 22.9545C41.4893 22.3835 41.8643 22.032 42.38 22.032C42.8828 22.032 43.2067 22.3686 43.2067 22.9034V25H43.5859V22.88C43.5859 22.1044 43.1364 21.6847 42.4759 21.6847C41.9964 21.6847 41.6662 21.9062 41.5128 22.2408H41.4787V21.7273H41.1101V25H41.4893V22.9545ZM17.7898 29.7273H17.0973V28.9432H16.7159V29.7273H16.228V30.0575H16.7159V32.2351C16.7159 32.7699 17.1378 33.049 17.5575 33.049C17.7152 33.049 17.8217 33.0192 17.8942 32.9915L17.8132 32.6484C17.7599 32.6634 17.6918 32.6783 17.5916 32.6783C17.3338 32.6783 17.0973 32.5568 17.0973 32.1456V30.0575H17.7898V29.7273ZM19.888 33.0682C20.736 33.0682 21.3283 32.3757 21.3283 31.3786C21.3283 30.375 20.736 29.6825 19.888 29.6825C19.04 29.6825 18.4476 30.375 18.4476 31.3786C18.4476 32.3757 19.04 33.0682 19.888 33.0682ZM19.888 32.7209C19.2083 32.7209 18.829 32.1115 18.829 31.3786C18.829 30.6456 19.2083 30.0277 19.888 30.0277C20.5676 30.0277 20.9469 30.6456 20.9469 31.3786C20.9469 32.1115 20.5676 32.7209 19.888 32.7209ZM23.4329 33.0682C24.2809 33.0682 24.8732 32.3757 24.8732 31.3786C24.8732 30.375 24.2809 29.6825 23.4329 29.6825C22.5849 29.6825 21.9925 30.375 21.9925 31.3786C21.9925 32.3757 22.5849 33.0682 23.4329 33.0682ZM23.4329 32.7209C22.7532 32.7209 22.3739 32.1115 22.3739 31.3786C22.3739 30.6456 22.7532 30.0277 23.4329 30.0277C24.1126 30.0277 24.4918 30.6456 24.4918 31.3786C24.4918 32.1115 24.1126 32.7209 23.4329 32.7209ZM26.085 28.6364H25.7058V33H26.085V28.6364ZM30.1227 29.7273H29.3983V29.3267C29.3983 28.9837 29.5836 28.7919 29.9139 28.7919C30.0396 28.7919 30.1163 28.8196 30.1738 28.8388L30.2846 28.5064C30.2079 28.4744 30.0801 28.4339 29.8798 28.4339C29.4345 28.4339 29.0169 28.7195 29.0169 29.2479V29.7273H28.514V30.0575H29.0169V33H29.3961L29.3983 30.0575H30.1227V29.7273ZM32.0169 33.0682C32.8649 33.0682 33.4572 32.3757 33.4572 31.3786C33.4572 30.375 32.8649 29.6825 32.0169 29.6825C31.1689 29.6825 30.5765 30.375 30.5765 31.3786C30.5765 32.3757 31.1689 33.0682 32.0169 33.0682ZM32.0169 32.7209C31.3372 32.7209 30.9579 32.1115 30.9579 31.3786C30.9579 30.6456 31.3372 30.0277 32.0169 30.0277C32.6966 30.0277 33.0758 30.6456 33.0758 31.3786C33.0758 32.1115 32.6966 32.7209 32.0169 32.7209ZM34.2898 33H34.669V30.8864C34.669 30.4006 35.0419 30.049 35.5533 30.049C35.6534 30.049 35.7472 30.0661 35.7812 30.0703V29.6847C35.7301 29.6825 35.6428 29.6783 35.581 29.6783C35.1697 29.6783 34.8182 29.8999 34.6861 30.2301H34.6584V29.7273H34.2898V33ZM17.8239 41.0682C18.4801 41.0682 18.9212 40.7124 19.0703 40.3011L18.7102 40.1839C18.5845 40.478 18.2884 40.7209 17.8239 40.7209C17.1548 40.7209 16.7308 40.233 16.7138 39.4766H19.1513V39.2891C19.1513 38.196 18.4759 37.6825 17.7663 37.6825C16.9183 37.6825 16.3324 38.392 16.3324 39.3828C16.3324 40.3757 16.9077 41.0682 17.8239 41.0682ZM16.7159 39.142C16.7564 38.5327 17.1676 38.0277 17.7663 38.0277C18.3523 38.0277 18.7635 38.5114 18.7635 39.142H16.7159ZM20.3663 36.6364H19.987V41H20.3663V36.6364ZM22.693 41.0682C23.3493 41.0682 23.7903 40.7124 23.9395 40.3011L23.5794 40.1839C23.4537 40.478 23.1575 40.7209 22.693 40.7209C22.024 40.7209 21.6 40.233 21.5829 39.4766H24.0204V39.2891C24.0204 38.196 23.345 37.6825 22.6355 37.6825C21.7875 37.6825 21.2015 38.392 21.2015 39.3828C21.2015 40.3757 21.7768 41.0682 22.693 41.0682ZM21.585 39.142C21.6255 38.5327 22.0368 38.0277 22.6355 38.0277C23.2214 38.0277 23.6326 38.5114 23.6326 39.142H21.585ZM24.8562 41H25.2354V38.9034C25.2354 38.3942 25.5742 38.032 26.0281 38.032C26.4755 38.032 26.7354 38.3303 26.7354 38.7734V41H27.1232V38.8459C27.1232 38.375 27.4045 38.032 27.9031 38.032C28.3356 38.032 28.6232 38.2919 28.6232 38.8075V41H29.0025V38.8075C29.0025 38.0746 28.6254 37.6847 28.0181 37.6847C27.5408 37.6847 27.1957 37.9169 27.0487 38.2791H27.021C26.8761 37.9084 26.5884 37.6847 26.1367 37.6847C25.7085 37.6847 25.3888 37.8913 25.2589 38.2301H25.2248V37.7273H24.8562V41ZM31.3297 41.0682C31.986 41.0682 32.427 40.7124 32.5762 40.3011L32.2161 40.1839C32.0904 40.478 31.7942 40.7209 31.3297 40.7209C30.6607 40.7209 30.2367 40.233 30.2196 39.4766H32.6571V39.2891C32.6571 38.196 31.9817 37.6825 31.2722 37.6825C30.4242 37.6825 29.8382 38.392 29.8382 39.3828C29.8382 40.3757 30.4135 41.0682 31.3297 41.0682ZM30.2218 39.142C30.2623 38.5327 30.6735 38.0277 31.2722 38.0277C31.8581 38.0277 32.2694 38.5114 32.2694 39.142H30.2218ZM33.8722 38.9545C33.8722 38.3835 34.2472 38.032 34.7628 38.032C35.2656 38.032 35.5895 38.3686 35.5895 38.9034V41H35.9688V38.88C35.9688 38.1044 35.5192 37.6847 34.8587 37.6847C34.3793 37.6847 34.049 37.9062 33.8956 38.2408H33.8615V37.7273H33.4929V41H33.8722V38.9545ZM38.2566 37.7273H37.5641V36.9432H37.1827V37.7273H36.6948V38.0575H37.1827V40.2351C37.1827 40.7699 37.6046 41.049 38.0243 41.049C38.182 41.049 38.2885 41.0192 38.361 40.9915L38.28 40.6484C38.2267 40.6634 38.1586 40.6783 38.0584 40.6783C37.8006 40.6783 37.5641 40.5568 37.5641 40.1456V38.0575H38.2566V37.7273ZM40.032 41.0746C40.5774 41.0746 40.9098 40.772 41.0462 40.4822H41.0696V41H41.4489V38.7777C41.4489 37.8999 40.7884 37.6825 40.2876 37.6825C39.7869 37.6825 39.2713 37.8807 39.0497 38.4155L39.4098 38.5455C39.5291 38.2642 39.8253 38.0234 40.2983 38.0234C40.7947 38.0234 41.0696 38.2962 41.0696 38.7436V38.8203C41.0696 39.0675 40.7628 39.0717 40.2131 39.1399C39.4737 39.2315 38.956 39.4382 38.956 40.0859C38.956 40.7166 39.4375 41.0746 40.032 41.0746ZM40.0831 40.7273C39.6548 40.7273 39.3352 40.4993 39.3352 40.103C39.3352 39.7067 39.6591 39.5405 40.2131 39.4723C40.4815 39.4403 40.9588 39.3807 41.0696 39.272V39.745C41.0696 40.282 40.6882 40.7273 40.0831 40.7273ZM42.4577 41H42.837V38.8864C42.837 38.4006 43.2099 38.049 43.7212 38.049C43.8214 38.049 43.9151 38.0661 43.9492 38.0703V37.6847C43.8981 37.6825 43.8107 37.6783 43.7489 37.6783C43.3377 37.6783 42.9862 37.8999 42.854 38.2301H42.8263V37.7273H42.4577V41ZM44.9602 42.2273C45.3693 42.2273 45.6697 41.9929 45.8445 41.5178L47.2315 37.7337L46.8182 37.7273L45.8466 40.4993H45.8168L44.8452 37.7273H44.4339L45.6378 41.032L45.5185 41.3643C45.3374 41.8587 45.0817 41.946 44.696 41.8246L44.5938 42.1591C44.6705 42.1953 44.8111 42.2273 44.9602 42.2273ZM20.157 46.8182C20.157 45.4524 19.3729 44.5767 18.2692 44.5767C17.1676 44.5767 16.3835 45.4545 16.3835 46.8182C16.3835 48.1818 17.1655 49.0597 18.2692 49.0597C19.3729 49.0597 20.157 48.1839 20.157 46.8182ZM19.7692 46.8182C19.7713 47.9922 19.13 48.6847 18.2692 48.6847C17.4062 48.6847 16.7692 47.9879 16.7692 46.8182C16.7692 45.642 17.4126 44.9517 18.2692 44.9517C19.13 44.9517 19.7692 45.6442 19.7692 46.8182ZM23.4899 45.7273H23.8755C23.8457 45.0646 23.2725 44.5746 22.4608 44.5746C21.6554 44.5746 21.0353 45.0582 21.0353 45.7614C21.0353 46.3217 21.4316 46.6733 22.1156 46.8757L22.6376 47.0291C23.1788 47.1868 23.5495 47.3892 23.5495 47.8345C23.5495 48.3587 23.0744 48.7102 22.4224 48.7102C21.8343 48.7102 21.3741 48.4268 21.3315 47.9091H20.9224C20.9693 48.5994 21.5318 49.0746 22.4224 49.0746C23.3684 49.0746 23.9352 48.5398 23.9352 47.8409C23.9352 47.1165 23.3045 46.8267 22.7505 46.6712L22.2903 46.5391C21.8663 46.4197 21.421 46.2045 21.421 45.7443C21.421 45.2756 21.8407 44.9325 22.4501 44.9325C23.0275 44.9325 23.4409 45.2415 23.4899 45.7273ZM25.1177 49.032C25.2882 49.032 25.4245 48.8935 25.4245 48.7251C25.4245 48.5547 25.2882 48.4183 25.1177 48.4183C24.9494 48.4183 24.8109 48.5547 24.8109 48.7251C24.8109 48.8935 24.9494 49.032 25.1177 49.032ZM18.233 52.6364V55.7834C18.2308 56.4162 17.9112 56.7017 17.4489 56.7017C16.9993 56.7017 16.6626 56.4354 16.6648 56.0455H16.2727C16.2706 56.6612 16.7713 57.0597 17.4489 57.0597C18.1413 57.0597 18.6293 56.6378 18.6314 55.7834V52.6364H18.233ZM21.7912 55.7493C21.7912 56.3501 21.3395 56.674 20.8963 56.674C20.4233 56.674 20.0909 56.3352 20.0909 55.8239V53.7273H19.7116V55.8473C19.7116 56.6229 20.1591 57.0426 20.7876 57.0426C21.267 57.0426 21.608 56.7933 21.7614 56.4567H21.7912V57H22.1705V53.7273H21.7912V55.7493ZM25.3734 54.4453C25.2136 53.9723 24.8642 53.6825 24.2654 53.6825C23.6049 53.6825 23.1255 54.0597 23.1255 54.5987C23.1255 55.0376 23.3919 55.3359 23.9608 55.4723L24.4956 55.6001C24.8556 55.6854 25.0282 55.8707 25.0282 56.1328C25.0282 56.4737 24.7022 56.7273 24.1994 56.7273C23.752 56.7273 23.4728 56.5249 23.3812 56.1371L23.0169 56.2266C23.1319 56.772 23.5645 57.0682 24.2058 57.0682C24.926 57.0682 25.4203 56.6719 25.4203 56.1158C25.4203 55.679 25.1454 55.3871 24.5978 55.2528L24.1035 55.1314C23.6966 55.0291 23.5069 54.8651 23.5069 54.5817C23.5069 54.2493 23.8244 54.017 24.2654 54.017C24.7065 54.017 24.9238 54.2493 25.0261 54.5433L25.3734 54.4453ZM27.5398 53.7273H26.8473V52.9432H26.4659V53.7273H25.978V54.0575H26.4659V56.2351C26.4659 56.7699 26.8878 57.049 27.3075 57.049C27.4652 57.049 27.5717 57.0192 27.6442 56.9915L27.5632 56.6484C27.5099 56.6634 27.4418 56.6783 27.3416 56.6783C27.0838 56.6783 26.8473 56.5568 26.8473 56.1456V54.0575H27.5398V53.7273ZM31.3372 58.2955C32.1127 58.2955 32.688 57.9162 32.688 57.0852V53.7273H32.3173V54.3516H32.2789C32.1447 54.0575 31.8741 53.6825 31.2733 53.6825C30.4636 53.6825 29.9203 54.3601 29.9203 55.3551C29.9203 56.3587 30.4828 56.9659 31.2669 56.9659C31.8549 56.9659 32.1426 56.625 32.2725 56.3246H32.3066V57.0618C32.3066 57.6712 31.9167 57.9545 31.3372 57.9545C30.7768 57.9545 30.5083 57.6839 30.3699 57.4347L30.0588 57.6392C30.2505 58.0142 30.6681 58.2955 31.3372 58.2955ZM31.3116 56.6186C30.6618 56.6186 30.3017 56.0987 30.3017 55.3487C30.3017 54.6115 30.6554 54.0277 31.3116 54.0277C31.9529 54.0277 32.313 54.5817 32.313 55.3487C32.313 56.1392 31.9423 56.6186 31.3116 56.6186ZM33.6921 57H34.0714V54.8864C34.0714 54.4006 34.4442 54.049 34.9556 54.049C35.0558 54.049 35.1495 54.0661 35.1836 54.0703V53.6847C35.1325 53.6825 35.0451 53.6783 34.9833 53.6783C34.5721 53.6783 34.2205 53.8999 34.0884 54.2301H34.0607V53.7273H33.6921V57ZM36.7449 57.0746C37.2903 57.0746 37.6227 56.772 37.7591 56.4822H37.7825V57H38.1618V54.7777C38.1618 53.8999 37.5012 53.6825 37.0005 53.6825C36.4998 53.6825 35.9842 53.8807 35.7626 54.4155L36.1227 54.5455C36.242 54.2642 36.5382 54.0234 37.0112 54.0234C37.5076 54.0234 37.7825 54.2962 37.7825 54.7436V54.8203C37.7825 55.0675 37.4757 55.0717 36.926 55.1399C36.1866 55.2315 35.6689 55.4382 35.6689 56.0859C35.6689 56.7166 36.1504 57.0746 36.7449 57.0746ZM36.796 56.7273C36.3677 56.7273 36.0481 56.4993 36.0481 56.103C36.0481 55.7067 36.372 55.5405 36.926 55.4723C37.1944 55.4403 37.6717 55.3807 37.7825 55.272V55.745C37.7825 56.282 37.4011 56.7273 36.796 56.7273ZM39.2495 57H39.6181V56.3928H39.665C39.7971 56.6932 40.074 57.0682 40.6706 57.0682C41.4739 57.0682 42.0172 56.3885 42.0172 55.3722C42.0172 54.3643 41.4718 53.6825 40.6642 53.6825C40.0655 53.6825 39.7949 54.0575 39.665 54.3516H39.6309V52.6364H39.2495V57ZM39.6245 55.3658C39.6245 54.5817 39.9846 54.0277 40.6238 54.0277C41.28 54.0277 41.6358 54.6115 41.6358 55.3658C41.6358 56.1286 41.2757 56.7209 40.6238 56.7209C39.9888 56.7209 39.6245 56.1562 39.6245 55.3658ZM17.7898 61.7273H17.0973V60.9432H16.7159V61.7273H16.228V62.0575H16.7159V64.2351C16.7159 64.7699 17.1378 65.049 17.5575 65.049C17.7152 65.049 17.8217 65.0192 17.8942 64.9915L17.8132 64.6484C17.7599 64.6634 17.6918 64.6783 17.5916 64.6783C17.3338 64.6783 17.0973 64.5568 17.0973 64.1456V62.0575H17.7898V61.7273ZM19.1007 62.9545C19.1007 62.3835 19.4842 62.032 20.0083 62.032C20.5154 62.032 20.8393 62.3643 20.8393 62.9034V65H21.2207V62.88C21.2207 62.1001 20.769 61.6847 20.1042 61.6847C19.6099 61.6847 19.2882 61.902 19.1348 62.2408H19.1007V60.6364H18.7214V65H19.1007V62.9545ZM23.5426 65.0682C24.1989 65.0682 24.6399 64.7124 24.7891 64.3011L24.429 64.1839C24.3033 64.478 24.0071 64.7209 23.5426 64.7209C22.8736 64.7209 22.4496 64.233 22.4325 63.4766H24.87V63.2891C24.87 62.196 24.1946 61.6825 23.4851 61.6825C22.6371 61.6825 22.0511 62.392 22.0511 63.3828C22.0511 64.3757 22.6264 65.0682 23.5426 65.0682ZM22.4347 63.142C22.4751 62.5327 22.8864 62.0277 23.4851 62.0277C24.071 62.0277 24.4822 62.5114 24.4822 63.142H22.4347ZM28.3074 65.0746C28.8528 65.0746 29.1852 64.772 29.3216 64.4822H29.345V65H29.7243V62.7777C29.7243 61.8999 29.0637 61.6825 28.563 61.6825C28.0623 61.6825 27.5467 61.8807 27.3251 62.4155L27.6852 62.5455C27.8045 62.2642 28.1007 62.0234 28.5737 62.0234C29.0701 62.0234 29.345 62.2962 29.345 62.7436V62.8203C29.345 63.0675 29.0382 63.0717 28.4885 63.1399C27.7491 63.2315 27.2314 63.4382 27.2314 64.0859C27.2314 64.7166 27.7129 65.0746 28.3074 65.0746ZM28.3585 64.7273C27.9302 64.7273 27.6106 64.4993 27.6106 64.103C27.6106 63.7067 27.9345 63.5405 28.4885 63.4723C28.7569 63.4403 29.2342 63.3807 29.345 63.272V63.745C29.345 64.282 28.9636 64.7273 28.3585 64.7273ZM30.7331 65H31.1124V62.8864C31.1124 62.4006 31.4853 62.049 31.9966 62.049C32.0968 62.049 32.1905 62.0661 32.2246 62.0703V61.6847C32.1735 61.6825 32.0861 61.6783 32.0243 61.6783C31.6131 61.6783 31.2615 61.8999 31.1294 62.2301H31.1017V61.7273H30.7331V65ZM34.0953 65.0682C34.7516 65.0682 35.1926 64.7124 35.3418 64.3011L34.9817 64.1839C34.856 64.478 34.5598 64.7209 34.0953 64.7209C33.4263 64.7209 33.0023 64.233 32.9853 63.4766H35.4228V63.2891C35.4228 62.196 34.7473 61.6825 34.0378 61.6825C33.1898 61.6825 32.6039 62.392 32.6039 63.3828C32.6039 64.3757 33.1792 65.0682 34.0953 65.0682ZM32.9874 63.142C33.0279 62.5327 33.4391 62.0277 34.0378 62.0277C34.6238 62.0277 35.035 62.5114 35.035 63.142H32.9874ZM37.1726 65.0746C37.718 65.0746 38.0504 64.772 38.1868 64.4822H38.2102V65H38.5895V62.7777C38.5895 61.8999 37.929 61.6825 37.4283 61.6825C36.9276 61.6825 36.4119 61.8807 36.1903 62.4155L36.5504 62.5455C36.6697 62.2642 36.9659 62.0234 37.4389 62.0234C37.9354 62.0234 38.2102 62.2962 38.2102 62.7436V62.8203C38.2102 63.0675 37.9034 63.0717 37.3537 63.1399C36.6143 63.2315 36.0966 63.4382 36.0966 64.0859C36.0966 64.7166 36.5781 65.0746 37.1726 65.0746ZM37.2237 64.7273C36.7955 64.7273 36.4759 64.4993 36.4759 64.103C36.4759 63.7067 36.7997 63.5405 37.3537 63.4723C37.6222 63.4403 38.0994 63.3807 38.2102 63.272V63.745C38.2102 64.282 37.8288 64.7273 37.2237 64.7273ZM17.2273 73H17.6193L18.3949 70.3175H18.4354L19.2109 73H19.603L20.5916 69.7273H20.1911L19.4155 72.4205H19.3857L18.6186 69.7273H18.2159L17.4425 72.4268H17.4148L16.6392 69.7273H16.2386L17.2273 73ZM21.3331 73H21.7145V69.7273H21.3331V73ZM21.527 69.1648C21.6825 69.1648 21.8125 69.0412 21.8125 68.892C21.8125 68.7429 21.6825 68.6193 21.527 68.6193C21.3714 68.6193 21.2436 68.7429 21.2436 68.892C21.2436 69.0412 21.3714 69.1648 21.527 69.1648ZM24.0066 69.7273H23.3141V68.9432H22.9327V69.7273H22.4448V70.0575H22.9327V72.2351C22.9327 72.7699 23.3546 73.049 23.7743 73.049C23.932 73.049 24.0385 73.0192 24.111 72.9915L24.03 72.6484C23.9767 72.6634 23.9086 72.6783 23.8084 72.6783C23.5506 72.6783 23.3141 72.5568 23.3141 72.1456V70.0575H24.0066V69.7273ZM25.3175 70.9545C25.3175 70.3835 25.701 70.032 26.2251 70.032C26.7322 70.032 27.0561 70.3643 27.0561 70.9034V73H27.4375V70.88C27.4375 70.1001 26.9858 69.6847 26.321 69.6847C25.8267 69.6847 25.505 69.902 25.3516 70.2408H25.3175V68.6364H24.9382V73H25.3175V70.9545ZM31.4128 69.7273H30.7203V68.9432H30.339V69.7273H29.851V70.0575H30.339V72.2351C30.339 72.7699 30.7608 73.049 31.1806 73.049C31.3382 73.049 31.4448 73.0192 31.5172 72.9915L31.4363 72.6484C31.383 72.6634 31.3148 72.6783 31.2147 72.6783C30.9569 72.6783 30.7203 72.5568 30.7203 72.1456V70.0575H31.4128V69.7273ZM32.7237 70.9545C32.7237 70.3835 33.1072 70.032 33.6314 70.032C34.1385 70.032 34.4624 70.3643 34.4624 70.9034V73H34.8438V70.88C34.8438 70.1001 34.392 69.6847 33.7273 69.6847C33.233 69.6847 32.9112 69.902 32.7578 70.2408H32.7237V68.6364H32.3445V73H32.7237V70.9545ZM37.1657 73.0682C37.8219 73.0682 38.263 72.7124 38.4121 72.3011L38.052 72.1839C37.9263 72.478 37.6301 72.7209 37.1657 72.7209C36.4966 72.7209 36.0726 72.233 36.0556 71.4766H38.4931V71.2891C38.4931 70.196 37.8176 69.6825 37.1081 69.6825C36.2601 69.6825 35.6742 70.392 35.6742 71.3828C35.6742 72.3757 36.2495 73.0682 37.1657 73.0682ZM36.0577 71.142C36.0982 70.5327 36.5094 70.0277 37.1081 70.0277C37.6941 70.0277 38.1053 70.5114 38.1053 71.142H36.0577ZM17.7898 77.7273H17.0973V76.9432H16.7159V77.7273H16.228V78.0575H16.7159V80.2351C16.7159 80.7699 17.1378 81.049 17.5575 81.049C17.7152 81.049 17.8217 81.0192 17.8942 80.9915L17.8132 80.6484C17.7599 80.6634 17.6918 80.6783 17.5916 80.6783C17.3338 80.6783 17.0973 80.5568 17.0973 80.1456V78.0575H17.7898V77.7273ZM19.9391 81.0682C20.5953 81.0682 21.0364 80.7124 21.1855 80.3011L20.8255 80.1839C20.6998 80.478 20.4036 80.7209 19.9391 80.7209C19.2701 80.7209 18.8461 80.233 18.829 79.4766H21.2665V79.2891C21.2665 78.196 20.5911 77.6825 19.8816 77.6825C19.0336 77.6825 18.4476 78.392 18.4476 79.3828C18.4476 80.3757 19.0229 81.0682 19.9391 81.0682ZM18.8311 79.142C18.8716 78.5327 19.2828 78.0277 19.8816 78.0277C20.4675 78.0277 20.8787 78.5114 20.8787 79.142H18.8311ZM22.2488 77.7273H21.8098L22.8496 79.3636L21.8098 81H22.2488L23.0925 79.6491L23.9363 81H24.3773L23.3248 79.3636L24.3773 77.7273H23.9363L23.0925 79.1229L22.2488 77.7273ZM26.4616 77.7273H25.7692V76.9432H25.3878V77.7273H24.8999V78.0575H25.3878V80.2351C25.3878 80.7699 25.8097 81.049 26.2294 81.049C26.3871 81.049 26.4936 81.0192 26.5661 80.9915L26.4851 80.6484C26.4318 80.6634 26.3636 80.6783 26.2635 80.6783C26.0057 80.6783 25.7692 80.5568 25.7692 80.1456V78.0575H26.4616V77.7273ZM29.2747 82.2273C29.6838 82.2273 29.9842 81.9929 30.1589 81.5178L31.546 77.7337L31.1326 77.7273L30.161 80.4993H30.1312L29.1596 77.7273H28.7484L29.9522 81.032L29.8329 81.3643C29.6518 81.8587 29.3961 81.946 29.0105 81.8246L28.9082 82.1591C28.9849 82.1953 29.1255 82.2273 29.2747 82.2273ZM33.4407 81.0682C34.2887 81.0682 34.881 80.3757 34.881 79.3786C34.881 78.375 34.2887 77.6825 33.4407 77.6825C32.5927 77.6825 32.0004 78.375 32.0004 79.3786C32.0004 80.3757 32.5927 81.0682 33.4407 81.0682ZM33.4407 80.7209C32.761 80.7209 32.3817 80.1115 32.3817 79.3786C32.3817 78.6456 32.761 78.0277 33.4407 78.0277C34.1204 78.0277 34.4996 78.6456 34.4996 79.3786C34.4996 80.1115 34.1204 80.7209 33.4407 80.7209ZM37.7931 79.7493C37.7931 80.3501 37.3414 80.674 36.8983 80.674C36.4252 80.674 36.0929 80.3352 36.0929 79.8239V77.7273H35.7136V79.8473C35.7136 80.6229 36.161 81.0426 36.7896 81.0426C37.269 81.0426 37.6099 80.7933 37.7633 80.4567H37.7931V81H38.1724V77.7273H37.7931V79.7493ZM17.2273 89H17.6193L18.3949 86.3175H18.4354L19.2109 89H19.603L20.5916 85.7273H20.1911L19.4155 88.4205H19.3857L18.6186 85.7273H18.2159L17.4425 88.4268H17.4148L16.6392 85.7273H16.2386L17.2273 89ZM21.3331 89H21.7145V85.7273H21.3331V89ZM21.527 85.1648C21.6825 85.1648 21.8125 85.0412 21.8125 84.892C21.8125 84.7429 21.6825 84.6193 21.527 84.6193C21.3714 84.6193 21.2436 84.7429 21.2436 84.892C21.2436 85.0412 21.3714 85.1648 21.527 85.1648ZM24.0066 85.7273H23.3141V84.9432H22.9327V85.7273H22.4448V86.0575H22.9327V88.2351C22.9327 88.7699 23.3546 89.049 23.7743 89.049C23.932 89.049 24.0385 89.0192 24.111 88.9915L24.03 88.6484C23.9767 88.6634 23.9086 88.6783 23.8084 88.6783C23.5506 88.6783 23.3141 88.5568 23.3141 88.1456V86.0575H24.0066V85.7273ZM25.3175 86.9545C25.3175 86.3835 25.701 86.032 26.2251 86.032C26.7322 86.032 27.0561 86.3643 27.0561 86.9034V89H27.4375V86.88C27.4375 86.1001 26.9858 85.6847 26.321 85.6847C25.8267 85.6847 25.505 85.902 25.3516 86.2408H25.3175V84.6364H24.9382V89H25.3175V86.9545ZM31.4128 85.7273H30.7203V84.9432H30.339V85.7273H29.851V86.0575H30.339V88.2351C30.339 88.7699 30.7608 89.049 31.1806 89.049C31.3382 89.049 31.4448 89.0192 31.5172 88.9915L31.4363 88.6484C31.383 88.6634 31.3148 88.6783 31.2147 88.6783C30.9569 88.6783 30.7203 88.5568 30.7203 88.1456V86.0575H31.4128V85.7273ZM33.511 89.0682C34.359 89.0682 34.9513 88.3757 34.9513 87.3786C34.9513 86.375 34.359 85.6825 33.511 85.6825C32.663 85.6825 32.0707 86.375 32.0707 87.3786C32.0707 88.3757 32.663 89.0682 33.511 89.0682ZM33.511 88.7209C32.8313 88.7209 32.4521 88.1115 32.4521 87.3786C32.4521 86.6456 32.8313 86.0277 33.511 86.0277C34.1907 86.0277 34.57 86.6456 34.57 87.3786C34.57 88.1115 34.1907 88.7209 33.511 88.7209ZM37.5502 89H37.9189V88.3928H37.9657C38.0978 88.6932 38.3748 89.0682 38.9714 89.0682C39.7747 89.0682 40.318 88.3885 40.318 87.3722C40.318 86.3643 39.7725 85.6825 38.965 85.6825C38.3663 85.6825 38.0957 86.0575 37.9657 86.3516H37.9316V84.6364H37.5502V89ZM37.9252 87.3658C37.9252 86.5817 38.2853 86.0277 38.9245 86.0277C39.5808 86.0277 39.9366 86.6115 39.9366 87.3658C39.9366 88.1286 39.5765 88.7209 38.9245 88.7209C38.2896 88.7209 37.9252 88.1562 37.9252 87.3658ZM42.4743 89.0682C43.1305 89.0682 43.5716 88.7124 43.7207 88.3011L43.3606 88.1839C43.2349 88.478 42.9387 88.7209 42.4743 88.7209C41.8052 88.7209 41.3812 88.233 41.3642 87.4766H43.8017V87.2891C43.8017 86.196 43.1262 85.6825 42.4167 85.6825C41.5687 85.6825 40.9828 86.392 40.9828 87.3828C40.9828 88.3757 41.5581 89.0682 42.4743 89.0682ZM41.3663 87.142C41.4068 86.5327 41.818 86.0277 42.4167 86.0277C43.0027 86.0277 43.4139 86.5114 43.4139 87.142H41.3663ZM17.8239 97.0682C18.4801 97.0682 18.9212 96.7124 19.0703 96.3011L18.7102 96.1839C18.5845 96.478 18.2884 96.7209 17.8239 96.7209C17.1548 96.7209 16.7308 96.233 16.7138 95.4766H19.1513V95.2891C19.1513 94.196 18.4759 93.6825 17.7663 93.6825C16.9183 93.6825 16.3324 94.392 16.3324 95.3828C16.3324 96.3757 16.9077 97.0682 17.8239 97.0682ZM16.7159 95.142C16.7564 94.5327 17.1676 94.0277 17.7663 94.0277C18.3523 94.0277 18.7635 94.5114 18.7635 95.142H16.7159ZM20.1335 93.7273H19.6946L20.7344 95.3636L19.6946 97H20.1335L20.9773 95.6491L21.821 97H22.2621L21.2095 95.3636L22.2621 93.7273H21.821L20.9773 95.1229L20.1335 93.7273ZM24.3464 93.7273H23.6539V92.9432H23.2725V93.7273H22.7846V94.0575H23.2725V96.2351C23.2725 96.7699 23.6944 97.049 24.1142 97.049C24.2718 97.049 24.3784 97.0192 24.4508 96.9915L24.3699 96.6484C24.3166 96.6634 24.2484 96.6783 24.1483 96.6783C23.8904 96.6783 23.6539 96.5568 23.6539 96.1456V94.0575H24.3464V93.7273ZM25.2077 97H25.587V94.8864C25.587 94.4006 25.9599 94.049 26.4712 94.049C26.5714 94.049 26.6651 94.0661 26.6992 94.0703V93.6847C26.6481 93.6825 26.5607 93.6783 26.4989 93.6783C26.0877 93.6783 25.7362 93.8999 25.604 94.2301H25.5763V93.7273H25.2077V97ZM28.2605 97.0746C28.8059 97.0746 29.1383 96.772 29.2747 96.4822H29.2981V97H29.6774V94.7777C29.6774 93.8999 29.0169 93.6825 28.5162 93.6825C28.0154 93.6825 27.4998 93.8807 27.2782 94.4155L27.6383 94.5455C27.7576 94.2642 28.0538 94.0234 28.5268 94.0234C29.0233 94.0234 29.2981 94.2962 29.2981 94.7436V94.8203C29.2981 95.0675 28.9913 95.0717 28.4416 95.1399C27.7022 95.2315 27.1845 95.4382 27.1845 96.0859C27.1845 96.7166 27.666 97.0746 28.2605 97.0746ZM28.3116 96.7273C27.8833 96.7273 27.5637 96.4993 27.5637 96.103C27.5637 95.7067 27.8876 95.5405 28.4416 95.4723C28.71 95.4403 29.1873 95.3807 29.2981 95.272V95.745C29.2981 96.282 28.9167 96.7273 28.3116 96.7273ZM31.9647 97.0682C32.6465 97.0682 33.1259 96.6378 33.2132 96.0455H32.8297C32.7424 96.4631 32.3993 96.7209 31.9647 96.7209C31.3233 96.7209 30.8993 96.1626 30.8993 95.3658C30.8993 94.5732 31.3361 94.0277 31.9647 94.0277C32.4313 94.0277 32.7466 94.3281 32.8276 94.6989H33.2111C33.1216 94.0916 32.6145 93.6825 31.9583 93.6825C31.1017 93.6825 30.5179 94.3942 30.5179 95.3786C30.5179 96.3544 31.0847 97.0682 31.9647 97.0682ZM35.3152 93.7273H34.6227V92.9432H34.2413V93.7273H33.7534V94.0575H34.2413V96.2351C34.2413 96.7699 34.6632 97.049 35.0829 97.049C35.2406 97.049 35.3471 97.0192 35.4196 96.9915L35.3386 96.6484C35.2853 96.6634 35.2172 96.6783 35.117 96.6783C34.8592 96.6783 34.6227 96.5568 34.6227 96.1456V94.0575H35.3152V93.7273ZM37.4645 97.0682C38.1207 97.0682 38.5618 96.7124 38.7109 96.3011L38.3509 96.1839C38.2251 96.478 37.929 96.7209 37.4645 96.7209C36.7955 96.7209 36.3714 96.233 36.3544 95.4766H38.7919V95.2891C38.7919 94.196 38.1165 93.6825 37.407 93.6825C36.5589 93.6825 35.973 94.392 35.973 95.3828C35.973 96.3757 36.5483 97.0682 37.4645 97.0682ZM36.3565 95.142C36.397 94.5327 36.8082 94.0277 37.407 94.0277C37.9929 94.0277 38.4041 94.5114 38.4041 95.142H36.3565ZM40.8059 97.0682C41.4004 97.0682 41.6774 96.6911 41.8116 96.3928H41.8564V97H42.2271V92.6364H41.8457V94.3516H41.8116C41.6816 94.0575 41.411 93.6825 40.8123 93.6825C40.0048 93.6825 39.4593 94.3643 39.4593 95.3722C39.4593 96.3885 40.0027 97.0682 40.8059 97.0682ZM40.8507 96.7209C40.1987 96.7209 39.8407 96.1286 39.8407 95.3658C39.8407 94.6115 40.1944 94.0277 40.8507 94.0277C41.4899 94.0277 41.8521 94.5817 41.8521 95.3658C41.8521 96.1562 41.4856 96.7209 40.8507 96.7209ZM17.4148 105.075C17.9602 105.075 18.2926 104.772 18.429 104.482H18.4524V105H18.8317V102.778C18.8317 101.9 18.1712 101.683 17.6705 101.683C17.1697 101.683 16.6541 101.881 16.4325 102.415L16.7926 102.545C16.9119 102.264 17.2081 102.023 17.6811 102.023C18.1776 102.023 18.4524 102.296 18.4524 102.744V102.82C18.4524 103.067 18.1456 103.072 17.5959 103.14C16.8565 103.232 16.3388 103.438 16.3388 104.086C16.3388 104.717 16.8203 105.075 17.4148 105.075ZM17.4659 104.727C17.0376 104.727 16.718 104.499 16.718 104.103C16.718 103.707 17.0419 103.54 17.5959 103.472C17.8643 103.44 18.3416 103.381 18.4524 103.272V103.745C18.4524 104.282 18.071 104.727 17.4659 104.727ZM20.2198 102.955C20.2198 102.384 20.5948 102.032 21.1104 102.032C21.6133 102.032 21.9371 102.369 21.9371 102.903V105H22.3164V102.88C22.3164 102.104 21.8668 101.685 21.2063 101.685C20.7269 101.685 20.3967 101.906 20.2433 102.241H20.2092V101.727H19.8406V105H20.2198V102.955ZM24.4934 105.068C25.0879 105.068 25.3649 104.691 25.4991 104.393H25.5439V105H25.9146V100.636H25.5332V102.352H25.4991C25.3691 102.058 25.0985 101.683 24.4998 101.683C23.6923 101.683 23.1468 102.364 23.1468 103.372C23.1468 104.388 23.6902 105.068 24.4934 105.068ZM24.5382 104.721C23.8862 104.721 23.5282 104.129 23.5282 103.366C23.5282 102.612 23.8819 102.028 24.5382 102.028C25.1774 102.028 25.5396 102.582 25.5396 103.366C25.5396 104.156 25.1731 104.721 24.5382 104.721ZM28.6824 105H29.0616V102.903C29.0616 102.394 29.4004 102.032 29.8542 102.032C30.3017 102.032 30.5616 102.33 30.5616 102.773V105H30.9494V102.846C30.9494 102.375 31.2306 102.032 31.7292 102.032C32.1618 102.032 32.4494 102.292 32.4494 102.808V105H32.8287V102.808C32.8287 102.075 32.4515 101.685 31.8443 101.685C31.367 101.685 31.0218 101.917 30.8748 102.279H30.8471C30.7022 101.908 30.4146 101.685 29.9629 101.685C29.5346 101.685 29.215 101.891 29.085 102.23H29.051V101.727H28.6824V105ZM34.7468 105.075C35.2923 105.075 35.6246 104.772 35.761 104.482H35.7844V105H36.1637V102.778C36.1637 101.9 35.5032 101.683 35.0025 101.683C34.5018 101.683 33.9862 101.881 33.7646 102.415L34.1246 102.545C34.244 102.264 34.5401 102.023 35.0131 102.023C35.5096 102.023 35.7844 102.296 35.7844 102.744V102.82C35.7844 103.067 35.4776 103.072 34.9279 103.14C34.1886 103.232 33.6708 103.438 33.6708 104.086C33.6708 104.717 34.1523 105.075 34.7468 105.075ZM34.7979 104.727C34.3697 104.727 34.0501 104.499 34.0501 104.103C34.0501 103.707 34.3739 103.54 34.9279 103.472C35.1964 103.44 35.6737 103.381 35.7844 103.272V103.745C35.7844 104.282 35.4031 104.727 34.7979 104.727ZM38.4212 106.295C39.1967 106.295 39.772 105.916 39.772 105.085V101.727H39.4013V102.352H39.3629C39.2287 102.058 38.9581 101.683 38.3572 101.683C37.5476 101.683 37.0043 102.36 37.0043 103.355C37.0043 104.359 37.5668 104.966 38.3509 104.966C38.9389 104.966 39.2266 104.625 39.3565 104.325H39.3906V105.062C39.3906 105.671 39.0007 105.955 38.4212 105.955C37.8608 105.955 37.5923 105.684 37.4538 105.435L37.1428 105.639C37.3345 106.014 37.7521 106.295 38.4212 106.295ZM38.3956 104.619C37.7457 104.619 37.3857 104.099 37.3857 103.349C37.3857 102.612 37.7393 102.028 38.3956 102.028C39.0369 102.028 39.397 102.582 39.397 103.349C39.397 104.139 39.0263 104.619 38.3956 104.619ZM40.7804 105H41.1618V101.727H40.7804V105ZM40.9743 101.165C41.1298 101.165 41.2598 101.041 41.2598 100.892C41.2598 100.743 41.1298 100.619 40.9743 100.619C40.8187 100.619 40.6909 100.743 40.6909 100.892C40.6909 101.041 40.8187 101.165 40.9743 101.165ZM43.4432 105.068C44.125 105.068 44.6044 104.638 44.6918 104.045H44.3082C44.2209 104.463 43.8778 104.721 43.4432 104.721C42.8018 104.721 42.3778 104.163 42.3778 103.366C42.3778 102.573 42.8146 102.028 43.4432 102.028C43.9098 102.028 44.2251 102.328 44.3061 102.699H44.6896C44.6001 102.092 44.093 101.683 43.4368 101.683C42.5803 101.683 41.9964 102.394 41.9964 103.379C41.9964 104.354 42.5632 105.068 43.4432 105.068ZM16.88 110.955C16.88 110.384 17.2635 110.032 17.7876 110.032C18.2947 110.032 18.6186 110.364 18.6186 110.903V113H19V110.88C19 110.1 18.5483 109.685 17.8835 109.685C17.3892 109.685 17.0675 109.902 16.9141 110.241H16.88V108.636H16.5007V113H16.88V110.955ZM20.9128 113.075C21.4583 113.075 21.7907 112.772 21.927 112.482H21.9505V113H22.3297V110.778C22.3297 109.9 21.6692 109.683 21.1685 109.683C20.6678 109.683 20.1522 109.881 19.9306 110.415L20.2907 110.545C20.41 110.264 20.7061 110.023 21.1792 110.023C21.6756 110.023 21.9505 110.296 21.9505 110.744V110.82C21.9505 111.067 21.6436 111.072 21.0939 111.14C20.3546 111.232 19.8368 111.438 19.8368 112.086C19.8368 112.717 20.3184 113.075 20.9128 113.075ZM20.964 112.727C20.5357 112.727 20.2161 112.499 20.2161 112.103C20.2161 111.707 20.54 111.54 21.0939 111.472C21.3624 111.44 21.8397 111.381 21.9505 111.272V111.745C21.9505 112.282 21.5691 112.727 20.964 112.727ZM23.3322 114.227H23.7136V112.393H23.7477C23.8777 112.693 24.1589 113.068 24.7534 113.068C25.5545 113.068 26.1 112.386 26.1 111.372C26.1 110.362 25.5566 109.683 24.747 109.683C24.1461 109.683 23.8798 110.058 23.7477 110.352H23.7008V109.727H23.3322V114.227ZM23.7072 111.366C23.7072 110.582 24.0673 110.028 24.7065 110.028C25.3649 110.028 25.7186 110.612 25.7186 111.366C25.7186 112.129 25.3585 112.721 24.7065 112.721C24.0737 112.721 23.7072 112.156 23.7072 111.366ZM26.924 114.227H27.3054V112.393H27.3395C27.4695 112.693 27.7507 113.068 28.3452 113.068C29.1463 113.068 29.6918 112.386 29.6918 111.372C29.6918 110.362 29.1484 109.683 28.3388 109.683C27.7379 109.683 27.4716 110.058 27.3395 110.352H27.2926V109.727H26.924V114.227ZM27.299 111.366C27.299 110.582 27.6591 110.028 28.2983 110.028C28.9567 110.028 29.3104 110.612 29.3104 111.366C29.3104 112.129 28.9503 112.721 28.2983 112.721C27.6655 112.721 27.299 112.156 27.299 111.366ZM31.8453 113.068C32.5016 113.068 32.9426 112.712 33.0918 112.301L32.7317 112.184C32.606 112.478 32.3098 112.721 31.8453 112.721C31.1763 112.721 30.7523 112.233 30.7353 111.477H33.1728V111.289C33.1728 110.196 32.4973 109.683 31.7878 109.683C30.9398 109.683 30.3539 110.392 30.3539 111.383C30.3539 112.376 30.9292 113.068 31.8453 113.068ZM30.7374 111.142C30.7779 110.533 31.1891 110.028 31.7878 110.028C32.3738 110.028 32.785 110.511 32.785 111.142H30.7374ZM34.3878 110.955C34.3878 110.384 34.7628 110.032 35.2784 110.032C35.7812 110.032 36.1051 110.369 36.1051 110.903V113H36.4844V110.88C36.4844 110.104 36.0348 109.685 35.3743 109.685C34.8949 109.685 34.5646 109.906 34.4112 110.241H34.3771V109.727H34.0085V113H34.3878V110.955ZM39.682 110.445C39.5222 109.972 39.1728 109.683 38.574 109.683C37.9135 109.683 37.4341 110.06 37.4341 110.599C37.4341 111.038 37.7005 111.336 38.2694 111.472L38.8042 111.6C39.1642 111.685 39.3368 111.871 39.3368 112.133C39.3368 112.474 39.0108 112.727 38.508 112.727C38.0605 112.727 37.7814 112.525 37.6898 112.137L37.3255 112.227C37.4405 112.772 37.873 113.068 38.5144 113.068C39.2346 113.068 39.7289 112.672 39.7289 112.116C39.7289 111.679 39.454 111.387 38.9064 111.253L38.4121 111.131C38.0051 111.029 37.8155 110.865 37.8155 110.582C37.8155 110.249 38.133 110.017 38.574 110.017C39.0151 110.017 39.2324 110.249 39.3347 110.543L39.682 110.445ZM41.092 108.636H40.6616L40.6893 111.749H41.0643L41.092 108.636ZM40.8768 113.032C41.0472 113.032 41.1836 112.893 41.1836 112.725C41.1836 112.555 41.0472 112.418 40.8768 112.418C40.7085 112.418 40.57 112.555 40.57 112.725C40.57 112.893 40.7085 113.032 40.8768 113.032Z" fill="black"/>
</g>
<g filter="url(#filter1_d)">
<path d="M38 40.5891L41.0891 37.5L52.7111 49.122C53.2969 49.7078 53.2969 50.6575 52.7111 51.2433L51.7433 52.2111C51.1575 52.7969 50.2078 52.7969 49.622 52.2111L38 40.5891Z" fill="url(#paint0_linear)"/>
<circle cx="32.25" cy="32.25" r="11.25" stroke="#17384A" stroke-opacity="0.81" stroke-width="2"/>
<path d="M30.25 25.5L29.5058 25.8721C27.4312 26.9094 25.8872 28.7698 25.25 31V31" stroke="white" stroke-width="2" stroke-linecap="round"/>
</g>
<defs>
<filter id="filter0_d" x="10.5" y="7" width="43" height="54.5" filterUnits="userSpaceOnUse" color-interpolation-filters="sRGB">
<feFlood flood-opacity="0" result="BackgroundImageFix"/>
<feColorMatrix in="SourceAlpha" type="matrix" values="0 0 0 0 0 0 0 0 0 0 0 0 0 0 0 0 0 0 127 0" result="hardAlpha"/>
<feOffset dy="2"/>
<feGaussianBlur stdDeviation="1"/>
<feComposite in2="hardAlpha" operator="out"/>
<feColorMatrix type="matrix" values="0 0 0 0 0 0 0 0 0 0 0 0 0 0 0 0 0 0 0.25 0"/>
<feBlend mode="normal" in2="BackgroundImageFix" result="effect1_dropShadow"/>
<feBlend mode="normal" in="SourceGraphic" in2="effect1_dropShadow" result="shape"/>
</filter>
<filter id="filter1_d" x="19" y="20" width="35.7717" height="36.2717" filterUnits="userSpaceOnUse" color-interpolation-filters="sRGB">
<feFlood flood-opacity="0" result="BackgroundImageFix"/>
<feColorMatrix in="SourceAlpha" type="matrix" values="0 0 0 0 0 0 0 0 0 0 0 0 0 0 0 0 0 0 127 0" result="hardAlpha"/>
<feOffset dy="2"/>
<feGaussianBlur stdDeviation="0.5"/>
<feComposite in2="hardAlpha" operator="out"/>
<feColorMatrix type="matrix" values="0 0 0 0 0 0 0 0 0 0 0 0 0 0 0 0 0 0 0.25 0"/>
<feBlend mode="normal" in2="BackgroundImageFix" result="effect1_dropShadow"/>
<feBlend mode="normal" in="SourceGraphic" in2="effect1_dropShadow" result="shape"/>
</filter>
<linearGradient id="paint0_linear" x1="42.4136" y1="45.5542" x2="45.2321" y2="42.2076" gradientUnits="userSpaceOnUse">
<stop stop-color="#A77255"/>
<stop offset="1" stop-color="#E1B68F"/>
</linearGradient>
</defs>
</svg>
