<svg width="48" height="48" viewBox="0 0 48 48" fill="none" xmlns="http://www.w3.org/2000/svg">
<path opacity="0.5" d="M25 43.5C33.4914 43.5 40.375 41.5692 40.375 39.1875C40.375 36.8058 33.4914 34.875 25 34.875C16.5086 34.875 9.625 36.8058 9.625 39.1875C9.625 41.5692 16.5086 43.5 25 43.5Z" fill="url(#paint0_radial)"/>
<path opacity="0.6" d="M25 42.8146C31.9366 42.8146 37.5598 41.3586 37.5598 39.5625C37.5598 37.7664 31.9366 36.3104 25 36.3104C18.0634 36.3104 12.4402 37.7664 12.4402 39.5625C12.4402 41.3586 18.0634 42.8146 25 42.8146Z" fill="url(#paint1_radial)"/>
<g filter="url(#filter0_i)">
<path d="M39.218 8.28549C30.818 4.54487 26.0452 10.8877 26.6179 14.303H22.7997C22.4179 8.61076 15.9076 4.76642 9.81782 8.44812C5.52894 11.0411 5.88551 14.2319 7.03663 16.7207C7.70837 18.1731 7.45733 19.9414 6.48121 21.2094C3.832 24.6507 1.97599 30.6524 8.09964 35.6083C15.736 41.7885 31.5816 43.7401 40.9362 35.6083C47.0383 30.3038 45.1355 24.5308 42.5345 21.0224C41.6228 19.7928 41.5013 18.1067 42.0942 16.6955C43.9583 12.2579 41.0734 9.21526 39.218 8.28549Z" fill="url(#paint2_linear)"/>
</g>
<path d="M39.218 8.28549C30.818 4.54487 26.0452 10.8877 26.6179 14.303H22.7997C22.4179 8.61076 15.9076 4.76642 9.81782 8.44812C5.52894 11.0411 5.88551 14.2319 7.03663 16.7207C7.70837 18.1731 7.45733 19.9414 6.48121 21.2094C3.832 24.6507 1.97599 30.6524 8.09964 35.6083C15.736 41.7885 31.5816 43.7401 40.9362 35.6083C47.0383 30.3038 45.1355 24.5308 42.5345 21.0224C41.6228 19.7928 41.5013 18.1067 42.0942 16.6955C43.9583 12.2579 41.0734 9.21526 39.218 8.28549Z" stroke="url(#paint3_linear)" stroke-opacity="0.8"/>
<path opacity="0.3" d="M26.6179 14.803H27.2088L27.111 14.2203C26.8641 12.7475 27.7854 10.4822 29.843 9.01817C31.8537 7.58761 34.9531 6.9372 39.004 8.73751C39.8447 9.16171 40.9401 10.0795 41.6042 11.3997C42.2607 12.7047 42.5069 14.422 41.6332 16.5018C40.9802 18.0563 41.104 19.9325 42.1328 21.3202C43.3961 23.0241 44.4631 25.2446 44.4991 27.6493C44.5347 30.0294 43.5619 32.6633 40.6082 35.2309C36.0525 39.1911 29.8897 40.7161 23.8936 40.4757C17.8933 40.2351 12.1327 38.229 8.41418 35.2196C5.46094 32.8296 4.4728 30.2311 4.50057 27.8467C4.52864 25.436 5.59704 23.1776 6.87741 21.5144C7.95902 20.1094 8.24573 18.1438 7.49044 16.5108C6.93682 15.3138 6.60492 14.0105 6.87641 12.7269C7.14405 11.4615 8.01905 10.1199 10.0765 8.87601C15.866 5.37588 21.9457 9.04123 22.3009 14.3365L22.3322 14.803H22.7997H26.6179Z" stroke="url(#paint4_linear)"/>
<circle cx="34.5" cy="15.5" r="5.5" fill="url(#paint5_linear)" stroke="#7E8087"/>
<circle cx="34.5" cy="15.5" r="2.5" fill="url(#paint6_linear)" stroke="black" stroke-opacity="0.7"/>
<circle cx="14.5" cy="15.5" r="5.5" fill="url(#paint7_linear)" stroke="#7E8087"/>
<circle cx="14.5" cy="15.5" r="2.5" fill="url(#paint8_linear)" stroke="black" stroke-opacity="0.7"/>
<path d="M11.3539 27.0259C24.8052 29.0633 33.0067 27.7333 37.7482 27.0259C38.1393 26.9281 39.3123 27.0259 38.9213 28.789C38.5303 30.5521 34.229 38.1922 24.4533 37.9963C14.6776 37.8004 10.9629 30.748 10.1808 28.789C9.5552 27.2218 10.7022 26.9606 11.3539 27.0259Z" fill="url(#paint9_linear)" stroke="#3F3F3F"/>
<path d="M18 35.4146C20.1343 36.5617 25.7224 38.2107 31 35.6297C29.0597 33.6939 23.7433 30.9407 18 35.4146Z" fill="url(#paint10_linear)" stroke="#ED5353"/>
<path d="M37.8617 28.4926C32.2143 31.8358 17.75 31.8358 11.0202 28.4926C10.8721 28.0117 11.5755 27.9717 11.9457 28.0117C22.0893 29.6439 29.3214 29.6439 37.3064 28.0117C38.0469 28.0117 38.1265 28.4151 37.8617 28.4926Z" fill="url(#paint11_linear)" stroke="#ABACAE" stroke-opacity="0.3"/>
<ellipse cx="22" cy="25.5" rx="1" ry="1.5" fill="black" fill-opacity="0.15"/>
<ellipse cx="22" cy="25.5" rx="1" ry="1.5" stroke="black" stroke-opacity="0.15"/>
<ellipse cx="22" cy="25.5" rx="1" ry="1.5" stroke="black" stroke-opacity="0.07"/>
<ellipse cx="27" cy="25.5" rx="1" ry="1.5" fill="black" fill-opacity="0.15"/>
<ellipse cx="27" cy="25.5" rx="1" ry="1.5" stroke="black" stroke-opacity="0.15"/>
<ellipse cx="27" cy="25.5" rx="1" ry="1.5" stroke="black" stroke-opacity="0.07"/>
<ellipse cx="22" cy="24.5" rx="1" ry="1.5" fill="url(#paint12_linear)" stroke="black" stroke-opacity="0.7"/>
<ellipse cx="27" cy="24.5" rx="1" ry="1.5" fill="url(#paint13_linear)" stroke="black" stroke-opacity="0.7"/>
<ellipse cx="33.7942" cy="14.8465" rx="0.637722" ry="0.797153" transform="rotate(21.766 33.7942 14.8465)" fill="white"/>
<ellipse rx="0.658155" ry="0.862921" transform="matrix(0.825149 0.564915 -0.484261 0.874924 14.1357 14.9601)" fill="white"/>
<ellipse cx="34.5082" cy="15.681" rx="0.318861" ry="0.28316" transform="rotate(-40.5787 34.5082 15.681)" fill="white"/>
<ellipse rx="0.334462" ry="0.301891" transform="matrix(0.724085 -0.689711 0.610134 0.792299 14.8496 15.8883)" fill="white"/>
<path opacity="0.366162" fill-rule="evenodd" clip-rule="evenodd" d="M35.7643 14.5184C35.9574 14.834 36.0493 15.2028 35.9958 15.5639C35.8773 16.3633 35.0965 16.8269 34.253 16.6002C33.4095 16.3734 32.8232 15.5424 32.9416 14.7429C32.9901 14.4157 33.1489 14.144 33.378 13.9535C32.9614 14.1725 32.6608 14.5697 32.5852 15.0801C32.4428 16.0409 33.1491 17.0403 34.1629 17.3128C35.1766 17.5853 36.1137 17.0277 36.2561 16.0668C36.3377 15.5156 36.1392 14.9506 35.7643 14.5184Z" fill="url(#paint14_radial)"/>
<path opacity="0.366162" fill-rule="evenodd" clip-rule="evenodd" d="M15.7698 14.2503C15.9574 14.585 16.0438 14.9793 15.9861 15.3685C15.8584 16.2304 15.0779 16.7467 14.244 16.5226C13.41 16.2984 12.8389 15.4188 12.9666 14.5569C13.0189 14.2041 13.1799 13.9085 13.4096 13.6984C12.9935 13.9434 12.6903 14.3772 12.6087 14.9275C12.4552 15.9634 13.1432 17.0211 14.1455 17.2905C15.1477 17.5599 16.0844 16.9389 16.2379 15.9031C16.326 15.3087 16.1362 14.7062 15.7698 14.2503Z" fill="url(#paint15_radial)"/>
<ellipse cx="21.9539" cy="24.2949" rx="0.353488" ry="0.620497" transform="rotate(14.7818 21.9539 24.2949)" fill="white"/>
<ellipse cx="26.9539" cy="24.2949" rx="0.353488" ry="0.620497" transform="rotate(14.7818 26.9539 24.2949)" fill="white"/>
<g filter="url(#filter1_f)">
<ellipse cx="37" cy="24" rx="3" ry="2" fill="#9BDB4D"/>
</g>
<g filter="url(#filter2_f)">
<ellipse cx="12.5" cy="24" rx="3.5" ry="2" fill="#9BDB4D"/>
</g>
<g opacity="0.4" filter="url(#filter3_f)">
<path d="M44 28C43.0313 28 40.6723 30.6852 41.0382 33.4197C41.5604 37.3218 43.5735 33.4197 44 28Z" fill="url(#paint16_radial)"/>
</g>
<g opacity="0.4" filter="url(#filter4_f)">
<path d="M4.00001 28C5.29155 28 8.43698 30.6852 7.94906 33.4197C7.25279 37.3218 4.56871 33.4197 4.00001 28Z" fill="url(#paint17_radial)"/>
</g>
<defs>
<filter id="filter0_i" x="3.5" y="0.501099" width="42" height="40.9989" filterUnits="userSpaceOnUse" color-interpolation-filters="sRGB">
<feFlood flood-opacity="0" result="BackgroundImageFix"/>
<feBlend mode="normal" in="SourceGraphic" in2="BackgroundImageFix" result="shape"/>
<feColorMatrix in="SourceAlpha" type="matrix" values="0 0 0 0 0 0 0 0 0 0 0 0 0 0 0 0 0 0 127 0" result="hardAlpha"/>
<feOffset dy="-6"/>
<feGaussianBlur stdDeviation="10"/>
<feComposite in2="hardAlpha" operator="arithmetic" k2="-1" k3="1"/>
<feColorMatrix type="matrix" values="0 0 0 0 0 0 0 0 0 0.45098 0 0 0 0 0.403922 0 0 0 0.15 0"/>
<feBlend mode="normal" in2="shape" result="effect1_innerShadow"/>
</filter>
<filter id="filter1_f" x="28" y="16" width="18" height="16" filterUnits="userSpaceOnUse" color-interpolation-filters="sRGB">
<feFlood flood-opacity="0" result="BackgroundImageFix"/>
<feBlend mode="normal" in="SourceGraphic" in2="BackgroundImageFix" result="shape"/>
<feGaussianBlur stdDeviation="3" result="effect1_foregroundBlur"/>
</filter>
<filter id="filter2_f" x="3" y="16" width="19" height="16" filterUnits="userSpaceOnUse" color-interpolation-filters="sRGB">
<feFlood flood-opacity="0" result="BackgroundImageFix"/>
<feBlend mode="normal" in="SourceGraphic" in2="BackgroundImageFix" result="shape"/>
<feGaussianBlur stdDeviation="3" result="effect1_foregroundBlur"/>
</filter>
<filter id="filter3_f" x="39" y="26" width="6.99999" height="11" filterUnits="userSpaceOnUse" color-interpolation-filters="sRGB">
<feFlood flood-opacity="0" result="BackgroundImageFix"/>
<feBlend mode="normal" in="SourceGraphic" in2="BackgroundImageFix" result="shape"/>
<feGaussianBlur stdDeviation="1" result="effect1_foregroundBlur"/>
</filter>
<filter id="filter4_f" x="2" y="26" width="7.99999" height="11" filterUnits="userSpaceOnUse" color-interpolation-filters="sRGB">
<feFlood flood-opacity="0" result="BackgroundImageFix"/>
<feBlend mode="normal" in="SourceGraphic" in2="BackgroundImageFix" result="shape"/>
<feGaussianBlur stdDeviation="1" result="effect1_foregroundBlur"/>
</filter>
<radialGradient id="paint0_radial" cx="0" cy="0" r="1" gradientUnits="userSpaceOnUse" gradientTransform="translate(25 39.1875) scale(15.375 4.3125)">
<stop/>
<stop offset="1" stop-opacity="0"/>
</radialGradient>
<radialGradient id="paint1_radial" cx="0" cy="0" r="1" gradientUnits="userSpaceOnUse" gradientTransform="translate(25 39.5625) scale(12.5598 3.25209)">
<stop/>
<stop offset="1" stop-opacity="0"/>
</radialGradient>
<linearGradient id="paint2_linear" x1="24.6916" y1="4.98925" x2="24.6916" y2="48.8602" gradientUnits="userSpaceOnUse">
<stop stop-color="#9BDB4D"/>
<stop offset="1" stop-color="#28BCA3"/>
</linearGradient>
<linearGradient id="paint3_linear" x1="24.5" y1="7" x2="24.5" y2="41" gradientUnits="userSpaceOnUse">
<stop stop-color="#206B00" stop-opacity="0.8"/>
<stop offset="1" stop-color="#007367" stop-opacity="0.8"/>
</linearGradient>
<linearGradient id="paint4_linear" x1="24.5" y1="7" x2="24.5" y2="41" gradientUnits="userSpaceOnUse">
<stop stop-color="#FAFAFA"/>
<stop offset="1" stop-color="#D4D4D4"/>
</linearGradient>
<linearGradient id="paint5_linear" x1="34.5" y1="10" x2="34.5" y2="26.0769" gradientUnits="userSpaceOnUse">
<stop stop-color="#FAFAFA"/>
<stop offset="1" stop-color="#D4D4D4"/>
</linearGradient>
<linearGradient id="paint6_linear" x1="34.5" y1="13" x2="34.5" y2="18" gradientUnits="userSpaceOnUse">
<stop stop-color="#333333"/>
<stop offset="1" stop-color="#1A1A1A"/>
</linearGradient>
<linearGradient id="paint7_linear" x1="14.5" y1="10" x2="14.5" y2="26.0769" gradientUnits="userSpaceOnUse">
<stop stop-color="#FAFAFA"/>
<stop offset="1" stop-color="#D4D4D4"/>
</linearGradient>
<linearGradient id="paint8_linear" x1="14.5" y1="13" x2="14.5" y2="18" gradientUnits="userSpaceOnUse">
<stop stop-color="#333333"/>
<stop offset="1" stop-color="#1A1A1A"/>
</linearGradient>
<linearGradient id="paint9_linear" x1="24.5" y1="27" x2="24.5" y2="38" gradientUnits="userSpaceOnUse">
<stop stop-color="#666666"/>
<stop offset="1" stop-color="#4D4D4D"/>
</linearGradient>
<linearGradient id="paint10_linear" x1="24.5" y1="33" x2="24.5" y2="37" gradientUnits="userSpaceOnUse">
<stop stop-color="#FF8C82"/>
<stop offset="1" stop-color="#ED5353"/>
</linearGradient>
<linearGradient id="paint11_linear" x1="24.5" y1="28" x2="24.5141" y2="33.1811" gradientUnits="userSpaceOnUse">
<stop stop-color="#FAFAFA"/>
<stop offset="1" stop-color="#D4D4D4"/>
</linearGradient>
<linearGradient id="paint12_linear" x1="22" y1="23" x2="22" y2="26" gradientUnits="userSpaceOnUse">
<stop stop-color="#4D4D4D"/>
<stop offset="1" stop-color="#333333"/>
</linearGradient>
<linearGradient id="paint13_linear" x1="27" y1="23" x2="27" y2="26" gradientUnits="userSpaceOnUse">
<stop stop-color="#4D4D4D"/>
<stop offset="1" stop-color="#333333"/>
</linearGradient>
<radialGradient id="paint14_radial" cx="0" cy="0" r="1" gradientUnits="userSpaceOnUse" gradientTransform="translate(35.205 15.8751) rotate(28.258) scale(5.01003 4.42625)">
<stop stop-color="#0C1143"/>
<stop offset="0.25" stop-color="#89FFDD" stop-opacity="0.74902"/>
<stop offset="0.5" stop-opacity="0.498039"/>
<stop offset="1" stop-color="#51FFBE" stop-opacity="0"/>
</radialGradient>
<radialGradient id="paint15_radial" cx="0" cy="0" r="1" gradientUnits="userSpaceOnUse" gradientTransform="translate(15.1976 15.7213) rotate(29.3724) scale(4.98912 4.7377)">
<stop stop-color="#0C1143"/>
<stop offset="0.25" stop-color="#89FFDD" stop-opacity="0.74902"/>
<stop offset="0.5" stop-opacity="0.498039"/>
<stop offset="1" stop-color="#51FFBE" stop-opacity="0"/>
</radialGradient>
<radialGradient id="paint16_radial" cx="0" cy="0" r="1" gradientUnits="userSpaceOnUse" gradientTransform="translate(42.3935 24.7482) rotate(89.3716) scale(12.3576 5.20096)">
<stop stop-color="white"/>
<stop offset="0.566246" stop-color="#D1FF82"/>
<stop offset="0.928025" stop-color="#9BDB4D"/>
</radialGradient>
<radialGradient id="paint17_radial" cx="0" cy="0" r="1" gradientUnits="userSpaceOnUse" gradientTransform="translate(6.14197 24.7482) rotate(90.8378) scale(12.3582 6.93429)">
<stop stop-color="white"/>
<stop offset="0.566246" stop-color="#D1FF82"/>
<stop offset="0.928025" stop-color="#9BDB4D"/>
</radialGradient>
</defs>
</svg>
