<svg width="48" height="48" viewBox="0 0 48 48" fill="none" xmlns="http://www.w3.org/2000/svg">
<g filter="url(#filter0_d)">
<rect x="9.375" y="5.25" width="29.25" height="37.875" rx="2.625" fill="#F1F1ED"/>
</g>
<rect x="12" y="15.75" width="24" height="3" fill="#DCDCDC"/>
<rect x="12" y="21.75" width="24" height="3" fill="#DCDCDC"/>
<rect x="12" y="27.75" width="24" height="3" fill="#DCDCDC"/>
<rect x="12" y="33.75" width="24" height="3" fill="#DCDCDC"/>
<rect x="12" y="9.75" width="24" height="3" fill="#DCDCDC"/>
<mask id="mask0" mask-type="alpha" maskUnits="userSpaceOnUse" x="14" y="13" width="20" height="20">
<circle cx="24" cy="23" r="10" fill="white"/>
<circle cx="24" cy="23" r="10" stroke="black"/>
</mask>
<g mask="url(#mask0)">
<path d="M12.2365 10.2457H13.2736V13.25H13.5724V10.2457H14.6096V9.97727H12.2365V10.2457ZM15.8596 13.3011C16.3518 13.3011 16.6826 13.0343 16.7944 12.7259L16.5244 12.638C16.4301 12.8585 16.208 13.0407 15.8596 13.0407C15.3578 13.0407 15.0398 12.6747 15.027 12.1074H16.8552V11.9668C16.8552 11.147 16.3486 10.7619 15.8165 10.7619C15.1804 10.7619 14.741 11.294 14.741 12.0371C14.741 12.7818 15.1725 13.3011 15.8596 13.3011ZM15.0286 11.8565C15.059 11.3995 15.3674 11.0208 15.8165 11.0208C16.2559 11.0208 16.5643 11.3835 16.5643 11.8565H15.0286ZM17.5918 10.7955H17.2627L18.0425 12.0227L17.2627 13.25H17.5918L18.2247 12.2369L18.8575 13.25H19.1883L18.3988 12.0227L19.1883 10.7955H18.8575L18.2247 11.8422L17.5918 10.7955ZM20.7515 10.7955H20.2322V10.2074H19.9461V10.7955H19.5802V11.0431H19.9461V12.6763C19.9461 13.0774 20.2625 13.2868 20.5773 13.2868C20.6956 13.2868 20.7755 13.2644 20.8298 13.2436L20.7691 12.9863C20.7291 12.9975 20.678 13.0087 20.6029 13.0087C20.4095 13.0087 20.2322 12.9176 20.2322 12.6092V11.0431H20.7515V10.7955ZM13.3679 19.3011C13.8601 19.3011 14.1909 19.0343 14.3027 18.7259L14.0327 18.638C13.9384 18.8585 13.7163 19.0407 13.3679 19.0407C12.8661 19.0407 12.5481 18.6747 12.5353 18.1074H14.3635V17.9668C14.3635 17.147 13.8569 16.7619 13.3248 16.7619C12.6887 16.7619 12.2493 17.294 12.2493 18.0371C12.2493 18.7818 12.6808 19.3011 13.3679 19.3011ZM12.5369 17.8565C12.5673 17.3995 12.8757 17.0208 13.3248 17.0208C13.7642 17.0208 14.0726 17.3835 14.0726 17.8565H12.5369ZM15.1001 16.7955H14.771L15.5508 18.0227L14.771 19.25H15.1001L15.733 18.2369L16.3658 19.25H16.6966L15.9071 18.0227L16.6966 16.7955H16.3658L15.733 17.8422L15.1001 16.7955ZM18.2598 16.7955H17.7405V16.2074H17.4544V16.7955H17.0885V17.0431H17.4544V18.6763C17.4544 19.0774 17.7708 19.2868 18.0856 19.2868C18.2039 19.2868 18.2838 19.2644 18.3381 19.2436L18.2774 18.9863C18.2374 18.9975 18.1863 19.0087 18.1112 19.0087C17.9178 19.0087 17.7405 18.9176 17.7405 18.6092V17.0431H18.2598V16.7955ZM18.9058 19.25H19.1903V17.6648C19.1903 17.3004 19.4699 17.0368 19.8534 17.0368C19.9285 17.0368 19.9988 17.0495 20.0244 17.0527V16.7635C19.9861 16.7619 19.9205 16.7587 19.8742 16.7587C19.5658 16.7587 19.3021 16.9249 19.203 17.1726H19.1823V16.7955H18.9058V19.25ZM21.1954 19.3059C21.6044 19.3059 21.8537 19.079 21.956 18.8617H21.9736V19.25H22.258V17.5833C22.258 16.9249 21.7627 16.7619 21.3871 16.7619C21.0116 16.7619 20.6249 16.9105 20.4587 17.3116L20.7287 17.4091C20.8182 17.1982 21.0403 17.0176 21.3951 17.0176C21.7674 17.0176 21.9736 17.2221 21.9736 17.5577V17.6152C21.9736 17.8006 21.7435 17.8038 21.3312 17.8549C20.7767 17.9237 20.3884 18.0787 20.3884 18.5645C20.3884 19.0375 20.7495 19.3059 21.1954 19.3059ZM21.2337 19.0455C20.9125 19.0455 20.6728 18.8745 20.6728 18.5772C20.6728 18.28 20.9157 18.1554 21.3312 18.1042C21.5325 18.0803 21.8905 18.0355 21.9736 17.954V18.3088C21.9736 18.7115 21.6875 19.0455 21.2337 19.0455ZM23.9735 19.3011C24.4849 19.3011 24.8444 18.9783 24.9099 18.5341H24.6223C24.5568 18.8473 24.2995 19.0407 23.9735 19.0407C23.4925 19.0407 23.1745 18.622 23.1745 18.0243C23.1745 17.4299 23.5021 17.0208 23.9735 17.0208C24.3235 17.0208 24.56 17.2461 24.6207 17.5241H24.9083C24.8412 17.0687 24.4609 16.7619 23.9687 16.7619C23.3263 16.7619 22.8884 17.2956 22.8884 18.0339C22.8884 18.7658 23.3135 19.3011 23.9735 19.3011ZM26.4864 16.7955H25.967V16.2074H25.681V16.7955H25.315V17.0431H25.681V18.6763C25.681 19.0774 25.9974 19.2868 26.3122 19.2868C26.4304 19.2868 26.5103 19.2644 26.5647 19.2436L26.504 18.9863C26.464 18.9975 26.4129 19.0087 26.3378 19.0087C26.1444 19.0087 25.967 18.9176 25.967 18.6092V17.0431H26.4864V16.7955ZM27.1356 19.25H27.4216V16.7955H27.1356V19.25ZM27.281 16.3736C27.3976 16.3736 27.4951 16.2809 27.4951 16.169C27.4951 16.0572 27.3976 15.9645 27.281 15.9645C27.1643 15.9645 27.0684 16.0572 27.0684 16.169C27.0684 16.2809 27.1643 16.3736 27.281 16.3736ZM29.1279 19.3011C29.7639 19.3011 30.2081 18.7818 30.2081 18.0339C30.2081 17.2812 29.7639 16.7619 29.1279 16.7619C28.4919 16.7619 28.0476 17.2812 28.0476 18.0339C28.0476 18.7818 28.4919 19.3011 29.1279 19.3011ZM29.1279 19.0407C28.6181 19.0407 28.3337 18.5836 28.3337 18.0339C28.3337 17.4842 28.6181 17.0208 29.1279 17.0208C29.6377 17.0208 29.9221 17.4842 29.9221 18.0339C29.9221 18.5836 29.6377 19.0407 29.1279 19.0407ZM31.117 17.7159C31.117 17.2876 31.3983 17.024 31.785 17.024C32.1621 17.024 32.405 17.2765 32.405 17.6776V19.25H32.6895V17.66C32.6895 17.0783 32.3523 16.7635 31.8569 16.7635C31.4973 16.7635 31.2496 16.9297 31.1346 17.1806H31.109V16.7955H30.8326V19.25H31.117V17.7159ZM13.3423 22.7955H12.823V22.2074H12.5369V22.7955H12.171V23.0431H12.5369V24.6763C12.5369 25.0774 12.8533 25.2868 13.1681 25.2868C13.2864 25.2868 13.3663 25.2644 13.4206 25.2436L13.3599 24.9863C13.32 24.9975 13.2688 25.0087 13.1937 25.0087C13.0004 25.0087 12.823 24.9176 12.823 24.6092V23.0431H13.3423V22.7955ZM14.916 25.3011C15.552 25.3011 15.9962 24.7818 15.9962 24.0339C15.9962 23.2812 15.552 22.7619 14.916 22.7619C14.28 22.7619 13.8357 23.2812 13.8357 24.0339C13.8357 24.7818 14.28 25.3011 14.916 25.3011ZM14.916 25.0407C14.4062 25.0407 14.1218 24.5836 14.1218 24.0339C14.1218 23.4842 14.4062 23.0208 14.916 23.0208C15.4257 23.0208 15.7102 23.4842 15.7102 24.0339C15.7102 24.5836 15.4257 25.0407 14.916 25.0407ZM17.5747 25.3011C18.2107 25.3011 18.6549 24.7818 18.6549 24.0339C18.6549 23.2812 18.2107 22.7619 17.5747 22.7619C16.9387 22.7619 16.4944 23.2812 16.4944 24.0339C16.4944 24.7818 16.9387 25.3011 17.5747 25.3011ZM17.5747 25.0407C17.0649 25.0407 16.7805 24.5836 16.7805 24.0339C16.7805 23.4842 17.0649 23.0208 17.5747 23.0208C18.0844 23.0208 18.3689 23.4842 18.3689 24.0339C18.3689 24.5836 18.0844 25.0407 17.5747 25.0407ZM19.5638 21.9773H19.2793V25.25H19.5638V21.9773ZM22.592 22.7955H22.0487V22.495C22.0487 22.2377 22.1877 22.0939 22.4354 22.0939C22.5297 22.0939 22.5872 22.1147 22.6304 22.1291L22.7135 21.8798C22.6559 21.8558 22.5601 21.8255 22.4098 21.8255C22.0759 21.8255 21.7627 22.0396 21.7627 22.4359V22.7955H21.3855V23.0431H21.7627V25.25H22.0471L22.0487 23.0431H22.592V22.7955ZM24.0127 25.3011C24.6487 25.3011 25.0929 24.7818 25.0929 24.0339C25.0929 23.2812 24.6487 22.7619 24.0127 22.7619C23.3766 22.7619 22.9324 23.2812 22.9324 24.0339C22.9324 24.7818 23.3766 25.3011 24.0127 25.3011ZM24.0127 25.0407C23.5029 25.0407 23.2184 24.5836 23.2184 24.0339C23.2184 23.4842 23.5029 23.0208 24.0127 23.0208C24.5224 23.0208 24.8069 23.4842 24.8069 24.0339C24.8069 24.5836 24.5224 25.0407 24.0127 25.0407ZM25.7173 25.25H26.0018V23.6648C26.0018 23.3004 26.2814 23.0368 26.665 23.0368C26.7401 23.0368 26.8104 23.0495 26.8359 23.0527V22.7635C26.7976 22.7619 26.7321 22.7587 26.6857 22.7587C26.3773 22.7587 26.1136 22.9249 26.0146 23.1726H25.9938V22.7955H25.7173V25.25ZM13.3679 31.3011C13.8601 31.3011 14.1909 31.0343 14.3027 30.7259L14.0327 30.638C13.9384 30.8585 13.7163 31.0407 13.3679 31.0407C12.8661 31.0407 12.5481 30.6747 12.5353 30.1074H14.3635V29.9668C14.3635 29.147 13.8569 28.7619 13.3248 28.7619C12.6887 28.7619 12.2493 29.294 12.2493 30.0371C12.2493 30.7818 12.6808 31.3011 13.3679 31.3011ZM12.5369 29.8565C12.5673 29.3995 12.8757 29.0208 13.3248 29.0208C13.7642 29.0208 14.0726 29.3835 14.0726 29.8565H12.5369ZM15.2747 27.9773H14.9903V31.25H15.2747V27.9773ZM17.0198 31.3011C17.5119 31.3011 17.8427 31.0343 17.9546 30.7259L17.6845 30.638C17.5902 30.8585 17.3681 31.0407 17.0198 31.0407C16.518 31.0407 16.2 30.6747 16.1872 30.1074H18.0153V29.9668C18.0153 29.147 17.5087 28.7619 16.9766 28.7619C16.3406 28.7619 15.9011 29.294 15.9011 30.0371C15.9011 30.7818 16.3326 31.3011 17.0198 31.3011ZM16.1888 29.8565C16.2191 29.3995 16.5276 29.0208 16.9766 29.0208C17.4161 29.0208 17.7245 29.3835 17.7245 29.8565H16.1888ZM18.6421 31.25H18.9266V29.6776C18.9266 29.2956 19.1807 29.024 19.521 29.024C19.8566 29.024 20.0516 29.2477 20.0516 29.5801V31.25H20.3424V29.6344C20.3424 29.2812 20.5534 29.024 20.9273 29.024C21.2517 29.024 21.4674 29.2189 21.4674 29.6056V31.25H21.7519V29.6056C21.7519 29.0559 21.469 28.7635 21.0136 28.7635C20.6556 28.7635 20.3968 28.9377 20.2865 29.2093H20.2657C20.157 28.9313 19.9413 28.7635 19.6025 28.7635C19.2813 28.7635 19.0416 28.9185 18.9442 29.1726H18.9186V28.7955H18.6421V31.25ZM23.4973 31.3011C23.9895 31.3011 24.3203 31.0343 24.4321 30.7259L24.1621 30.638C24.0678 30.8585 23.8457 31.0407 23.4973 31.0407C22.9955 31.0407 22.6775 30.6747 22.6647 30.1074H24.4929V29.9668C24.4929 29.147 23.9863 28.7619 23.4541 28.7619C22.8181 28.7619 22.3787 29.294 22.3787 30.0371C22.3787 30.7818 22.8101 31.3011 23.4973 31.3011ZM22.6663 29.8565C22.6967 29.3995 23.0051 29.0208 23.4541 29.0208C23.8936 29.0208 24.202 29.3835 24.202 29.8565H22.6663ZM25.4041 29.7159C25.4041 29.2876 25.6854 29.024 26.0721 29.024C26.4492 29.024 26.6921 29.2765 26.6921 29.6776V31.25H26.9766V29.66C26.9766 29.0783 26.6394 28.7635 26.144 28.7635C25.7844 28.7635 25.5368 28.9297 25.4217 29.1806H25.3961V28.7955H25.1197V31.25H25.4041V29.7159ZM28.6924 28.7955H28.1731V28.2074H27.887V28.7955H27.5211V29.0431H27.887V30.6763C27.887 31.0774 28.2034 31.2868 28.5182 31.2868C28.6365 31.2868 28.7164 31.2644 28.7707 31.2436L28.71 30.9863C28.6701 30.9975 28.6189 31.0087 28.5438 31.0087C28.3505 31.0087 28.1731 30.9176 28.1731 30.6092V29.0431H28.6924V28.7955ZM30.024 31.3059C30.4331 31.3059 30.6824 31.079 30.7846 30.8617H30.8022V31.25H31.0866V29.5833C31.0866 28.9249 30.5913 28.7619 30.2157 28.7619C29.8402 28.7619 29.4535 28.9105 29.2873 29.3116L29.5574 29.4091C29.6468 29.1982 29.869 29.0176 30.2237 29.0176C30.5961 29.0176 30.8022 29.2221 30.8022 29.5577V29.6152C30.8022 29.8006 30.5721 29.8038 30.1598 29.8549C29.6053 29.9237 29.217 30.0787 29.217 30.5645C29.217 31.0375 29.5781 31.3059 30.024 31.3059ZM30.0623 31.0455C29.7411 31.0455 29.5014 30.8745 29.5014 30.5772C29.5014 30.28 29.7443 30.1554 30.1598 30.1042C30.3612 30.0803 30.7191 30.0355 30.8022 29.954V30.3088C30.8022 30.7115 30.5162 31.0455 30.0623 31.0455ZM31.8433 31.25H32.1278V29.6648C32.1278 29.3004 32.4074 29.0368 32.7909 29.0368C32.866 29.0368 32.9363 29.0495 32.9619 29.0527V28.7635C32.9236 28.7619 32.858 28.7587 32.8117 28.7587C32.5033 28.7587 32.2396 28.9249 32.1405 29.1726H32.1198V28.7955H31.8433V31.25ZM33.7202 32.1705C34.027 32.1705 34.2523 31.9947 34.3833 31.6383L35.4237 28.8002L35.1136 28.7955L34.3849 30.8745H34.3626L33.6339 28.7955H33.3255L34.2283 31.274L34.1388 31.5233C34.003 31.894 33.8113 31.9595 33.522 31.8684L33.4453 32.1193C33.5028 32.1465 33.6083 32.1705 33.7202 32.1705ZM15.1177 35.6136C15.1177 34.5893 14.5297 33.9325 13.7019 33.9325C12.8757 33.9325 12.2876 34.5909 12.2876 35.6136C12.2876 36.6364 12.8741 37.2947 13.7019 37.2947C14.5297 37.2947 15.1177 36.638 15.1177 35.6136ZM14.8269 35.6136C14.8285 36.4941 14.3475 37.0135 13.7019 37.0135C13.0547 37.0135 12.5769 36.4909 12.5769 35.6136C12.5769 34.7315 13.0595 34.2138 13.7019 34.2138C14.3475 34.2138 14.8269 34.7331 14.8269 35.6136ZM17.6174 34.7955H17.9066C17.8843 34.2985 17.4544 33.9309 16.8456 33.9309C16.2415 33.9309 15.7765 34.2937 15.7765 34.821C15.7765 35.2413 16.0737 35.505 16.5867 35.6568L16.9782 35.7718C17.3841 35.8901 17.6622 36.0419 17.6622 36.3759C17.6622 36.769 17.3058 37.0327 16.8168 37.0327C16.3758 37.0327 16.0306 36.8201 15.9986 36.4318H15.6918C15.727 36.9496 16.1488 37.3059 16.8168 37.3059C17.5263 37.3059 17.9514 36.9048 17.9514 36.3807C17.9514 35.8374 17.4784 35.62 17.0629 35.5034L16.7177 35.4043C16.3997 35.3148 16.0657 35.1534 16.0657 34.8082C16.0657 34.4567 16.3805 34.1994 16.8376 34.1994C17.2706 34.1994 17.5807 34.4311 17.6174 34.7955ZM18.8383 37.274C18.9661 37.274 19.0684 37.1701 19.0684 37.0439C19.0684 36.916 18.9661 36.8137 18.8383 36.8137C18.712 36.8137 18.6082 36.916 18.6082 37.0439C18.6082 37.1701 18.712 37.274 18.8383 37.274ZM13.6747 39.9773V42.3375C13.6731 42.8121 13.4334 43.0263 13.0866 43.0263C12.7495 43.0263 12.497 42.8265 12.4986 42.5341H12.2045C12.2029 42.9959 12.5785 43.2947 13.0866 43.2947C13.606 43.2947 13.9719 42.9783 13.9735 42.3375V39.9773H13.6747ZM16.3434 42.312C16.3434 42.7626 16.0046 43.0055 15.6722 43.0055C15.3175 43.0055 15.0682 42.7514 15.0682 42.3679V40.7955H14.7837V42.3855C14.7837 42.9672 15.1193 43.282 15.5907 43.282C15.9503 43.282 16.206 43.095 16.321 42.8425H16.3434V43.25H16.6278V40.7955H16.3434V42.312ZM19.0301 41.334C18.9102 40.9792 18.6481 40.7619 18.1991 40.7619C17.7037 40.7619 17.3441 41.0447 17.3441 41.449C17.3441 41.7782 17.5439 42.002 17.9706 42.1042L18.3717 42.2001C18.6417 42.264 18.7712 42.4031 18.7712 42.5996C18.7712 42.8553 18.5267 43.0455 18.1495 43.0455C17.814 43.0455 17.6046 42.8936 17.5359 42.6028L17.2627 42.6699C17.3489 43.079 17.6733 43.3011 18.1543 43.3011C18.6945 43.3011 19.0652 43.0039 19.0652 42.5868C19.0652 42.2592 18.8591 42.0403 18.4484 41.9396L18.0776 41.8485C17.7724 41.7718 17.6302 41.6488 17.6302 41.4363C17.6302 41.187 17.8683 41.0128 18.1991 41.0128C18.5299 41.0128 18.6929 41.187 18.7696 41.4075L19.0301 41.334ZM20.6548 40.7955H20.1355V40.2074H19.8494V40.7955H19.4835V41.0431H19.8494V42.6763C19.8494 43.0774 20.1658 43.2868 20.4806 43.2868C20.5989 43.2868 20.6788 43.2644 20.7331 43.2436L20.6724 42.9863C20.6325 42.9975 20.5813 43.0087 20.5062 43.0087C20.3129 43.0087 20.1355 42.9176 20.1355 42.6092V41.0431H20.6548V40.7955ZM23.5029 44.2216C24.0846 44.2216 24.516 43.9371 24.516 43.3139V40.7955H24.238V41.2637H24.2092C24.1085 41.0431 23.9056 40.7619 23.4549 40.7619C22.8477 40.7619 22.4402 41.2701 22.4402 42.0163C22.4402 42.769 22.8621 43.2244 23.4502 43.2244C23.8912 43.2244 24.1069 42.9688 24.2044 42.7434H24.23V43.2963C24.23 43.7534 23.9375 43.9659 23.5029 43.9659C23.0826 43.9659 22.8813 43.763 22.7774 43.576L22.5441 43.7294C22.6879 44.0107 23.0011 44.2216 23.5029 44.2216ZM23.4837 42.964C22.9963 42.964 22.7263 42.574 22.7263 42.0115C22.7263 41.4586 22.9915 41.0208 23.4837 41.0208C23.9647 41.0208 24.2348 41.4363 24.2348 42.0115C24.2348 42.6044 23.9567 42.964 23.4837 42.964ZM25.2691 43.25H25.5535V41.6648C25.5535 41.3004 25.8332 41.0368 26.2167 41.0368C26.2918 41.0368 26.3621 41.0495 26.3877 41.0527V40.7635C26.3493 40.7619 26.2838 40.7587 26.2375 40.7587C25.9291 40.7587 25.6654 40.9249 25.5663 41.1726H25.5455V40.7955H25.2691V43.25ZM27.5586 43.3059C27.9677 43.3059 28.217 43.079 28.3193 42.8617H28.3369V43.25H28.6213V41.5833C28.6213 40.9249 28.1259 40.7619 27.7504 40.7619C27.3749 40.7619 26.9881 40.9105 26.822 41.3116L27.092 41.4091C27.1815 41.1982 27.4036 41.0176 27.7584 41.0176C28.1307 41.0176 28.3369 41.2221 28.3369 41.5577V41.6152C28.3369 41.8006 28.1068 41.8038 27.6945 41.8549C27.14 41.9237 26.7516 42.0787 26.7516 42.5645C26.7516 43.0375 27.1128 43.3059 27.5586 43.3059ZM27.597 43.0455C27.2758 43.0455 27.0361 42.8745 27.0361 42.5772C27.0361 42.28 27.279 42.1554 27.6945 42.1042C27.8958 42.0803 28.2538 42.0355 28.3369 41.954V42.3088C28.3369 42.7115 28.0508 43.0455 27.597 43.0455ZM29.4371 43.25H29.7136V42.7946H29.7487C29.8478 43.0199 30.0555 43.3011 30.503 43.3011C31.1054 43.3011 31.5129 42.7914 31.5129 42.0291C31.5129 41.2733 31.1038 40.7619 30.4982 40.7619C30.0491 40.7619 29.8462 41.0431 29.7487 41.2637H29.7231V39.9773H29.4371V43.25ZM29.7184 42.0243C29.7184 41.4363 29.9884 41.0208 30.4678 41.0208C30.96 41.0208 31.2269 41.4586 31.2269 42.0243C31.2269 42.5964 30.9568 43.0407 30.4678 43.0407C29.9916 43.0407 29.7184 42.6172 29.7184 42.0243ZM13.3423 46.7955H12.823V46.2074H12.5369V46.7955H12.171V47.0431H12.5369V48.6763C12.5369 49.0774 12.8533 49.2868 13.1681 49.2868C13.2864 49.2868 13.3663 49.2644 13.4206 49.2436L13.3599 48.9863C13.32 48.9975 13.2688 49.0087 13.1937 49.0087C13.0004 49.0087 12.823 48.9176 12.823 48.6092V47.0431H13.3423V46.7955ZM14.3255 47.7159C14.3255 47.2876 14.6131 47.024 15.0063 47.024C15.3866 47.024 15.6295 47.2733 15.6295 47.6776V49.25H15.9155V47.66C15.9155 47.0751 15.5767 46.7635 15.0782 46.7635C14.7074 46.7635 14.4661 46.9265 14.3511 47.1806H14.3255V45.9773H14.0411V49.25H14.3255V47.7159ZM17.657 49.3011C18.1491 49.3011 18.4799 49.0343 18.5918 48.7259L18.3217 48.638C18.2275 48.8585 18.0053 49.0407 17.657 49.0407C17.1552 49.0407 16.8372 48.6747 16.8244 48.1074H18.6525V47.9668C18.6525 47.147 18.146 46.7619 17.6138 46.7619C16.9778 46.7619 16.5384 47.294 16.5384 48.0371C16.5384 48.7818 16.9698 49.3011 17.657 49.3011ZM16.826 47.8565C16.8564 47.3995 17.1648 47.0208 17.6138 47.0208C18.0533 47.0208 18.3617 47.3835 18.3617 47.8565H16.826ZM21.2305 49.3059C21.6396 49.3059 21.8889 49.079 21.9912 48.8617H22.0087V49.25H22.2932V47.5833C22.2932 46.9249 21.7978 46.7619 21.4223 46.7619C21.0467 46.7619 20.66 46.9105 20.4938 47.3116L20.7639 47.4091C20.8534 47.1982 21.0755 47.0176 21.4303 47.0176C21.8026 47.0176 22.0087 47.2221 22.0087 47.5577V47.6152C22.0087 47.8006 21.7786 47.8038 21.3663 47.8549C20.8118 47.9237 20.4235 48.0787 20.4235 48.5645C20.4235 49.0375 20.7847 49.3059 21.2305 49.3059ZM21.2689 49.0455C20.9477 49.0455 20.708 48.8745 20.708 48.5772C20.708 48.28 20.9509 48.1554 21.3663 48.1042C21.5677 48.0803 21.9256 48.0355 22.0087 47.954V48.3088C22.0087 48.7115 21.7227 49.0455 21.2689 49.0455ZM23.0498 49.25H23.3343V47.6648C23.3343 47.3004 23.6139 47.0368 23.9975 47.0368C24.0726 47.0368 24.1429 47.0495 24.1685 47.0527V46.7635C24.1301 46.7619 24.0646 46.7587 24.0182 46.7587C23.7098 46.7587 23.4462 46.9249 23.3471 47.1726H23.3263V46.7955H23.0498V49.25ZM25.5715 49.3011C26.0637 49.3011 26.3945 49.0343 26.5063 48.7259L26.2363 48.638C26.142 48.8585 25.9199 49.0407 25.5715 49.0407C25.0697 49.0407 24.7517 48.6747 24.7389 48.1074H26.5671V47.9668C26.5671 47.147 26.0605 46.7619 25.5284 46.7619C24.8924 46.7619 24.4529 47.294 24.4529 48.0371C24.4529 48.7818 24.8844 49.3011 25.5715 49.3011ZM24.7405 47.8565C24.7709 47.3995 25.0793 47.0208 25.5284 47.0208C25.9678 47.0208 26.2762 47.3835 26.2762 47.8565H24.7405ZM27.8794 49.3059C28.2885 49.3059 28.5378 49.079 28.6401 48.8617H28.6577V49.25H28.9421V47.5833C28.9421 46.9249 28.4467 46.7619 28.0712 46.7619C27.6957 46.7619 27.3089 46.9105 27.1428 47.3116L27.4128 47.4091C27.5023 47.1982 27.7244 47.0176 28.0792 47.0176C28.4515 47.0176 28.6577 47.2221 28.6577 47.5577V47.6152C28.6577 47.8006 28.4276 47.8038 28.0153 47.8549C27.4608 47.9237 27.0724 48.0787 27.0724 48.5645C27.0724 49.0375 27.4336 49.3059 27.8794 49.3059ZM27.9178 49.0455C27.5966 49.0455 27.3569 48.8745 27.3569 48.5772C27.3569 48.28 27.5998 48.1554 28.0153 48.1042C28.2166 48.0803 28.5746 48.0355 28.6577 47.954V48.3088C28.6577 48.7115 28.3716 49.0455 27.9178 49.0455ZM12.9205 55.25H13.2145L13.7962 53.2381H13.8265L14.4082 55.25H14.7022L15.4437 52.7955H15.1433L14.5616 54.8153H14.5392L13.964 52.7955H13.6619L13.0819 54.8201H13.0611L12.4794 52.7955H12.179L12.9205 55.25ZM15.9998 55.25H16.2859V52.7955H15.9998V55.25ZM16.1452 52.3736C16.2619 52.3736 16.3594 52.2809 16.3594 52.169C16.3594 52.0572 16.2619 51.9645 16.1452 51.9645C16.0286 51.9645 15.9327 52.0572 15.9327 52.169C15.9327 52.2809 16.0286 52.3736 16.1452 52.3736ZM18.0049 52.7955H17.4856V52.2074H17.1995V52.7955H16.8336V53.0431H17.1995V54.6763C17.1995 55.0774 17.5159 55.2868 17.8307 55.2868C17.949 55.2868 18.0289 55.2644 18.0832 55.2436L18.0225 54.9863C17.9826 54.9975 17.9314 55.0087 17.8563 55.0087C17.663 55.0087 17.4856 54.9176 17.4856 54.6092V53.0431H18.0049V52.7955ZM18.9881 53.7159C18.9881 53.2876 19.2757 53.024 19.6689 53.024C20.0492 53.024 20.2921 53.2733 20.2921 53.6776V55.25H20.5781V53.66C20.5781 53.0751 20.2393 52.7635 19.7408 52.7635C19.37 52.7635 19.1287 52.9265 19.0137 53.1806H18.9881V51.9773H18.7037V55.25H18.9881V53.7159ZM23.5596 52.7955H23.0403V52.2074H22.7542V52.7955H22.3883V53.0431H22.7542V54.6763C22.7542 55.0774 23.0706 55.2868 23.3854 55.2868C23.5037 55.2868 23.5836 55.2644 23.6379 55.2436L23.5772 54.9863C23.5372 54.9975 23.4861 55.0087 23.411 55.0087C23.2176 55.0087 23.0403 54.9176 23.0403 54.6092V53.0431H23.5596V52.7955ZM24.5428 53.7159C24.5428 53.2876 24.8304 53.024 25.2235 53.024C25.6039 53.024 25.8468 53.2733 25.8468 53.6776V55.25H26.1328V53.66C26.1328 53.0751 25.794 52.7635 25.2955 52.7635C24.9247 52.7635 24.6834 52.9265 24.5684 53.1806H24.5428V51.9773H24.2583V55.25H24.5428V53.7159ZM27.8742 55.3011C28.3664 55.3011 28.6972 55.0343 28.8091 54.7259L28.539 54.638C28.4447 54.8585 28.2226 55.0407 27.8742 55.0407C27.3725 55.0407 27.0545 54.6747 27.0417 54.1074H28.8698V53.9668C28.8698 53.147 28.3632 52.7619 27.8311 52.7619C27.1951 52.7619 26.7556 53.294 26.7556 54.0371C26.7556 54.7818 27.1871 55.3011 27.8742 55.3011ZM27.0433 53.8565C27.0736 53.3995 27.3821 53.0208 27.8311 53.0208C28.2706 53.0208 28.579 53.3835 28.579 53.8565H27.0433ZM13.3423 58.7955H12.823V58.2074H12.5369V58.7955H12.171V59.0431H12.5369V60.6763C12.5369 61.0774 12.8533 61.2868 13.1681 61.2868C13.2864 61.2868 13.3663 61.2644 13.4206 61.2436L13.3599 60.9863C13.32 60.9975 13.2688 61.0087 13.1937 61.0087C13.0004 61.0087 12.823 60.9176 12.823 60.6092V59.0431H13.3423V58.7955ZM14.9543 61.3011C15.4465 61.3011 15.7773 61.0343 15.8892 60.7259L15.6191 60.638C15.5248 60.8585 15.3027 61.0407 14.9543 61.0407C14.4525 61.0407 14.1345 60.6747 14.1218 60.1074H15.9499V59.9668C15.9499 59.147 15.4433 58.7619 14.9112 58.7619C14.2752 58.7619 13.8357 59.294 13.8357 60.0371C13.8357 60.7818 14.2672 61.3011 14.9543 61.3011ZM14.1234 59.8565C14.1537 59.3995 14.4621 59.0208 14.9112 59.0208C15.3506 59.0208 15.659 59.3835 15.659 59.8565H14.1234ZM16.6866 58.7955H16.3574L17.1372 60.0227L16.3574 61.25H16.6866L17.3194 60.2369L17.9522 61.25H18.283L17.4936 60.0227L18.283 58.7955H17.9522L17.3194 59.8422L16.6866 58.7955ZM19.8462 58.7955H19.3269V58.2074H19.0408V58.7955H18.6749V59.0431H19.0408V60.6763C19.0408 61.0774 19.3572 61.2868 19.6721 61.2868C19.7903 61.2868 19.8702 61.2644 19.9245 61.2436L19.8638 60.9863C19.8239 60.9975 19.7727 61.0087 19.6976 61.0087C19.5043 61.0087 19.3269 60.9176 19.3269 60.6092V59.0431H19.8462V58.7955ZM21.956 62.1705C22.2628 62.1705 22.4881 61.9947 22.6192 61.6383L23.6595 58.8002L23.3495 58.7955L22.6208 60.8745H22.5984L21.8697 58.7955H21.5613L22.4642 61.274L22.3747 61.5233C22.2389 61.894 22.0471 61.9595 21.7579 61.8684L21.6812 62.1193C21.7387 62.1465 21.8441 62.1705 21.956 62.1705ZM25.0805 61.3011C25.7165 61.3011 26.1608 60.7818 26.1608 60.0339C26.1608 59.2812 25.7165 58.7619 25.0805 58.7619C24.4445 58.7619 24.0003 59.2812 24.0003 60.0339C24.0003 60.7818 24.4445 61.3011 25.0805 61.3011ZM25.0805 61.0407C24.5708 61.0407 24.2863 60.5836 24.2863 60.0339C24.2863 59.4842 24.5708 59.0208 25.0805 59.0208C25.5903 59.0208 25.8747 59.4842 25.8747 60.0339C25.8747 60.5836 25.5903 61.0407 25.0805 61.0407ZM28.3449 60.312C28.3449 60.7626 28.0061 61.0055 27.6737 61.0055C27.3189 61.0055 27.0696 60.7514 27.0696 60.3679V58.7955H26.7852V60.3855C26.7852 60.9672 27.1208 61.282 27.5922 61.282C27.9517 61.282 28.2074 61.095 28.3225 60.8425H28.3449V61.25H28.6293V58.7955H28.3449V60.312ZM12.9205 67.25H13.2145L13.7962 65.2381H13.8265L14.4082 67.25H14.7022L15.4437 64.7955H15.1433L14.5616 66.8153H14.5392L13.964 64.7955H13.6619L13.0819 66.8201H13.0611L12.4794 64.7955H12.179L12.9205 67.25ZM15.9998 67.25H16.2859V64.7955H15.9998V67.25ZM16.1452 64.3736C16.2619 64.3736 16.3594 64.2809 16.3594 64.169C16.3594 64.0572 16.2619 63.9645 16.1452 63.9645C16.0286 63.9645 15.9327 64.0572 15.9327 64.169C15.9327 64.2809 16.0286 64.3736 16.1452 64.3736ZM18.0049 64.7955H17.4856V64.2074H17.1995V64.7955H16.8336V65.0431H17.1995V66.6763C17.1995 67.0774 17.5159 67.2868 17.8307 67.2868C17.949 67.2868 18.0289 67.2644 18.0832 67.2436L18.0225 66.9863C17.9826 66.9975 17.9314 67.0087 17.8563 67.0087C17.663 67.0087 17.4856 66.9176 17.4856 66.6092V65.0431H18.0049V64.7955ZM18.9881 65.7159C18.9881 65.2876 19.2757 65.024 19.6689 65.024C20.0492 65.024 20.2921 65.2733 20.2921 65.6776V67.25H20.5781V65.66C20.5781 65.0751 20.2393 64.7635 19.7408 64.7635C19.37 64.7635 19.1287 64.9265 19.0137 65.1806H18.9881V63.9773H18.7037V67.25H18.9881V65.7159ZM23.5596 64.7955H23.0403V64.2074H22.7542V64.7955H22.3883V65.0431H22.7542V66.6763C22.7542 67.0774 23.0706 67.2868 23.3854 67.2868C23.5037 67.2868 23.5836 67.2644 23.6379 67.2436L23.5772 66.9863C23.5372 66.9975 23.4861 67.0087 23.411 67.0087C23.2176 67.0087 23.0403 66.9176 23.0403 66.6092V65.0431H23.5596V64.7955ZM25.1333 67.3011C25.7693 67.3011 26.2135 66.7818 26.2135 66.0339C26.2135 65.2812 25.7693 64.7619 25.1333 64.7619C24.4972 64.7619 24.053 65.2812 24.053 66.0339C24.053 66.7818 24.4972 67.3011 25.1333 67.3011ZM25.1333 67.0407C24.6235 67.0407 24.339 66.5836 24.339 66.0339C24.339 65.4842 24.6235 65.0208 25.1333 65.0208C25.643 65.0208 25.9275 65.4842 25.9275 66.0339C25.9275 66.5836 25.643 67.0407 25.1333 67.0407ZM28.1627 67.25H28.4391V66.7946H28.4743C28.5734 67.0199 28.7811 67.3011 29.2286 67.3011C29.831 67.3011 30.2385 66.7914 30.2385 66.0291C30.2385 65.2733 29.8294 64.7619 29.2238 64.7619C28.7747 64.7619 28.5718 65.0431 28.4743 65.2637H28.4487V63.9773H28.1627V67.25ZM28.4439 66.0243C28.4439 65.4363 28.714 65.0208 29.1934 65.0208C29.6856 65.0208 29.9525 65.4586 29.9525 66.0243C29.9525 66.5964 29.6824 67.0407 29.1934 67.0407C28.7172 67.0407 28.4439 66.6172 28.4439 66.0243ZM31.8557 67.3011C32.3479 67.3011 32.6787 67.0343 32.7905 66.7259L32.5205 66.638C32.4262 66.8585 32.2041 67.0407 31.8557 67.0407C31.3539 67.0407 31.0359 66.6747 31.0231 66.1074H32.8513V65.9668C32.8513 65.147 32.3447 64.7619 31.8125 64.7619C31.1765 64.7619 30.7371 65.294 30.7371 66.0371C30.7371 66.7818 31.1685 67.3011 31.8557 67.3011ZM31.0247 65.8565C31.0551 65.3995 31.3635 65.0208 31.8125 65.0208C32.252 65.0208 32.5604 65.3835 32.5604 65.8565H31.0247ZM13.3679 73.3011C13.8601 73.3011 14.1909 73.0343 14.3027 72.7259L14.0327 72.638C13.9384 72.8585 13.7163 73.0407 13.3679 73.0407C12.8661 73.0407 12.5481 72.6747 12.5353 72.1074H14.3635V71.9668C14.3635 71.147 13.8569 70.7619 13.3248 70.7619C12.6887 70.7619 12.2493 71.294 12.2493 72.0371C12.2493 72.7818 12.6808 73.3011 13.3679 73.3011ZM12.5369 71.8565C12.5673 71.3995 12.8757 71.0208 13.3248 71.0208C13.7642 71.0208 14.0726 71.3835 14.0726 71.8565H12.5369ZM15.1001 70.7955H14.771L15.5508 72.0227L14.771 73.25H15.1001L15.733 72.2369L16.3658 73.25H16.6966L15.9071 72.0227L16.6966 70.7955H16.3658L15.733 71.8422L15.1001 70.7955ZM18.2598 70.7955H17.7405V70.2074H17.4544V70.7955H17.0885V71.0431H17.4544V72.6763C17.4544 73.0774 17.7708 73.2868 18.0856 73.2868C18.2039 73.2868 18.2838 73.2644 18.3381 73.2436L18.2774 72.9863C18.2374 72.9975 18.1863 73.0087 18.1112 73.0087C17.9178 73.0087 17.7405 72.9176 17.7405 72.6092V71.0431H18.2598V70.7955ZM18.9058 73.25H19.1903V71.6648C19.1903 71.3004 19.4699 71.0368 19.8534 71.0368C19.9285 71.0368 19.9988 71.0495 20.0244 71.0527V70.7635C19.9861 70.7619 19.9205 70.7587 19.8742 70.7587C19.5658 70.7587 19.3021 70.9249 19.203 71.1726H19.1823V70.7955H18.9058V73.25ZM21.1954 73.3059C21.6044 73.3059 21.8537 73.079 21.956 72.8617H21.9736V73.25H22.258V71.5833C22.258 70.9249 21.7627 70.7619 21.3871 70.7619C21.0116 70.7619 20.6249 70.9105 20.4587 71.3116L20.7287 71.4091C20.8182 71.1982 21.0403 71.0176 21.3951 71.0176C21.7674 71.0176 21.9736 71.2221 21.9736 71.5577V71.6152C21.9736 71.8006 21.7435 71.8038 21.3312 71.8549C20.7767 71.9237 20.3884 72.0787 20.3884 72.5645C20.3884 73.0375 20.7495 73.3059 21.1954 73.3059ZM21.2337 73.0455C20.9125 73.0455 20.6728 72.8745 20.6728 72.5772C20.6728 72.28 20.9157 72.1554 21.3312 72.1042C21.5325 72.0803 21.8905 72.0355 21.9736 71.954V72.3088C21.9736 72.7115 21.6875 73.0455 21.2337 73.0455ZM23.9735 73.3011C24.4849 73.3011 24.8444 72.9783 24.9099 72.5341H24.6223C24.5568 72.8473 24.2995 73.0407 23.9735 73.0407C23.4925 73.0407 23.1745 72.622 23.1745 72.0243C23.1745 71.4299 23.5021 71.0208 23.9735 71.0208C24.3235 71.0208 24.56 71.2461 24.6207 71.5241H24.9083C24.8412 71.0687 24.4609 70.7619 23.9687 70.7619C23.3263 70.7619 22.8884 71.2956 22.8884 72.0339C22.8884 72.7658 23.3135 73.3011 23.9735 73.3011ZM26.4864 70.7955H25.967V70.2074H25.681V70.7955H25.315V71.0431H25.681V72.6763C25.681 73.0774 25.9974 73.2868 26.3122 73.2868C26.4304 73.2868 26.5103 73.2644 26.5647 73.2436L26.504 72.9863C26.464 72.9975 26.4129 73.0087 26.3378 73.0087C26.1444 73.0087 25.967 72.9176 25.967 72.6092V71.0431H26.4864V70.7955ZM28.0984 73.3011C28.5906 73.3011 28.9213 73.0343 29.0332 72.7259L28.7631 72.638C28.6689 72.8585 28.4467 73.0407 28.0984 73.0407C27.5966 73.0407 27.2786 72.6747 27.2658 72.1074H29.0939V71.9668C29.0939 71.147 28.5874 70.7619 28.0552 70.7619C27.4192 70.7619 26.9798 71.294 26.9798 72.0371C26.9798 72.7818 27.4112 73.3011 28.0984 73.3011ZM27.2674 71.8565C27.2978 71.3995 27.6062 71.0208 28.0552 71.0208C28.4947 71.0208 28.8031 71.3835 28.8031 71.8565H27.2674ZM30.6044 73.3011C31.0503 73.3011 31.258 73.0183 31.3587 72.7946H31.3923V73.25H31.6703V69.9773H31.3843V71.2637H31.3587C31.2612 71.0431 31.0583 70.7619 30.6092 70.7619C30.0036 70.7619 29.5945 71.2733 29.5945 72.0291C29.5945 72.7914 30.002 73.3011 30.6044 73.3011ZM30.638 73.0407C30.149 73.0407 29.8805 72.5964 29.8805 72.0243C29.8805 71.4586 30.1458 71.0208 30.638 71.0208C31.1174 71.0208 31.3891 71.4363 31.3891 72.0243C31.3891 72.6172 31.1142 73.0407 30.638 73.0407ZM13.0611 79.3059C13.4702 79.3059 13.7195 79.079 13.8217 78.8617H13.8393V79.25H14.1238V77.5833C14.1238 76.9249 13.6284 76.7619 13.2528 76.7619C12.8773 76.7619 12.4906 76.9105 12.3244 77.3116L12.5945 77.4091C12.6839 77.1982 12.9061 77.0176 13.2608 77.0176C13.6332 77.0176 13.8393 77.2221 13.8393 77.5577V77.6152C13.8393 77.8006 13.6092 77.8038 13.1969 77.8549C12.6424 77.9237 12.2541 78.0787 12.2541 78.5645C12.2541 79.0375 12.6152 79.3059 13.0611 79.3059ZM13.0994 79.0455C12.7782 79.0455 12.5385 78.8745 12.5385 78.5772C12.5385 78.28 12.7814 78.1554 13.1969 78.1042C13.3983 78.0803 13.7562 78.0355 13.8393 77.954V78.3088C13.8393 78.7115 13.5533 79.0455 13.0994 79.0455ZM15.1649 77.7159C15.1649 77.2876 15.4461 77.024 15.8328 77.024C16.21 77.024 16.4529 77.2765 16.4529 77.6776V79.25H16.7373V77.66C16.7373 77.0783 16.4001 76.7635 15.9047 76.7635C15.5452 76.7635 15.2975 76.9297 15.1824 77.1806H15.1569V76.7955H14.8804V79.25H15.1649V77.7159ZM18.3701 79.3011C18.8159 79.3011 19.0237 79.0183 19.1243 78.7946H19.1579V79.25H19.4359V75.9773H19.1499V77.2637H19.1243C19.0269 77.0431 18.8239 76.7619 18.3749 76.7619C17.7692 76.7619 17.3601 77.2733 17.3601 78.0291C17.3601 78.7914 17.7676 79.3011 18.3701 79.3011ZM18.4036 79.0407C17.9146 79.0407 17.6462 78.5964 17.6462 78.0243C17.6462 77.4586 17.9114 77.0208 18.4036 77.0208C18.883 77.0208 19.1547 77.4363 19.1547 78.0243C19.1547 78.6172 18.8798 79.0407 18.4036 79.0407ZM21.5118 79.25H21.7962V77.6776C21.7962 77.2956 22.0503 77.024 22.3907 77.024C22.7263 77.024 22.9212 77.2477 22.9212 77.5801V79.25H23.212V77.6344C23.212 77.2812 23.423 77.024 23.7969 77.024C24.1213 77.024 24.337 77.2189 24.337 77.6056V79.25H24.6215V77.6056C24.6215 77.0559 24.3386 76.7635 23.8832 76.7635C23.5253 76.7635 23.2664 76.9377 23.1561 77.2093H23.1353C23.0267 76.9313 22.8109 76.7635 22.4722 76.7635C22.151 76.7635 21.9113 76.9185 21.8138 77.1726H21.7882V76.7955H21.5118V79.25ZM26.0601 79.3059C26.4692 79.3059 26.7185 79.079 26.8208 78.8617H26.8383V79.25H27.1228V77.5833C27.1228 76.9249 26.6274 76.7619 26.2519 76.7619C25.8763 76.7619 25.4896 76.9105 25.3234 77.3116L25.5935 77.4091C25.683 77.1982 25.9051 77.0176 26.2599 77.0176C26.6322 77.0176 26.8383 77.2221 26.8383 77.5577V77.6152C26.8383 77.8006 26.6082 77.8038 26.1959 77.8549C25.6414 77.9237 25.2531 78.0787 25.2531 78.5645C25.2531 79.0375 25.6143 79.3059 26.0601 79.3059ZM26.0985 79.0455C25.7773 79.0455 25.5376 78.8745 25.5376 78.5772C25.5376 78.28 25.7805 78.1554 26.1959 78.1042C26.3973 78.0803 26.7552 78.0355 26.8383 77.954V78.3088C26.8383 78.7115 26.5523 79.0455 26.0985 79.0455ZM28.8159 80.2216C29.3975 80.2216 29.829 79.9371 29.829 79.3139V76.7955H29.551V77.2637H29.5222C29.4215 77.0431 29.2186 76.7619 28.7679 76.7619C28.1607 76.7619 27.7532 77.2701 27.7532 78.0163C27.7532 78.769 28.1751 79.2244 28.7631 79.2244C29.2042 79.2244 29.4199 78.9688 29.5174 78.7434H29.543V79.2963C29.543 79.7534 29.2505 79.9659 28.8159 79.9659C28.3956 79.9659 28.1942 79.763 28.0904 79.576L27.8571 79.7294C28.0009 80.0107 28.3141 80.2216 28.8159 80.2216ZM28.7967 78.964C28.3093 78.964 28.0392 78.574 28.0392 78.0115C28.0392 77.4586 28.3045 77.0208 28.7967 77.0208C29.2777 77.0208 29.5478 77.4363 29.5478 78.0115C29.5478 78.6044 29.2697 78.964 28.7967 78.964ZM30.5853 79.25H30.8713V76.7955H30.5853V79.25ZM30.7307 76.3736C30.8473 76.3736 30.9448 76.2809 30.9448 76.169C30.9448 76.0572 30.8473 75.9645 30.7307 75.9645C30.614 75.9645 30.5182 76.0572 30.5182 76.169C30.5182 76.2809 30.614 76.3736 30.7307 76.3736ZM32.5824 79.3011C33.0938 79.3011 33.4533 78.9783 33.5188 78.5341H33.2312C33.1657 78.8473 32.9084 79.0407 32.5824 79.0407C32.1014 79.0407 31.7834 78.622 31.7834 78.0243C31.7834 77.4299 32.111 77.0208 32.5824 77.0208C32.9324 77.0208 33.1689 77.2461 33.2296 77.5241H33.5172C33.4501 77.0687 33.0698 76.7619 32.5776 76.7619C31.9352 76.7619 31.4973 77.2956 31.4973 78.0339C31.4973 78.7658 31.9224 79.3011 32.5824 79.3011ZM12.66 83.7159C12.66 83.2876 12.9476 83.024 13.3407 83.024C13.7211 83.024 13.964 83.2733 13.964 83.6776V85.25H14.25V83.66C14.25 83.0751 13.9112 82.7635 13.4126 82.7635C13.0419 82.7635 12.8006 82.9265 12.6855 83.1806H12.66V81.9773H12.3755V85.25H12.66V83.7159ZM15.6846 85.3059C16.0937 85.3059 16.343 85.079 16.4453 84.8617H16.4628V85.25H16.7473V83.5833C16.7473 82.9249 16.2519 82.7619 15.8764 82.7619C15.5008 82.7619 15.1141 82.9105 14.9479 83.3116L15.218 83.4091C15.3075 83.1982 15.5296 83.0176 15.8844 83.0176C16.2567 83.0176 16.4628 83.2221 16.4628 83.5577V83.6152C16.4628 83.8006 16.2327 83.8038 15.8204 83.8549C15.2659 83.9237 14.8776 84.0787 14.8776 84.5645C14.8776 85.0375 15.2388 85.3059 15.6846 85.3059ZM15.723 85.0455C15.4018 85.0455 15.1621 84.8745 15.1621 84.5772C15.1621 84.28 15.405 84.1554 15.8204 84.1042C16.0218 84.0803 16.3797 84.0355 16.4628 83.954V84.3088C16.4628 84.7115 16.1768 85.0455 15.723 85.0455ZM17.4992 86.1705H17.7852V84.7946H17.8108C17.9082 85.0199 18.1192 85.3011 18.565 85.3011C19.1659 85.3011 19.575 84.7898 19.575 84.0291C19.575 83.2717 19.1675 82.7619 18.5602 82.7619C18.1096 82.7619 17.9098 83.0431 17.8108 83.2637H17.7756V82.7955H17.4992V86.1705ZM17.7804 84.0243C17.7804 83.4363 18.0505 83.0208 18.5299 83.0208C19.0237 83.0208 19.2889 83.4586 19.2889 84.0243C19.2889 84.5964 19.0189 85.0407 18.5299 85.0407C18.0553 85.0407 17.7804 84.6172 17.7804 84.0243ZM20.193 86.1705H20.479V84.7946H20.5046C20.6021 85.0199 20.813 85.3011 21.2589 85.3011C21.8597 85.3011 22.2688 84.7898 22.2688 84.0291C22.2688 83.2717 21.8613 82.7619 21.2541 82.7619C20.8034 82.7619 20.6037 83.0431 20.5046 83.2637H20.4695V82.7955H20.193V86.1705ZM20.4743 84.0243C20.4743 83.4363 20.7443 83.0208 21.2237 83.0208C21.7175 83.0208 21.9828 83.4586 21.9828 84.0243C21.9828 84.5964 21.7127 85.0407 21.2237 85.0407C20.7491 85.0407 20.4743 84.6172 20.4743 84.0243ZM23.884 85.3011C24.3762 85.3011 24.707 85.0343 24.8188 84.7259L24.5488 84.638C24.4545 84.8585 24.2324 85.0407 23.884 85.0407C23.3822 85.0407 23.0642 84.6747 23.0514 84.1074H24.8796V83.9668C24.8796 83.147 24.373 82.7619 23.8409 82.7619C23.2049 82.7619 22.7654 83.294 22.7654 84.0371C22.7654 84.7818 23.1969 85.3011 23.884 85.3011ZM23.053 83.8565C23.0834 83.3995 23.3918 83.0208 23.8409 83.0208C24.2803 83.0208 24.5887 83.3835 24.5887 83.8565H23.053ZM25.7908 83.7159C25.7908 83.2876 26.0721 83.024 26.4588 83.024C26.8359 83.024 27.0788 83.2765 27.0788 83.6776V85.25H27.3633V83.66C27.3633 83.0783 27.0261 82.7635 26.5307 82.7635C26.1712 82.7635 25.9235 82.9297 25.8084 83.1806H25.7828V82.7955H25.5064V85.25H25.7908V83.7159ZM29.7615 83.334C29.6416 82.9792 29.3796 82.7619 28.9305 82.7619C28.4351 82.7619 28.0756 83.0447 28.0756 83.449C28.0756 83.7782 28.2753 84.002 28.702 84.1042L29.1031 84.2001C29.3732 84.264 29.5026 84.4031 29.5026 84.5996C29.5026 84.8553 29.2581 85.0455 28.881 85.0455C28.5454 85.0455 28.3361 84.8936 28.2674 84.6028L27.9941 84.6699C28.0804 85.079 28.4048 85.3011 28.8858 85.3011C29.4259 85.3011 29.7967 85.0039 29.7967 84.5868C29.7967 84.2592 29.5905 84.0403 29.1798 83.9396L28.8091 83.8485C28.5039 83.7718 28.3616 83.6488 28.3616 83.4363C28.3616 83.187 28.5997 83.0128 28.9305 83.0128C29.2613 83.0128 29.4243 83.187 29.501 83.4075L29.7615 83.334ZM30.819 81.9773H30.4962L30.517 84.312H30.7982L30.819 81.9773ZM30.6576 85.274C30.7854 85.274 30.8877 85.1701 30.8877 85.0439C30.8877 84.916 30.7854 84.8137 30.6576 84.8137C30.5313 84.8137 30.4275 84.916 30.4275 85.0439C30.4275 85.1701 30.5313 85.274 30.6576 85.274Z" fill="black"/>
</g>
<g filter="url(#filter1_d)">
<path d="M30.1168 31.7248L33.2284 28.6131L45.2082 40.5929C45.6475 41.0322 45.6475 41.7445 45.2082 42.1839L43.6875 43.7045C43.2482 44.1438 42.5358 44.1438 42.0965 43.7045L30.1168 31.7248Z" fill="url(#paint0_linear)"/>
<circle cx="24" cy="23" r="10.75" stroke="#17384A" stroke-opacity="0.81" stroke-width="1.5"/>
<path d="M22.1421 16.1793L21.0638 16.7184C19.1835 17.6586 17.784 19.3448 17.2065 21.3662L17.1056 21.7194" stroke="white" stroke-width="2" stroke-linecap="round"/>
</g>
<defs>
<filter id="filter0_d" x="7.875" y="5.25" width="32.25" height="40.875" filterUnits="userSpaceOnUse" color-interpolation-filters="sRGB">
<feFlood flood-opacity="0" result="BackgroundImageFix"/>
<feColorMatrix in="SourceAlpha" type="matrix" values="0 0 0 0 0 0 0 0 0 0 0 0 0 0 0 0 0 0 127 0" result="hardAlpha"/>
<feOffset dy="1.5"/>
<feGaussianBlur stdDeviation="0.75"/>
<feComposite in2="hardAlpha" operator="out"/>
<feColorMatrix type="matrix" values="0 0 0 0 0 0 0 0 0 0 0 0 0 0 0 0 0 0 0.25 0"/>
<feBlend mode="normal" in2="BackgroundImageFix" result="effect1_dropShadow"/>
<feBlend mode="normal" in="SourceGraphic" in2="effect1_dropShadow" result="shape"/>
</filter>
<filter id="filter1_d" x="11.75" y="11.5" width="35.0036" height="35.25" filterUnits="userSpaceOnUse" color-interpolation-filters="sRGB">
<feFlood flood-opacity="0" result="BackgroundImageFix"/>
<feColorMatrix in="SourceAlpha" type="matrix" values="0 0 0 0 0 0 0 0 0 0 0 0 0 0 0 0 0 0 127 0" result="hardAlpha"/>
<feOffset dy="1.5"/>
<feGaussianBlur stdDeviation="0.375"/>
<feComposite in2="hardAlpha" operator="out"/>
<feColorMatrix type="matrix" values="0 0 0 0 0 0 0 0 0 0 0 0 0 0 0 0 0 0 0.25 0"/>
<feBlend mode="normal" in2="BackgroundImageFix" result="effect1_dropShadow"/>
<feBlend mode="normal" in="SourceGraphic" in2="effect1_dropShadow" result="shape"/>
</filter>
<linearGradient id="paint0_linear" x1="34.5626" y1="36.7261" x2="37.4017" y2="33.3551" gradientUnits="userSpaceOnUse">
<stop stop-color="#A77255"/>
<stop offset="1" stop-color="#E1B68F"/>
</linearGradient>
</defs>
</svg>
