<?xml version="1.0" encoding="iso-8859-1"?>
<!-- Generator: Adobe Illustrator 19.0.0, SVG Export Plug-In . SVG Version: 6.00 Build 0)  -->
<svg version="1.1" id="Layer_1" xmlns="http://www.w3.org/2000/svg" xmlns:xlink="http://www.w3.org/1999/xlink" x="0px" y="0px"
	 viewBox="0 0 512 512" style="enable-background:new 0 0 512 512;" xml:space="preserve">
<path style="fill:#84D993;" d="M303.861,78.753L37.064,318.158c-9.082,8.147-14.803,19.979-14.803,33.146
	c0,5.211,0.9,10.209,2.544,14.855c11.925,4.484,48.656,16.728,123.229,38.989c86.817,0,161.962-3.325,162.504-3.339l57.878-201.461
	L303.861,78.753z"/>
<path style="fill:#50BF94;" d="M325.009,144.696L303.861,163.2v226.365c19.061-0.513,33.542-5.299,52.989-11.13
	c115.081-34.504,92.82-222.609,92.82-222.609l17.809-17.391V71.652h-44.522C396.243,62.33,372.87,51.2,348.445,38.749
	l-44.584,40.004v51.055L325.009,144.696z"/>
<g>
	<path style="fill:#FDF3D3;" d="M422.957,251.13l-37.843,90.574l56.058-0.899c16.638-25.945,26.307-56.735,26.307-89.675V138.435
		h-44.522V251.13z"/>
	<path style="fill:#FDF3D3;" d="M300.522,373.565H200.348c0,19.339,34.504,44.479,103.512,44.479
		c0.038-0.001,0.076-0.001,0.112-0.002c18.503-0.38,36.29-3.809,52.88-9.803l38.279-30.918l-38.281-17.507
		c-15.944,8.297-33.929,13.192-52.989,13.705C302.751,373.547,301.638,373.565,300.522,373.565z"/>
</g>
<path style="fill:#B9F291;" d="M478.609,451.478H463.65l-22.48-110.673l-18.214-89.675c-3.373-16.6-18.844-28.267-36.058-26.537
	c-17.213,1.731-30.053,16.246-30.052,33.184l0.004,102.036l0.002,48.426l0.001,43.238c0,0,29.372,13.774,78.926,33.391H512
	C512,466.429,497.051,451.478,478.609,451.478z"/>
<path style="fill:#50BF94;" d="M402.389,451.478h-190.91c5.565,11.548,14.122,21.914,25.6,33.391H435.78
	C435.78,466.429,420.829,451.478,402.389,451.478z"/>
<path style="fill:#B9F291;" d="M303.861,418.087c-0.012-17.134-6.448-32.717-17.017-44.522
	c-12.228-13.659-29.989-22.261-49.765-22.261H66.783c-15.902,0-30.502,5.573-41.977,14.855c-1.829,1.478-3.586,3.042-5.248,4.704
	C7.477,382.954,0,399.649,0,418.087l146.922,50.504L303.861,418.087z"/>
<path style="fill:#84D993;" d="M294.905,451.478c5.685-9.825,8.956-21.222,8.956-33.391H0c0,36.886,29.897,66.783,66.783,66.783
	h170.296C261.794,484.87,283.357,471.435,294.905,451.478z"/>
<g>
	<rect x="303.861" y="129.803" style="fill:#B9F291;" width="33.391" height="33.391"/>
	<rect x="161.247" y="239.994" style="fill:#B9F291;" width="33.391" height="33.391"/>
	<rect x="205.768" y="284.516" style="fill:#B9F291;" width="33.391" height="33.391"/>
</g>
<path style="fill:#AA3E51;" d="M378.435,116.174c24.587,0,44.522-19.935,44.522-44.522S403.022,27.13,378.435,27.13l-28.939,48.557
	L378.435,116.174z"/>
<path style="fill:#F72349;" d="M333.913,71.652c0,24.587,19.935,44.522,44.522,44.522V27.13c-11.421,0-21.835,4.305-29.716,11.376
	c-0.039,0.036-0.08,0.069-0.119,0.105c-0.051,0.046-0.103,0.091-0.155,0.139C339.516,46.893,333.913,58.617,333.913,71.652z"/>
<g>
</g>
<g>
</g>
<g>
</g>
<g>
</g>
<g>
</g>
<g>
</g>
<g>
</g>
<g>
</g>
<g>
</g>
<g>
</g>
<g>
</g>
<g>
</g>
<g>
</g>
<g>
</g>
<g>
</g>
</svg>
