<?xml version="1.0" encoding="UTF-8" standalone="no"?>
<svg
   version="1.1"
   viewBox="0.00 0.00 1024.00 1024.00"
   id="svg112"
   sodipodi:docname="frog.svg"
   inkscape:export-filename="frog.png"
   inkscape:export-xdpi="96"
   inkscape:export-ydpi="96"
   inkscape:version="1.3 (0e150ed6c4, 2023-07-21)"
   xmlns:inkscape="http://www.inkscape.org/namespaces/inkscape"
   xmlns:sodipodi="http://sodipodi.sourceforge.net/DTD/sodipodi-0.dtd"
   xmlns="http://www.w3.org/2000/svg"
   xmlns:svg="http://www.w3.org/2000/svg">
  <defs
     id="defs112" />
  <sodipodi:namedview
     id="namedview112"
     pagecolor="#f025dd"
     bordercolor="#000000"
     borderopacity="0.25"
     inkscape:showpageshadow="2"
     inkscape:pageopacity="0.0"
     inkscape:pagecheckerboard="0"
     inkscape:deskcolor="#d1d1d1"
     showguides="true"
     inkscape:zoom="0.80447207"
     inkscape:cx="445.01234"
     inkscape:cy="572.42509"
     inkscape:window-width="3440"
     inkscape:window-height="1371"
     inkscape:window-x="0"
     inkscape:window-y="0"
     inkscape:window-maximized="1"
     inkscape:current-layer="svg112">
    <sodipodi:guide
       position="803.0111,512"
       orientation="0,1"
       id="guide112"
       inkscape:locked="false"
       inkscape:label=""
       inkscape:color="rgb(0,134,229)" />
    <sodipodi:guide
       position="512,1097.34"
       orientation="-1,0"
       id="guide113"
       inkscape:locked="false"
       inkscape:label=""
       inkscape:color="rgb(0,134,229)" />
  </sodipodi:namedview>
  <circle
     style="fill:#ffffff;stroke-width:0"
     id="path172"
     cx="509.84283"
     cy="515.86865"
     r="473.01254"
     sodipodi:insensitive="true" />
  <path
     fill="#002b3e"
     d="m 874.01207,304.96709 q 41.32612,68.79312 53.66337,148.78581 c 5.08264,34.16016 5.05309,66.87235 2.46744,100.82566 -9.04239,80.11089 -36.64238,153.29223 -85.56291,217.63803 C 741.65623,907.60134 559.86273,967.07135 396.46428,920.20454 284.15833,887.97993 189.80419,808.9033 136.58408,704.08836 q -17.33125,-33.99764 -28.0728,-70.77301 C 91.578955,573.03273 85.77232,509.49955 96.632064,447.48823 q 2.526538,-14.391 5.540676,-28.54559 2.02421,-7.75696 4.15182,-15.38095 c 13.13512,-47.36913 34.33746,-89.18283 62.76486,-129.03142 65.8381,-92.32995 165.54084,-151.99201 277.03415,-171.00765 83.1989,-14.184146 170.75648,-0.45804 246.81898,36.46509 76.7717,37.27771 136.0644,92.59589 181.06952,164.97938 z M 384.79191,865.43305 q 24.99956,9.02761 50.81175,14.58308 1.84691,0.39892 6.6045,0.82739 0.78309,0.0739 0.57623,-0.67965 -0.75353,-2.67431 -1.61049,-5.14176 -3.16189,-9.14581 -0.6501,-18.63146 c 3.1471,-10.72677 8.64346,-16.62205 16.85845,-26.18158 q 0.66487,-0.7683 -0.32506,-0.98993 l -16.85844,-3.79721 q -0.63533,-0.14776 -1.18202,0.20684 c -9.79593,6.32377 -18.12912,11.49508 -29.68328,14.36146 q -23.53683,6.57494 -41.34089,-10.18008 c -4.65418,-4.38822 -9.39699,-14.22848 -16.9471,-15.18886 -14.68651,-1.87645 -26.3441,-1.53662 -38.5336,-12.76574 q -8.4514,-7.78651 -9.82549,-19.00085 -0.59101,-8.24454 3.02891,-15.15931 a 3.2800844,3.2800844 0 0 0 -0.39892,-3.63469 q -10.96317,-13.0169 -9.89937,-30.65845 0.0148,-12.15995 3.82677,-23.81754 a 4.5064223,4.5064223 0 0 0 -0.51713,-3.88587 c -5.80664,-8.87986 -10.26874,-15.97195 -8.14112,-27.18628 q 1.65484,-8.73212 11.14047,-12.88394 c 12.60322,9.13105 27.86595,26.12247 26.19635,43.37986 -1.15244,11.95309 -3.72333,23.7289 -0.93083,35.7411 a 1.3002137,1.3002137 0 0 0 2.09807,0.7092 c 11.67238,-9.76637 30.42206,-21.9411 45.81775,-23.71412 q 1.03428,-0.11814 0.25118,-0.79786 c -17.99613,-15.83897 -34.88413,-29.65373 -51.10725,-50.8413 q -4.55074,-5.93962 -9.02762,-11.89401 -4.90535,-8.45138 -9.50042,-16.26744 -9.94368,-16.96188 -13.75568,-36.22869 c -0.28073,-1.44795 -1.04903,-3.11755 -2.31969,-4.19613 -37.36638,-31.47108 -64.78906,-70.61046 -82.17941,-116.51689 q -6.26467,-17.98136 -7.94904,-24.21646 -8.03768,-29.63897 -4.13704,-60.22354 2.83682,-14.80471 7.03297,-24.7336 12.94304,-30.68801 39.49398,-53.9441 1.31501,-1.15246 1.44797,-2.2015 c 4.66895,-34.69206 29.35824,-60.62245 62.17386,-70.84686 q 6.10214,-1.906 11.27344,-3.5165 27.17151,-3.97452 51.38799,5.58502 34.29314,12.23382 55.77621,42.68542 0.4728,0.69443 1.03426,0.0444 c 3.36874,-3.91542 7.0182,-8.43662 10.25396,-11.67239 28.42739,-28.41263 70.92074,-44.57664 111.22736,-36.36166 40.77944,8.31842 74.24516,36.27302 87.17343,75.95908 5.67364,17.39036 5.14175,32.16552 3.33918,49.36379 q -0.0887,0.82741 0.72397,1.01949 22.20706,5.71799 44.16296,17.83362 c 56.61838,31.21989 98.25477,74.24514 133.40486,127.52435 q 5.71798,10.10621 11.84969,21.2319 9.14582,16.60727 16.32653,34.24881 11.46552,29.0184 17.44946,59.60298 a 0.4580298,0.4580298 0 0 0 0.67966,0.2955 q 0.39892,-0.23639 0.591,-0.81263 c 8.37752,-24.31991 14.81949,-49.67408 17.64154,-75.27943 4.47687,-40.64645 3.33918,-82.17939 -5.85096,-122.13142 Q 852.72108,342.90968 790.88705,273.79151 C 738.95238,215.72516 671.81407,174.59111 595.9732,156.26993 515.81799,136.91448 430.00388,147.16843 355.25638,181.25471 287.76347,212.01658 235.1787,259.68125 195.74381,321.89942 130.17167,425.3846 124.3207,555.77535 173.5663,667.34255 213.03073,756.76177 284.97097,823.85576 374.70048,861.4142 q 5.11221,2.1424 10.09143,4.01885 z M 523.78179,471.49786 q -54.2987,4.09271 -102.9385,-0.45803 -38.5336,-3.61991 -74.09739,-18.73489 c -17.3756,-7.37282 -37.10043,-16.51864 -53.32355,-20.95118 q -31.95866,-8.71733 -64.74473,-3.67902 -1.55139,0.23641 -1.30021,1.7878 5.27473,31.50063 18.30641,59.55866 c 15.14453,37.48456 41.28178,68.91132 72.13232,94.72352 q 2.7334,2.30492 5.95438,6.72268 0.44326,0.60579 0.50235,1.35933 c 3.07325,46.40876 45.64046,88.73957 81.15994,113.96076 13.03168,9.24926 28.79677,18.17344 44.32545,22.08886 3.9893,1.00471 8.73213,1.01949 12.98737,2.00942 q 2.3197,0.54669 0.69443,-1.21155 c -21.97065,-23.7289 -41.19314,-53.97365 -42.84795,-87.2473 -3.35396,-69.81261 51.97899,-117.32951 118.5854,-119.82651 q 15.80941,-0.10347 29.04796,1.6696 c 46.00982,6.11691 81.6475,35.71153 108.84856,71.67427 4.9349,7.52056 14.76038,20.98072 15.48437,29.44688 1.09336,12.72142 -9.73684,18.07003 -20.41927,13.17944 -8.73213,-4.00407 -18.4394,-9.6925 -27.77729,-13.20898 q -15.04111,-5.68844 -28.30921,-9.35268 c -5.14175,-1.41842 -11.34731,-1.78779 -16.44474,-2.82205 q -15.75032,-3.17666 -31.76658,-4.4621 -6.63404,-0.53191 -9.82548,-2.54132 c -6.24989,-3.93019 -8.73211,-12.82485 -4.47688,-19.20772 5.27474,-7.88992 16.96188,-7.78649 24.65975,-7.37279 q 13.78521,0.75353 30.55501,3.45738 6.9,1.59573 13.6818,3.39829 c 2.48223,0.66489 4.68372,2.48222 7.31369,3.39829 q 1.40364,0.48757 0.32506,-0.53191 c -19.99078,-19.04518 -41.39998,-31.61883 -69.57621,-34.72161 -31.26422,-4.28481 -64.89248,2.77773 -87.64622,25.75309 -12.38158,12.51456 -18.12912,27.67387 -19.99078,46.18714 q -0.36938,3.67901 -0.56146,6.67837 c 1.0195,24.82226 10.87451,48.71368 26.62483,67.47813 q 45.03468,53.63381 113.96078,71.70383 c 22.76851,5.79186 46.37921,8.34796 69.56143,12.02698 q 14.80471,2.34924 26.59527,6.04303 c 14.62741,4.58029 14.0364,25.19164 -1.27065,28.02847 -3.87109,0.72399 -8.71735,-0.26595 -12.79528,-0.98993 q -17.89272,-3.20621 -35.82977,-6.26467 -31.60405,-5.37815 -72.3687,-1.83211 -9.50042,1.52183 -18.86787,3.63469 c -3.84155,0.85695 -7.59443,2.61519 -11.56895,3.7381 -2.7334,0.7683 -5.31906,2.06853 -8.17065,2.80728 q -4.65419,1.21157 -6.17603,1.81735 -15.57301,6.26466 -28.98885,16.45951 c -1.07859,0.81265 -1.81735,2.17197 -3.56081,2.64476 q -0.65011,0.1773 -1.0786,0.70922 l -6.6636,8.33318 q -0.16251,0.19208 -0.22161,0.13297 -0.13298,-0.13297 -0.32505,-0.22162 -0.13298,-0.0739 -0.26596,0.0148 c -10.03232,7.03297 -15.52869,20.22718 -6.05781,30.37772 q 6.76702,7.2546 16.14924,4.77238 c 17.25738,-4.56553 22.05931,-29.03319 39.36102,-31.95867 q 21.45351,0.97516 20.69998,21.32055 -0.0296,0.7683 0.73875,0.7683 2.91072,-0.0296 5.73277,-0.44324 27.40793,-4.04841 54.31347,-10.57901 10.78587,-2.61521 33.21455,-10.00278 c 6.39764,-2.11285 15.55824,-4.12227 22.99015,-7.15118 q 13.74089,-5.62933 27.21583,-11.92355 8.76166,-4.1075 18.5576,-10.56424 12.57365,-8.30363 25.36894,-16.26745 0.57623,-0.3546 1.22633,-0.45802 1.69914,-0.25119 3.19144,0.29551 a 0.7239826,0.73875775 23.6 0 0 0.90129,-0.35461 q 0.33983,-0.66488 1.35931,-0.3546 a 1.6843676,1.6843676 0 0 0 1.52183,-0.25118 q 23.0197,-16.72548 40.51349,-39.18371 c 44.75394,-57.49013 33.96808,-139.37404 3.57559,-200.18857 -12.24861,-25.57581 -28.39786,-49.20129 -46.89635,-70.64002 -26.40321,-30.64367 -56.58885,-57.22419 -92.31517,-76.46144 -11.84967,-6.38286 -24.40856,-14.12505 -36.87879,-14.05117 q -5.57023,0.0296 -8.30363,-1.41841 c -7.03298,-3.70858 -8.20022,-10.25396 -5.68844,-17.68587 6.78179,-20.02034 9.57431,-37.92782 1.7287,-58.18455 q -5.67367,-16.90279 -18.04047,-29.49122 c -36.90833,-37.61754 -93.246,-33.22932 -128.35178,3.94496 q -5.05311,5.34861 -10.80064,12.88395 -2.82205,3.69379 -6.14646,5.55545 c -4.74282,2.67431 -13.69657,5.8953 -17.84839,4.03362 q -6.44196,-2.89593 -12.97258,-5.61456 c -39.09505,-16.35609 -83.02159,-11.27343 -120.77212,7.38757 -8.90942,4.40301 -15.36615,9.86982 -22.4139,15.61735 q -3.04368,2.48222 -4.44733,3.91542 c -14.53875,14.96722 -24.33468,28.27965 -30.76188,46.63038 q -0.81263,2.33448 1.64005,2.03897 51.9199,-6.16123 100.19032,15.86852 c 11.83491,5.39293 24.09829,11.79058 35.51948,15.73554 q 22.69464,7.86038 46.64516,10.81542 c 40.18844,4.9349 79.00275,4.15182 119.32415,2.18672 q 5.27474,-0.25118 10.13577,1.69915 c 9.91413,3.94497 11.48029,16.29698 4.90535,23.69935 -6.16124,6.94432 -16.84369,6.04303 -25.13255,6.69313 z M 361.787,280.66196 c -26.21113,-13.77045 -58.33232,-5.46681 -77.86508,15.86851 q -0.78308,0.84219 -0.79785,1.84689 a 0.28072794,0.28072794 0 0 0 0.42848,0.23641 c 15.86851,-9.76637 34.72162,-14.6274 53.13145,-16.57773 7.49101,-0.79785 16.6516,-0.0739 24.97002,-0.73875 q 1.18202,-0.0887 0.13298,-0.63533 z m 11.05182,476.32145 q -6.22035,1.34454 -12.27816,3.32441 -6.11692,1.99465 -11.15525,5.83618 -7.0182,5.37815 -12.98736,11.70193 a 1.5513912,1.5513912 0 0 0 0.25118,2.34925 c 10.28351,6.91476 26.50664,-5.39293 38.40063,-3.30964 q 11.45075,2.00942 13.72611,12.97258 c 0.85696,4.15183 0.0148,9.20494 -0.44324,13.69658 -0.50236,5.06787 6.84088,7.6683 10.63811,7.65353 q 3.45738,0 9.07194,-2.74818 c 16.03105,-7.81606 36.77536,-21.1728 46.64516,-36.79013 l 4.92014,-9.26403 a 1.1524621,1.1376869 23.7 0 0 -0.63534,-1.61049 q -1.15246,-0.39894 -3.05846,-0.44326 -16.48908,-0.4137 -32.97814,-0.62055 c -10.96317,-0.11815 -21.89677,-1.44797 -32.74175,-2.83683 q -8.59914,-1.09337 -17.37557,0.0887 z m 115.43828,47.31005 c 9.42655,-5.02356 21.26144,-10.83019 31.95865,-14.0364 q 9.70728,-2.91071 18.05525,-5.31906 2.64476,-0.75353 0.16253,-1.93555 -10.71199,-5.11219 -20.36017,-12.08607 a 1.4922907,1.4922907 0 0 0 -2.11285,0.3546 q -12.07129,17.41992 -28.04324,32.37237 -0.11815,0.10347 -0.13297,0.22163 -0.0148,0.22161 0.14774,0.38415 0.14777,0.13297 0.32506,0.0443 z"
     id="path76"
     style="display:inline;stroke-width:1.47752" />
  <path
     fill="#fbfcfc"
     d="m 843.26497,572.78155 q 2.27538,-15.67645 3.17666,-25.19163 C 859.31079,413.16555 789.30611,284.60693 669.93763,221.63521 596.84494,183.07206 511.11949,170.17335 430.74264,191.9076 c -31.67792,8.55481 -61.49419,20.25673 -91.08883,36.68671 q -13.17943,7.3137 -23.04924,16.72547 -5.1713,1.6105 -11.27344,3.5165 c -32.81562,10.22441 -57.50491,36.1548 -62.17386,70.84686 q -0.13296,1.04904 -1.44797,2.2015 -26.55094,23.25609 -39.49398,53.9441 -4.19615,9.92889 -7.03297,24.7336 -1.66961,3.23576 -2.00942,6.87045 -0.059,0.70921 -0.53191,1.24111 c -2.497,2.82206 -2.65953,6.76702 -3.63469,9.36745 q -2.57088,6.87044 -3.17666,10.23917 c -1.99465,10.90407 -4.7576,22.48781 -6.23512,32.56445 q -3.33919,22.67987 -4.35867,44.26637 c -3.0289,63.84344 15.08544,127.92328 47.76809,182.69479 15.49914,25.9895 36.39121,51.32889 58.8051,74.20084 5.09744,5.20085 11.56897,10.49035 16.63683,15.64687 q 0.53191,0.54668 0.72399,1.4923 0.14775,0.67966 0.73875,1.03426 1.32976,0.79785 2.08331,2.92548 0.5319,1.68437 0.48758,3.73813 -0.0148,0.57621 -0.47282,0.91605 -0.69442,0.51712 -1.03425,1.41841 -0.2364,0.63533 -0.19208,1.31499 0.66487,7.66831 2.14239,18.38029 c 2.08331,15.01156 11.17003,18.15867 22.19228,25.22118 8.9833,5.73277 16.7698,8.31843 29.60942,10.29829 q 5.73276,0.87173 8.89464,4.21092 5.03834,5.31906 9.42655,8.70257 c 4.00407,3.10278 9.26403,4.77238 14.09551,6.81135 q 1.31498,0.56146 -0.0739,0.84218 l -2.27537,0.47281 q -4.9792,-1.87645 -10.09141,-4.01885 C 284.97097,823.85576 213.03073,756.76177 173.5663,667.34255 124.3207,555.77535 130.17167,425.3846 195.74381,321.89942 235.1787,259.68125 287.76347,212.01658 355.25638,181.25471 c 74.7475,-34.08628 160.56161,-44.34023 240.71682,-24.98478 75.84087,18.32118 142.97918,59.45523 194.91385,117.52158 q 61.83403,69.11817 82.88862,160.66504 c 9.19014,39.95202 10.32783,81.48497 5.85096,122.13142 -2.82205,25.60535 -9.26402,50.95951 -17.64154,75.27943 q -0.19208,0.57624 -0.591,0.81263 a 0.4580298,0.4580298 0 0 1 -0.67966,-0.29551 q -5.98394,-30.58457 -17.44946,-59.60297 z"
     id="path77"
     style="display:inline;stroke-width:1.47752" />
  <path
     fill="#c2d7dd"
     d="m 843.26497,572.78155 q -7.18071,-17.64154 -16.32653,-34.24881 -6.13171,-11.1257 -11.84969,-21.2319 1.68437,-10.91883 0.91607,-21.42398 C 808.35128,391.87454 751.21576,302.98721 661.05777,252.6926 599.56357,218.41423 526.67773,205.05749 457.10152,218.81315 c -31.07215,6.16124 -62.09997,15.7651 -89.10896,32.09165 q -24.21648,-9.55954 -51.38799,-5.58502 9.86981,-9.41177 23.04924,-16.72547 c 29.59464,-16.42998 59.41091,-28.1319 91.08883,-36.68671 80.37685,-21.73425 166.1023,-8.83554 239.19499,29.72761 119.36848,62.97172 189.37316,191.53034 176.504,325.95471 q -0.90128,9.51518 -3.17666,25.19163 z"
     id="path78"
     style="display:inline;stroke-width:1.47752" />
  <path
     fill="#91b1bc"
     d="M 815.08875,517.30084 C 779.93866,464.02163 738.30227,420.99638 681.68389,389.77648 q -21.9559,-12.11563 -44.16296,-17.83361 -0.81263,-0.19208 -0.72397,-1.01949 c 1.80257,-17.19828 2.33446,-31.97343 -3.33918,-49.36379 -12.92827,-39.68607 -46.39399,-67.64066 -87.17343,-75.95908 -40.30662,-8.21498 -82.79997,7.94903 -111.22736,36.36166 -3.23576,3.23576 -6.88522,7.75697 -10.25396,11.67238 q -0.56146,0.6501 -1.03426,-0.0444 -21.48307,-30.45158 -55.77621,-42.68541 c 27.00899,-16.32654 58.03681,-25.9304 89.10896,-32.09164 69.57621,-13.75566 142.46205,-0.39892 203.95625,33.87944 90.15799,50.29462 147.29351,139.18195 154.94705,243.18427 q 0.7683,10.50514 -0.91607,21.42398 z"
     id="path80"
     style="display:inline;stroke-width:1.47752" />
  <path
     fill="#3ffe3a"
     d="m 603.10961,327.89813 c -0.0443,4.27002 -0.59101,7.80127 0.19206,12.14518 3.25055,17.86315 -3.01413,32.15074 -7.86037,48.38863 -5.06788,16.9471 -2.39358,29.00363 14.31713,37.11518 q 19.22247,9.30836 34.14537,17.78929 1.52185,0.87174 2.65954,2.05375 1.2411,1.30021 2.27537,2.52655 -4.74282,5.91007 -0.13298,9.13105 c 10.26873,7.1955 19.81348,14.02163 29.90492,22.56166 q 9.63339,8.14112 13.65225,10.56423 3.7972,2.27538 10.65288,0.41371 22.79806,24.77794 40.95673,55.14088 -0.97515,2.06852 -2.94026,2.48222 -0.67966,0.14776 -1.19679,0.59101 -3.22099,2.77773 -4.35866,5.64411 -0.98995,2.46746 -2.96982,3.13234 -0.72397,0.23639 -1.31498,0.7092 l -7.01821,5.55545 q -2.91069,2.30494 -5.59978,4.8758 -6.88522,6.56018 -14.40578,12.38159 -0.17729,0.14776 -0.16252,0.3546 0.0148,0.11827 0,0.22163 -0.0148,0.20685 -0.22163,0.39892 -4.41777,4.13706 -9.8107,6.88523 -2.29015,1.16724 -4.29957,2.76296 c -1.92077,1.52183 -6.29421,1.97987 -7.16595,3.54603 q -0.25118,0.44325 0.0443,0.85697 0.94561,1.32975 0.20685,2.46744 -0.29551,0.45802 -0.47281,-0.0443 -0.44324,-1.30022 -1.80257,-1.52184 -0.75353,-0.11815 -0.62055,-0.85696 0.19208,-1.09336 -0.75354,-2.06853 -0.25117,-0.28073 -0.35459,0.0887 -0.0739,0.31028 -0.20686,0.45804 -0.45802,0.54668 -1.37409,0.2955 C 649.87292,558.98163 614.23524,529.38699 568.22542,523.27008 q -13.23855,-1.77301 -29.04796,-1.6696 -0.36938,-15.2775 -5.40772,-29.66851 c -2.34924,-6.73747 -6.44195,-13.68179 -9.988,-20.43404 8.28887,-0.6501 18.97131,0.25118 25.13254,-6.69314 6.57495,-7.40236 5.00879,-19.75438 -4.90534,-23.69934 q -4.86103,-1.95034 -10.13577,-1.69915 c -40.3214,1.9651 -79.13572,2.74818 -119.32415,-2.18672 q -23.95053,-2.95504 -46.64516,-10.81543 c -11.42119,-3.94495 -23.68458,-10.34259 -35.51948,-15.73553 q -48.27043,-22.02975 -100.19032,-15.86852 -2.45267,0.29551 -1.64005,-2.03897 c 6.42721,-18.35074 16.22313,-31.66316 30.76188,-46.63038 q 1.40365,-1.4332 4.44733,-3.91542 c 7.04775,-5.74753 13.50448,-11.21435 22.41389,-15.61735 37.75054,-18.66101 81.67708,-23.74366 120.77213,-7.38757 q 6.53062,2.71863 12.97259,5.61455 c 4.15182,1.86169 13.10557,-1.35931 17.84838,-4.03361 q 3.32441,-1.86166 6.14646,-5.55545 5.74754,-7.53534 10.80064,-12.88395 c 35.10577,-37.17428 91.44345,-41.5625 128.35178,-3.94497 q 12.36681,12.58844 18.04046,29.49123 z m -18.2621,21.55696 a 59.55865,59.55865 0 0 0 -59.55865,-59.55866 59.55865,59.55865 0 0 0 -59.55865,59.55866 59.55865,59.55865 0 0 0 59.55865,59.55864 59.55865,59.55865 0 0 0 59.55865,-59.55864 z M 368.89385,312.41376 c -23.00492,-1.74346 -46.8077,5.24519 -66.82804,15.61735 q -7.47622,3.87109 -11.33253,7.44668 c -4.74283,4.40299 0.31027,11.18478 6.38286,7.55009 q 32.68265,-19.59185 71.83681,-20.74432 3.84153,-0.10346 3.51648,-3.94495 l -0.2364,-2.62999 a 3.619913,3.6346881 89.7 0 0 -3.33918,-3.29486 z m 7.23687,78.03927 a 17.966588,17.597209 44.4 0 0 -0.52452,-25.14332 17.966588,17.597209 44.4 0 0 -25.1488,10e-4 17.966588,17.597209 44.4 0 0 0.52453,25.14332 17.966588,17.597209 44.4 0 0 25.14879,-0.002 z"
     id="path81"
     style="display:inline;stroke-width:1.47752" />
  <path
     fill="#20e12d"
     d="m 283.92192,296.53047 c 19.53276,-21.33532 51.65395,-29.63896 77.86508,-15.86851 q 1.04904,0.54668 -0.13298,0.63533 c -8.31842,0.66488 -17.47901,-0.059 -24.97002,0.73875 -18.40983,1.95033 -37.26294,6.81136 -53.13145,16.57773 a 0.28072794,0.28072794 0 0 1 -0.42848,-0.23641 q 0.0148,-1.0047 0.79785,-1.84689 z"
     id="path82"
     style="display:inline;stroke-width:1.47752" />
  <path
     fill="#002b3e"
     d="m 584.84751,349.45509 a 59.55865,59.55865 0 0 1 -59.55865,59.55864 59.55865,59.55865 0 0 1 -59.55865,-59.55864 59.55865,59.55865 0 0 1 59.55865,-59.55866 59.55865,59.55865 0 0 1 59.55865,59.55866 z m -51.94945,-21.35012 a 20.714767,20.714767 0 0 0 -20.71476,-20.71476 20.714767,20.714767 0 0 0 -20.71477,20.71476 20.714767,20.714767 0 0 0 20.71477,20.71477 20.714767,20.714767 0 0 0 20.71476,-20.71477 z m 11.06216,30.22126 a 7.3137018,6.7817962 85.4 0 0 6.17336,-7.83408 7.3137018,6.7817962 85.4 0 0 -7.3465,-6.74633 7.3137018,6.7817962 85.4 0 0 -6.17336,7.83407 7.3137018,6.7817962 85.4 0 0 7.3465,6.74634 z"
     id="path83"
     style="display:inline;stroke-width:1.47752" />
  <path
     fill="#fbfcfc"
     d="m 532.89806,328.10497 a 20.714767,20.714767 0 0 1 -20.71476,20.71477 20.714767,20.714767 0 0 1 -20.71477,-20.71477 20.714767,20.714767 0 0 1 20.71477,-20.71476 20.714767,20.714767 0 0 1 20.71476,20.71476 z"
     id="path84"
     style="display:inline;stroke-width:1.47752" />
  <path
     fill="#e6eef0"
     d="m 302.06581,328.03111 c 20.02034,-10.37216 43.82312,-17.36081 66.82804,-15.61735 a 3.619913,3.6346881 89.7 0 1 3.33918,3.29486 l 0.2364,2.62999 q 0.32505,3.84154 -3.51648,3.94495 -39.15416,1.15247 -71.83681,20.74432 c -6.07259,3.63469 -11.12569,-3.1471 -6.38286,-7.55009 q 3.85631,-3.57559 11.33253,-7.44668 z"
     id="path85"
     style="display:inline;stroke-width:1.47752" />
  <path
     fill="#17bc64"
     d="m 603.10961,327.89813 c 7.84561,20.25673 5.05309,38.16422 -1.7287,58.18455 -2.51178,7.43191 -1.34454,13.9773 5.68844,17.68588 q 2.7334,1.44795 8.30363,1.4184 c 12.47023,-0.0739 25.02912,7.66831 36.87879,14.05118 35.72632,19.23725 65.91196,45.81775 92.31517,76.46143 18.49849,21.43874 34.64774,45.06421 46.89635,70.64001 q -1.53662,0.90129 -0.0887,2.11286 0.44327,0.36937 0.48758,0.9456 l 0.22164,3.07323 q 0.0148,0.17729 -0.11827,0.31028 l -0.29551,0.2955 a 0.22162733,0.22162733 0 0 1 -0.3546,-0.0739 q -0.2364,-0.47281 -0.16252,-1.00471 0.059,-0.39894 -0.22163,-0.11816 -0.50236,0.50236 -0.0148,1.21157 0.10348,0.14774 -0.0739,0.14774 -0.19209,0 -0.42849,0 a 0.50235527,0.50235527 0 0 0 -0.45802,0.35462 q -1.56618,5.6441 -4.71328,10.579 -0.2955,0.47281 -0.0443,0.97516 0.2364,0.45804 -0.059,0.91607 -1.49229,2.24582 -7.44668,10.1062 -0.44325,0.60579 -0.57624,1.34454 -0.26595,1.52183 -1.86166,1.97987 -0.81264,0.23641 -0.70921,1.07858 0.1773,1.32977 -0.67965,2.45268 -0.2955,0.38416 -0.14776,0.84218 0.11827,0.44326 -0.059,0.94561 -0.29551,0.78309 -1.04904,0.42848 -0.38416,-0.1773 -0.0443,-0.41371 0.23641,-0.16252 0.10347,-0.48757 a 0.14775155,0.13297639 81.7 0 0 -0.0887,-0.0739 l -1.01948,-0.059 q -10.80065,-30.74709 -27.68864,-58.48005 -18.15866,-30.36294 -40.95672,-55.14088 -2.36404,-1.84689 -4.21093,-4.04838 c -8.82077,-10.51993 -20.31584,-19.35546 -33.25888,-29.13663 q -9.32312,-7.03297 -16.60727,-9.48564 -1.03426,-1.22634 -2.27537,-2.52655 -1.13769,-1.18201 -2.65953,-2.05375 -14.92291,-8.48094 -34.14539,-17.78929 c -16.71071,-8.11155 -19.385,-20.16808 -14.31712,-37.11519 4.84624,-16.23788 11.11092,-30.52547 7.86038,-48.38862 -0.78308,-4.3439 -0.23639,-7.87516 -0.19208,-12.14518 z"
     id="path87"
     style="display:inline;stroke-width:1.47752" />
  <path
     fill="#fbfcfc"
     d="m 543.96022,358.32623 a 7.3137018,6.7817962 85.4 0 1 -7.3465,-6.74634 7.3137018,6.7817962 85.4 0 1 6.17336,-7.83407 7.3137018,6.7817962 85.4 0 1 7.3465,6.74633 7.3137018,6.7817962 85.4 0 1 -6.17336,7.83408 z"
     id="path88"
     style="display:inline;stroke-width:1.47752" />
  <path
     fill="#002b3e"
     d="m 376.13072,390.45303 a 17.966588,17.597209 44.4 0 1 -25.14879,0.002 17.966588,17.597209 44.4 0 1 -0.52453,-25.14332 17.966588,17.597209 44.4 0 1 25.1488,-0.001 17.966588,17.597209 44.4 0 1 0.52452,25.14332 z"
     id="path89"
     style="display:inline;stroke-width:1.47752" />
  <path
     fill="#c2d7dd"
     d="m 195.18235,400.56234 q -3.90064,30.58457 4.13704,60.22354 1.68437,6.2351 7.94904,24.21646 -1.44797,18.39508 -1.24111,34.1454 c 0.38414,29.63896 4.46208,61.61239 13.74088,90.21708 3.14711,9.67774 6.23512,19.71006 10.20965,28.73769 15.24795,34.52954 35.72631,63.85823 61.1839,91.05928 q 0.47281,0.51713 0.53191,1.21155 l 0.059,0.90129 q 0.0739,0.94561 1.01949,0.79786 0.96039,-0.14775 1.64004,0.66489 0.28073,0.32505 0.31028,0.73876 0.14775,1.61048 0.69443,-0.0739 -1.0638,17.64154 9.89936,30.65844 a 3.2800844,3.2800844 0 0 1 0.39893,3.63469 q -3.61992,6.91478 -3.02891,15.15931 -0.33983,0.11828 -0.69443,0.25118 -0.75354,-2.12762 -2.0833,-2.92547 -0.59101,-0.35461 -0.73876,-1.03427 -0.19208,-0.94561 -0.72398,-1.49229 C 293.37793,772.4973 286.90641,767.2078 281.80898,762.00695 259.39511,739.13501 238.50304,713.79562 223.0039,687.80613 190.32126,633.03461 172.20692,568.95477 175.23582,505.11133 q 1.01948,-21.5865 4.35867,-44.26636 c 1.47752,-10.07665 4.24047,-21.66039 6.23512,-32.56445 q 0.60578,-3.36873 3.17665,-10.23918 c 0.97517,-2.60043 1.13769,-6.54539 3.63469,-9.36745 q 0.47281,-0.5319 0.5319,-1.2411 0.33983,-3.63469 2.00943,-6.87046 z"
     id="path90"
     style="display:inline;stroke-width:1.47752" />
  <path
     fill="#fbfcfc"
     d="m 523.78179,471.49786 c 3.54605,6.75225 7.63876,13.69657 9.98801,20.43404 q 5.03833,14.391 5.40771,29.66851 c -66.60641,2.497 -121.93936,50.0139 -118.5854,119.82651 l 0.0887,8.79122 q 0,0.31027 -0.2955,0.45803 l -0.75353,0.33983 q -0.57623,0.28073 -0.69442,0.91605 c -2.85161,16.60729 -1.03427,29.91969 5.55546,43.70491 q 0.81262,1.69914 -0.94562,1.00472 -5.93962,-2.36404 -11.17002,-6.4863 -11.83489,-9.35267 -22.65031,-19.82826 C 363.4714,644.91386 341.63372,607.16333 339.40266,570.00382 a 1.8468944,1.8321192 19.7 0 0 -0.59101,-1.24111 q -4.31433,-3.9893 -6.85566,-5.82142 -23.71412,-17.03575 -45.64046,-36.3321 c -10.80063,-9.50043 -21.79336,-18.69057 -31.85524,-28.98886 a 2.3640248,2.3344746 77.1 0 0 -0.85696,-0.54668 q -0.67965,-0.22162 -0.97515,-0.67965 -2.96981,-4.5212 -6.94433,-7.3728 -13.03168,-28.05803 -18.30641,-59.55866 -0.25118,-1.55139 1.30021,-1.7878 32.78607,-5.03831 64.74473,3.67902 c 16.22312,4.43254 35.94795,13.57836 53.32355,20.95118 q 35.56379,15.11498 74.09739,18.73489 48.63981,4.55074 102.9385,0.45803 z m -232.76927,18.32947 a 6.5010682,6.5010682 0 0 0 -5.68562,-7.22505 l -1.2324,-0.14701 a 6.5010682,6.5010682 0 0 0 -7.22505,5.68563 l -0.24498,2.05403 a 6.5010682,6.5010682 0 0 0 5.68563,7.22505 l 1.2324,0.14701 a 6.5010682,6.5010682 0 0 0 7.22505,-5.68563 z m 123.02534,119.50721 a 7.8308323,7.3875775 89.2 0 0 7.27749,-7.93322 7.8308323,7.3875775 89.2 0 0 -7.49617,-7.72697 7.8308323,7.3875775 89.2 0 0 -7.2775,7.93323 7.8308323,7.3875775 89.2 0 0 7.49618,7.72696 z"
     id="path91"
     style="display:inline;stroke-width:1.47752" />
  <path
     fill="#c2ffb7"
     d="m 648.83871,447.91671 q 7.28414,2.45268 16.60727,9.48565 c 12.94304,9.78116 24.43811,18.6167 33.25887,29.13661 q 1.8469,2.2015 4.21093,4.04839 -6.85568,1.86167 -10.65288,-0.41371 -4.01886,-2.42311 -13.65225,-10.56423 c -10.09144,-8.54003 -19.63619,-15.36616 -29.90492,-22.56166 q -4.60984,-3.22098 0.13298,-9.13105 z"
     id="path92"
     style="display:inline;stroke-width:1.47752" />
  <path
     fill="#c5d2da"
     d="m 290.76755,491.88136 a 6.5010682,6.5010682 0 0 1 -7.22505,5.68563 l -1.2324,-0.14701 a 6.5010682,6.5010682 0 0 1 -5.68563,-7.22505 l 0.24498,-2.05403 a 6.5010682,6.5010682 0 0 1 7.22505,-5.68563 l 1.2324,0.14701 a 6.5010682,6.5010682 0 0 1 5.68562,7.22505 z"
     id="path94"
     style="display:inline;stroke-width:1.47752" />
  <path
     fill="#91b1bc"
     d="m 207.26843,485.00234 c 17.39035,45.90643 44.81303,85.04581 82.17941,116.51689 1.27066,1.07858 2.03896,2.74818 2.31969,4.19613 q 3.812,19.26681 13.75568,36.22869 4.59507,7.81606 9.50042,16.26744 -8.48094,1.89123 -13.29765,7.41713 -9.48563,4.15182 -11.14047,12.88394 c -2.12762,11.21433 2.33448,18.30642 8.14112,27.18628 a 4.5064223,4.5064223 0 0 1 0.51713,3.88587 q -3.81199,11.65759 -3.82677,23.81754 -0.54668,1.68437 -0.69442,0.0739 -0.0296,-0.41372 -0.31028,-0.73876 -0.67966,-0.81264 -1.64004,-0.66489 -0.94562,0.14774 -1.0195,-0.79786 l -0.059,-0.90129 q -0.059,-0.69442 -0.5319,-1.21156 c -25.4576,-27.20105 -45.93596,-56.52973 -61.18391,-91.05927 -3.97453,-9.02763 -7.06254,-19.05996 -10.20963,-28.73769 -9.27881,-28.60469 -13.35674,-60.57812 -13.7409,-90.21708 q -0.20685,-15.75033 1.24112,-34.1454 z"
     id="path95"
     style="display:inline;stroke-width:1.47752" />
  <path
     fill="#c5d2da"
     d="m 245.68382,489.0212 q 3.97452,2.8516 6.94433,7.3728 0.2955,0.45803 0.97515,0.67965 a 2.3640248,2.3344746 77.1 0 1 0.85696,0.54668 c 10.06188,10.29829 21.05461,19.48843 31.85524,28.98886 q 21.92634,19.29635 45.64046,36.3321 2.54133,1.83212 6.85566,5.82142 a 1.8468944,1.8321192 19.7 0 1 0.59101,1.24111 c 2.23106,37.15951 24.06874,74.91004 50.32418,100.3233 q 10.81542,10.47559 22.65032,19.82826 5.2304,4.12226 11.17002,6.4863 1.75823,0.69442 0.9456,-1.00472 c -6.58972,-13.78522 -8.40707,-27.09762 -5.55545,-43.70491 q 0.11815,-0.63532 0.69443,-0.91605 l 0.75353,-0.33983 q 0.2955,-0.14776 0.2955,-0.45803 l -0.0887,-8.79122 c 1.65481,33.27365 20.8773,63.5184 42.84795,87.2473 q 1.62527,1.75824 -0.69444,1.21155 c -4.25524,-0.98993 -8.99806,-1.00471 -12.98736,-2.00942 -15.52868,-3.91542 -31.29378,-12.8396 -44.32547,-22.08886 -35.51946,-25.22119 -78.08668,-67.552 -81.15992,-113.96076 q -0.059,-0.75354 -0.50235,-1.35933 -3.221,-4.41776 -5.9544,-6.72268 C 286.96555,557.93252 260.8283,526.50576 245.68376,489.0212 Z"
     id="path96"
     style="display:inline;stroke-width:1.47752" />
  <path
     fill="#20e12d"
     d="m 743.87251,545.72824 q 16.88799,27.73296 27.68863,58.48006 12.92827,35.96273 12.66232,74.12696 c -0.36938,50.87086 -32.93383,94.04386 -70.182,125.54449 q -1.50706,1.27067 -2.74818,1.03425 a 1.4922907,1.5070658 17.3 0 1 -1.09335,-2.09806 c 5.36338,-11.894 12.89871,-20.78864 -3.59036,-28.9593 q -10.06188,-4.99401 -20.8773,-8.09679 C 657.95498,757.79604 632.55649,750.64486 603.2869,739.71125 565.09313,723.87229 531.3319,706.98427 504.7514,676.05988 494.11328,663.6783 480.46104,640.39266 464.43,635.97489 q -5.99871,-1.66959 -12.13041,-3.75289 0.19208,-2.99936 0.56146,-6.67837 c 1.86166,-18.51327 7.6092,-33.67258 19.99078,-46.18714 22.75374,-22.97536 56.382,-30.0379 87.64622,-25.75309 q 11.31776,4.7576 22.5469,9.72205 7.6683,3.39829 14.08072,7.74218 6.75224,4.56552 13.34197,9.41177 0.63532,0.48759 0.19207,1.13769 -0.48758,0.69443 -1.906,0.44325 -16.7698,-2.70385 -30.55501,-3.45738 c -7.69787,-0.4137 -19.38501,-0.51713 -24.65975,7.37279 -4.25523,6.38287 -1.77301,15.27753 4.47688,19.20772 q 3.19144,2.00941 9.82548,2.54132 16.01626,1.28544 31.76658,4.4621 c 5.09743,1.03426 11.30299,1.40363 16.44474,2.82205 q 13.2681,3.66424 28.30921,9.35268 c 9.33789,3.51648 19.04516,9.20491 27.77729,13.20898 10.68243,4.89059 21.51263,-0.45802 20.41927,-13.17944 -0.72399,-8.46616 -10.54947,-21.92632 -15.48437,-29.44688 q 0.91607,0.25118 1.37409,-0.2955 0.13297,-0.14776 0.20686,-0.45804 0.10347,-0.36938 0.35459,-0.0887 0.94562,0.97515 0.75353,2.06852 -0.13297,0.73876 0.62056,0.85696 1.35932,0.22162 1.80257,1.52185 0.1773,0.50234 0.47281,0.0443 0.73875,-1.13769 -0.20685,-2.46745 -0.29551,-0.41371 -0.0443,-0.85696 c 0.87174,-1.56616 5.24518,-2.0242 7.16595,-3.54604 q 2.00942,-1.59572 4.29958,-2.76295 5.39292,-2.74819 9.81069,-6.88523 0.20686,-0.19207 0.22164,-0.39892 0.0148,-0.10348 0,-0.22164 -0.0148,-0.20684 0.16251,-0.35459 7.52056,-5.82141 14.40578,-12.38159 2.68909,-2.57087 5.59978,-4.8758 l 7.01821,-5.55545 q 0.59101,-0.47282 1.31498,-0.70921 1.97987,-0.66488 2.96981,-3.13233 1.13768,-2.86638 4.35867,-5.64411 0.51714,-0.44327 1.19678,-0.59101 1.96511,-0.41371 2.94027,-2.48222 z M 566.4229,570.0777 c -9.66295,-12.61799 -25.29507,-12.52933 -39.67129,-10.07666 q -20.86252,3.56081 -36.30257,15.82419 c -6.02826,4.78716 -12.14517,10.60856 -12.66229,17.71541 q -0.38417,5.17131 5.51113,7.81606 0.591,0.28072 1.2411,0.13297 c 4.31435,-0.96039 9.14582,-5.20086 13.34197,-8.52527 17.7745,-14.08071 41.6807,-20.13852 64.06507,-19.65094 q 2.18672,0.0443 3.66424,-0.47281 a 1.7730187,1.7877937 61.3 0 0 0.81264,-2.76295 z m 70.19676,56.52973 c -4.18137,-2.46745 -8.24454,-4.66894 -13.0317,-5.71798 -4.66894,-1.01948 -9.64817,-2.80728 -13.79998,-3.72334 q -19.23726,-4.21092 -38.85866,-5.27473 c -10.74155,-0.59099 -22.97537,0.11815 -34.47044,0.47281 -7.0773,0.22163 -14.73083,1.46273 -12.47023,9.6925 1.22634,4.403 6.17601,4.66895 9.88457,4.15182 28.17623,-3.84154 53.54516,-2.21627 83.70126,3.11756 4.01885,0.70921 16.31177,5.39293 19.7396,1.03426 a 2.5413267,2.5413267 0 0 0 -0.69442,-3.7529 z"
     id="path97"
     style="display:inline;stroke-width:1.47752" />
  <path
     fill="#17bc64"
     d="m 560.49805,553.6034 c 28.17623,3.10278 49.58543,15.67643 69.57621,34.72161 q 1.07858,1.01948 -0.32506,0.53191 c -2.62997,-0.91607 -4.83146,-2.7334 -7.31369,-3.39829 q -6.7818,-1.80256 -13.6818,-3.39829 1.41842,0.25118 1.906,-0.44325 0.44325,-0.6501 -0.19207,-1.13769 -6.58973,-4.84625 -13.34197,-9.41177 -6.41242,-4.34389 -14.08072,-7.74218 -11.22914,-4.96445 -22.5469,-9.72205 z"
     id="path98"
     style="display:inline;stroke-width:1.47752" />
  <path
     fill="#fbfcfc"
     d="m 526.75161,560.00104 c 14.37622,-2.45267 30.00834,-2.54133 39.67129,10.07666 a 1.7730187,1.7877937 61.3 0 1 -0.81264,2.76295 q -1.47752,0.51713 -3.66424,0.47281 c -22.38437,-0.48758 -46.29057,5.57023 -64.06507,19.65094 -4.19615,3.32441 -9.02762,7.56488 -13.34197,8.52527 q -0.6501,0.14775 -1.2411,-0.13297 -5.8953,-2.64475 -5.51113,-7.81606 c 0.51712,-7.10685 6.63403,-12.92825 12.66229,-17.71541 q 15.44005,-12.26338 36.30257,-15.82419 z"
     id="path100"
     style="display:inline;stroke-width:1.47752" />
  <path
     fill="#0aa355"
     d="m 791.46329,566.33958 c 30.39249,60.81453 41.17835,142.69845 -3.57559,200.18859 q -17.49379,22.45823 -40.51349,39.18371 a 1.6843676,1.6843676 0 0 1 -1.52183,0.25117 q -1.01948,-0.31028 -1.35931,0.3546 a 0.7239826,0.73875775 23.6 0 1 -0.90129,0.3546 q -1.4923,-0.54668 -3.19144,-0.2955 -0.6501,0.10348 -1.22633,0.45802 -12.79529,7.96382 -25.36894,16.26745 -9.79594,6.45675 -18.5576,10.56424 -13.47494,6.29423 -27.21583,11.92355 c -7.43191,3.0289 -16.59251,5.03833 -22.99015,7.15118 q -22.42868,7.38757 -33.21455,10.00278 -26.90554,6.53061 -54.31347,10.57902 -2.82205,0.41369 -5.73277,0.44324 -0.7683,0 -0.73875,-0.7683 0.75353,-20.3454 -20.69998,-21.32056 7.47622,-2.31969 14.93768,-3.5017 3.72334,-0.60579 5.25995,-1.27066 c 22.75373,-10.00278 44.16294,-14.37624 66.56208,-21.08416 3.79721,-1.12291 10.32783,-3.70855 15.75031,-4.81669 q 0.97517,-0.19208 0.98994,-0.98994 a 0.76830807,0.76830807 0 0 0 -0.51714,-0.72399 l -8.18543,-2.89593 q -0.45802,-0.16252 -0.85696,-0.42847 -0.72398,-0.47281 -2.1424,-0.75354 -10.74154,-2.03897 -16.23789,-2.55609 -5.24518,-0.50237 -9.4561,-1.5514 c -4.97923,-1.22634 -9.30835,-2.39357 -12.70663,-2.23105 q -8.54005,0.42849 -16.96188,-0.45802 40.76465,-3.54604 72.3687,1.83211 17.93705,3.05846 35.82977,6.26467 c 4.07793,0.72398 8.92419,1.71392 12.79528,0.98993 15.30705,-2.83683 15.89806,-23.44818 1.27065,-28.02847 q -11.79056,-3.69379 -26.59527,-6.04303 c -23.18222,-3.67902 -46.79292,-6.23512 -69.56143,-12.02698 q 1.49228,-1.62527 3.93019,-0.51713 0.29551,0.14774 0.39892,-0.17731 0.10348,-0.29551 -0.16252,-0.20684 a 0.35460372,0.35460372 0 0 1 -0.33983,-0.0739 q -1.10814,-1.03426 -0.2364,-1.75824 a 1.1524621,1.1524621 0 0 0 0.35461,-1.28545 q -0.42848,-1.19678 0.33982,-2.42312 0.36938,-0.60579 0.4137,-1.30021 l 0.25118,-3.38351 q 0.059,-0.67965 0.47281,-1.19679 1.10813,-1.35931 1.00471,-3.54604 -0.059,-1.24111 1.13769,-1.83212 0.4728,-0.23641 0.4728,-0.7683 v -0.75354 q 0,-0.59101 0.56145,-0.8274 1.01949,-0.44326 1.00472,-1.75824 -0.059,-2.45268 1.25589,-3.78245 0.20684,-0.20684 0.4137,0 0.22163,0.2364 0.16253,0.36938 a 0.12183905,0.12183905 0 0 1 -0.2364,-0.059 q 0.35459,-2.15717 -0.26595,-3.2062 -0.75354,-1.25588 0.2364,-1.99465 0.7092,-0.53191 0,-0.35461 -0.0887,0.0148 -0.17731,0.0296 a 0.33982856,0.73875775 83.1 0 1 -0.75353,-0.23641 q -0.059,-0.32505 0.16252,-0.65011 c 29.26959,10.93362 54.66808,18.0848 82.44537,26.04861 q 10.81542,3.10277 20.8773,8.09679 c 16.48907,8.17065 8.95374,17.06529 3.59036,28.95929 a 1.4922907,1.5070658 17.3 0 0 1.09335,2.09808 q 1.24112,0.2364 2.74818,-1.03426 c 37.24817,-31.50063 69.81262,-74.67363 70.182,-125.54449 q 0.26595,-38.16423 -12.66232,-74.12697 l 1.01949,0.059 a 0.14775155,0.13297639 81.7 0 1 0.0887,0.0739 q 0.13297,0.32505 -0.10347,0.48757 -0.33982,0.23641 0.0443,0.41371 0.75355,0.35461 1.04905,-0.42848 0.1773,-0.50235 0.059,-0.94561 -0.14774,-0.45802 0.14776,-0.84218 0.85694,-1.12291 0.67965,-2.45268 -0.10347,-0.84218 0.70921,-1.07858 1.59571,-0.45804 1.86167,-1.97988 0.13297,-0.73875 0.57623,-1.34453 5.95438,-7.86038 7.44668,-10.1062 0.2955,-0.45804 0.059,-0.91607 -0.25118,-0.50235 0.0443,-0.97516 3.14711,-4.9349 4.71329,-10.579 a 0.50235527,0.50235527 0 0 1 0.45802,-0.35462 q 0.23641,0 0.42848,0 0.17731,0 0.0739,-0.14774 -0.48758,-0.70921 0.0148,-1.21157 0.28072,-0.28072 0.22163,0.11815 -0.0739,0.53191 0.16252,1.00472 a 0.22162733,0.22162733 0 0 0 0.35461,0.0739 l 0.2955,-0.2955 q 0.13298,-0.13299 0.11826,-0.31028 l -0.22162,-3.07323 q -0.0443,-0.57623 -0.48759,-0.9456 -1.44796,-1.21157 0.0887,-2.11286 z"
     id="path101"
     style="display:inline;stroke-width:1.47752" />
  <path
     fill="#c2d7dd"
     d="m 414.03786,609.33454 a 7.8308323,7.3875775 89.2 0 1 -7.49618,-7.72696 7.8308323,7.3875775 89.2 0 1 7.2775,-7.93323 7.8308323,7.3875775 89.2 0 1 7.49617,7.72697 7.8308323,7.3875775 89.2 0 1 -7.27749,7.93322 z"
     id="path102"
     style="display:inline;stroke-width:1.47752" />
  <path
     fill="#e6eef0"
     d="m 623.58796,620.88945 c 4.78716,1.04904 8.85033,3.25053 13.0317,5.71798 a 2.5413267,2.5413267 0 0 1 0.69442,3.7529 c -3.42783,4.35867 -15.72075,-0.32505 -19.7396,-1.03426 -30.1561,-5.33383 -55.52503,-6.9591 -83.70126,-3.11756 -3.70856,0.51713 -8.65823,0.25118 -9.88457,-4.15182 -2.2606,-8.22977 5.39293,-9.47087 12.47023,-9.6925 11.49507,-0.35461 23.72889,-1.0638 34.47044,-0.47281 q 19.6214,1.06381 38.85866,5.27473 c 4.15181,0.91606 9.13104,2.70386 13.79998,3.72334 z"
     id="path103"
     style="display:inline;stroke-width:1.47752" />
  <path
     fill="#17bc64"
     d="m 452.29959,632.222 q 6.1317,2.0833 12.13041,3.75289 c 16.03104,4.41777 29.68328,27.70341 40.3214,40.08499 26.5805,30.92439 60.34173,47.81241 98.5355,63.65137 q -0.22162,0.32506 -0.16252,0.6501 a 0.33982856,0.73875775 83.1 0 0 0.75353,0.23641 q 0.0887,-0.0148 0.17731,-0.0296 0.7092,-0.17731 0,0.35461 -0.98994,0.73876 -0.2364,1.99465 0.62054,1.04903 0.26595,3.2062 a 0.12183905,0.12183905 0 0 0 0.2364,0.059 q 0.059,-0.13297 -0.16253,-0.36937 -0.20686,-0.20686 -0.4137,0 -1.315,1.32976 -1.25589,3.78244 0.0148,1.31498 -1.00472,1.75825 -0.56145,0.23639 -0.56145,0.8274 v 0.75353 q 0,0.5319 -0.4728,0.7683 -1.19679,0.59101 -1.13769,1.83213 0.10347,2.18673 -1.00471,3.54603 -0.41371,0.51714 -0.47281,1.1968 l -0.25118,3.3835 q -0.0443,0.69443 -0.4137,1.30021 -0.7683,1.22634 -0.33982,2.42313 a 1.1524621,1.1524621 0 0 1 -0.35461,1.28545 q -0.87174,0.72397 0.2364,1.75823 a 0.35460372,0.35460372 0 0 0 0.33983,0.0739 q 0.26596,-0.0887 0.16252,0.20685 -0.10347,0.32505 -0.39892,0.1773 -2.43791,-1.10814 -3.93019,0.51714 Q 523.9591,753.33381 478.92442,699.7 C 463.1741,680.9356 453.31909,657.04418 452.29959,632.22191 Z"
     id="path104"
     style="display:inline;stroke-width:1.47752" />
  <path
     fill="#0aa355"
     d="m 315.02363,658.21149 q 4.47688,5.95439 9.02762,11.89401 c 16.22312,21.18757 33.11112,35.00233 51.10725,50.8413 q 0.7831,0.67967 -0.25118,0.79786 c -15.39569,1.77302 -34.14537,13.94775 -45.81775,23.71412 a 1.3002137,1.3002137 0 0 1 -2.09807,-0.7092 c -2.7925,-12.0122 -0.22161,-23.78801 0.93083,-35.7411 1.6696,-17.25739 -13.59313,-34.24881 -26.19635,-43.37986 q 4.81671,-5.5259 13.29765,-7.41713 z"
     id="path105"
     style="display:inline;stroke-width:1.47752" />
  <path
     fill="#17bc64"
     d="m 454.70794,771.66992 c -9.1606,-5.76231 -20.33061,-7.49101 -33.49527,-7.49101 q -10.90407,0 -16.26746,-1.43319 -7.09206,-1.89122 -9.29356,-2.24582 -0.13298,-0.0148 -0.13298,-0.14776 0,-0.19207 0.0148,-0.38415 0,-0.25118 -0.25116,-0.33983 -2.76298,-1.07859 -5.70322,-0.9456 c -2.0242,0.0887 -3.82677,-1.0195 -5.86574,-1.13769 q -5.37815,-0.32506 -10.87451,-0.56146 8.77644,-1.18202 17.37558,-0.0887 c 10.84497,1.38885 21.77859,2.71862 32.74174,2.83681 q 16.48908,0.20687 32.97814,0.62056 1.90601,0.0443 3.05848,0.44327 a 1.1524621,1.1376869 23.7 0 1 0.63532,1.61048 z"
     id="path106"
     style="display:inline;stroke-width:1.47752" />
  <path
     fill="#20e12d"
     d="m 372.83882,756.98341 q 5.49635,0.2364 10.8745,0.56146 c 2.03897,0.11814 3.84155,1.22633 5.86575,1.13769 q 2.94024,-0.13299 5.7032,0.9456 0.25117,0.0887 0.25117,0.33983 -0.0148,0.19208 -0.0148,0.38415 0,0.13298 0.13297,0.14776 2.20151,0.3546 9.29357,2.24582 5.36339,1.43319 16.26746,1.43319 c 13.16465,0 24.33467,1.7287 33.49526,7.49101 -9.86979,15.61733 -30.61411,28.97407 -46.64515,36.79013 q -5.61457,2.74818 -9.07195,2.74818 c -3.79722,0.0148 -11.14047,-2.58566 -10.63811,-7.65353 0.45803,-4.49164 1.30021,-9.54475 0.44325,-13.69658 q -2.27533,-10.96316 -13.72608,-12.97258 c -11.89399,-2.08329 -28.11712,10.2244 -38.40063,3.30964 a 1.5513912,1.5513912 0 0 1 -0.25118,-2.34925 q 5.96917,-6.32378 12.98737,-11.70193 5.03833,-3.84153 11.15525,-5.83618 6.05781,-1.97987 12.27816,-3.32441 z"
     id="path107"
     style="display:inline;stroke-width:1.47752" />
  <path
     fill="#0aa355"
     d="m 520.23575,790.25706 c -10.69721,3.20621 -22.5321,9.01284 -31.95865,14.0364 q -0.17729,0.0887 -0.32506,-0.0443 -0.16252,-0.16254 -0.14774,-0.38415 0.0148,-0.11828 0.13297,-0.22163 15.97195,-14.95245 28.04324,-32.37237 a 1.4922907,1.4922907 0 0 1 2.11285,-0.35461 q 9.64818,6.97388 20.36017,12.08609 2.48223,1.18201 -0.16253,1.93554 -8.34797,2.40834 -18.05525,5.31906 z"
     id="path108"
     style="display:inline;stroke-width:1.47752" />
  <path
     fill="#c5d2da"
     d="m 301.99195,783.10588 q 0.35459,-0.13298 0.69442,-0.25118 1.37409,11.21434 9.82549,19.00085 c 12.1895,11.22912 23.84709,10.88929 38.5336,12.76574 7.55011,0.96038 12.29292,10.80064 16.9471,15.18886 q 17.80406,16.75502 41.34089,10.18008 7.86037,1.61049 10.57901,2.94025 10.04711,4.87581 16.4152,6.70793 2.11284,0.62056 3.3835,1.4775 a 1.3445391,1.3593142 20.6 0 1 0.56146,1.2559 q -0.22163,2.09806 0.25118,4.01884 -2.51179,9.48565 0.6501,18.63146 0.85696,2.46745 1.61049,5.14176 0.20686,0.75354 -0.57623,0.67965 -4.75759,-0.42847 -6.6045,-0.82739 -25.81219,-5.55547 -50.81175,-14.58308 l 2.27537,-0.47281 q 1.38887,-0.28072 0.0739,-0.84218 c -4.83147,-2.03897 -10.09144,-3.70857 -14.0955,-6.81135 q -4.38821,-3.38351 -9.42655,-8.70257 -3.16188,-3.33919 -8.89464,-4.21092 c -12.83962,-1.97986 -20.62612,-4.56552 -29.60942,-10.29829 -11.02225,-7.06251 -20.10897,-10.20962 -22.19228,-25.22118 q -1.47752,-10.71198 -2.14239,-18.38029 -0.0443,-0.67966 0.19208,-1.31499 0.33983,-0.90129 1.03425,-1.41841 0.45804,-0.33984 0.47282,-0.91605 0.0443,-2.05376 -0.48759,-3.73813 z"
     id="path109"
     style="display:inline;stroke-width:1.47752" />
  <path
     fill="#20e12d"
     d="m 566.7775,808.41573 q 8.42183,0.88651 16.96188,0.45802 c 3.39828,-0.16252 7.7274,1.00471 12.70663,2.23105 q 4.21092,1.04903 9.4561,1.5514 5.49635,0.51712 16.23789,2.55609 1.41842,0.28073 2.1424,0.75354 0.39894,0.26595 0.85696,0.42847 l 8.18543,2.89593 a 0.76830807,0.76830807 0 0 1 0.51714,0.72399 q -0.0148,0.79786 -0.98994,0.98994 c -5.42248,1.10814 -11.9531,3.69378 -15.75031,4.81669 -22.39914,6.70792 -43.80835,11.08138 -66.56208,21.08416 q -1.53661,0.66487 -5.25995,1.27066 -7.46146,1.18201 -14.93768,3.5017 c -17.30171,2.92549 -22.10364,27.39315 -39.36102,31.95868 q -9.38222,2.48222 -16.14924,-4.77238 c -9.47088,-10.15055 -3.97451,-23.34475 6.05781,-30.37772 q 0.13298,-0.0887 0.26596,-0.0148 0.19207,0.0887 0.32505,0.22162 0.059,0.059 0.22161,-0.13298 l 6.6636,-8.33318 q 0.42849,-0.53191 1.0786,-0.70921 c 1.74346,-0.47281 2.48222,-1.83213 3.56081,-2.64476 q 13.41584,-10.19485 28.98885,-16.45952 1.52184,-0.60579 6.17603,-1.81734 c 2.85159,-0.73875 5.43725,-2.03898 8.17065,-2.80728 3.97452,-1.12292 7.7274,-2.88116 11.56895,-3.73812 q 9.36745,-2.11284 18.86787,-3.63467 z"
     id="path110"
     style="display:inline;stroke-width:1.47752" />
  <path
     fill="#91b1bc"
     d="m 440.5238,856.39065 q -0.47281,-1.92078 -0.25118,-4.01884 a 1.3445391,1.3593142 20.6 0 0 -0.56146,-1.2559 q -1.27066,-0.85694 -3.3835,-1.4775 -6.36809,-1.83212 -16.4152,-6.70793 -2.71864,-1.32976 -10.57901,-2.94025 c 11.55416,-2.86638 19.88735,-8.03769 29.68328,-14.36146 q 0.54669,-0.3546 1.18202,-0.20684 l 16.85844,3.79721 q 0.98993,0.22163 0.32506,0.98993 c -8.21499,9.55953 -13.71135,15.45481 -16.85845,26.18158 z"
     id="path111"
     style="display:inline;stroke-width:1.47752" />
</svg>
