<?xml version="1.0" encoding="UTF-8" standalone="no"?>
<svg
   width="32"
   height="32"
   version="1.1"
   xml:space="preserve"
   style="clip-rule:evenodd;fill-rule:evenodd;stroke-linejoin:round;stroke-miterlimit:1.41421"
   id="svg3"
   sodipodi:docname="share-telegram-symbolic.svg"
   inkscape:version="1.2.1 (9c6d41e410, 2022-07-14)"
   xmlns:inkscape="http://www.inkscape.org/namespaces/inkscape"
   xmlns:sodipodi="http://sodipodi.sourceforge.net/DTD/sodipodi-0.dtd"
   xmlns="http://www.w3.org/2000/svg"
   xmlns:svg="http://www.w3.org/2000/svg"><defs
     id="defs7" /><sodipodi:namedview
     id="namedview5"
     pagecolor="#ffffff"
     bordercolor="#666666"
     borderopacity="1.0"
     inkscape:showpageshadow="2"
     inkscape:pageopacity="0.0"
     inkscape:pagecheckerboard="0"
     inkscape:deskcolor="#d1d1d1"
     showgrid="false"
     inkscape:zoom="15.129139"
     inkscape:cx="14.938061"
     inkscape:cy="13.02123"
     inkscape:window-width="1920"
     inkscape:window-height="995"
     inkscape:window-x="0"
     inkscape:window-y="0"
     inkscape:window-maximized="1"
     inkscape:current-layer="svg3" /><path
     id="telegram-1"
     d="m 24.511972,29.371597 c 0.429323,0.303993 0.982644,0.379991 1.475966,0.193329 0.493322,-0.187996 0.855981,-0.609319 0.965312,-1.119974 1.15864,-5.44521 3.969243,-19.2275626 5.023885,-24.1807832 0.08,-0.3733248 -0.05333,-0.761316 -0.346659,-1.0106436 C 31.33715,3.0041975 30.930492,2.9321992 30.567834,3.0668628 24.977295,5.1361489 7.7603537,11.596002 0.72318074,14.199942 0.27652425,14.365272 -0.01413584,14.794596 5.3045713e-4,15.265252 0.01653046,15.737241 0.33385625,16.146565 0.79117914,16.283895 c 3.15592806,0.943979 7.29850046,2.257282 7.29850046,2.257282 0,0 1.9359564,5.846534 2.9452664,8.819799 0.126664,0.373325 0.418657,0.666652 0.803982,0.767983 0.383991,0.1 0.794648,-0.0053 1.081308,-0.275994 1.621297,-1.530632 4.127907,-3.897245 4.127907,-3.897245 0,0 4.762557,3.491921 7.463829,5.415877 z m -14.6796655,-11.56907 2.2386155,7.383832 0.497322,-4.675894 c 0,0 8.649136,-7.801155 13.579691,-12.2477205 0.143996,-0.1306637 0.163996,-0.3493254 0.044,-0.5026553 C 26.07327,7.6067594 25.854608,7.5707602 25.690612,7.6747578 19.976075,11.324008 9.8323065,17.802527 9.8323065,17.802527 Z"
     style="stroke-width:1.3333;fill:#bebebe;fill-opacity:1" /></svg>
