<?xml version="1.0" encoding="UTF-8" standalone="no"?>
<svg
        width="32"
        height="32"
        viewBox="0 0 29.999996 30"
        version="1.1"
        id="svg6"
        sodipodi:docname="share-mastodon-symbolic.svg"
        inkscape:version="1.2.1 (9c6d41e410, 2022-07-14)"
        xmlns:inkscape="http://www.inkscape.org/namespaces/inkscape"
        xmlns:sodipodi="http://sodipodi.sourceforge.net/DTD/sodipodi-0.dtd"
        xmlns="http://www.w3.org/2000/svg"
>
    <defs
            id="defs10"/>
    <sodipodi:namedview
            id="namedview8"
            pagecolor="#ffffff"
            bordercolor="#666666"
            borderopacity="1.0"
            inkscape:showpageshadow="2"
            inkscape:pageopacity="0.0"
            inkscape:pagecheckerboard="0"
            inkscape:deskcolor="#d1d1d1"
            inkscape:document-units="mm"
            showgrid="false"
            inkscape:zoom="11.737631"
            inkscape:cx="26.495977"
            inkscape:cy="22.491762"
            inkscape:window-width="1920"
            inkscape:window-height="995"
            inkscape:window-x="0"
            inkscape:window-y="0"
            inkscape:window-maximized="1"
            inkscape:current-layer="svg6"/>
    <path
            id="path2"
            d="m 14.955569,0 c -3.85472,0.0314 -7.5626704,0.44668 -9.7235557,1.43407 0,0 -4.28567511,1.9074 -4.28567511,8.41528 0,1.49023 -0.0291068,3.27206 0.0183222,5.16168 0.15562521,6.36435 1.17263861,12.63672 7.08671261,14.19419 2.726854,0.71812 5.068166,0.86858 6.953696,0.76546 3.419358,-0.18863 5.33889,-1.21413 5.33889,-1.21413 L 20.23116,26.28806 c 0,0 -2.443548,0.76654 -5.187779,0.67312 -2.718894,-0.0928 -5.5892281,-0.29167 -6.0289817,-3.61301 -0.040602,-0.29174 -0.060903,-0.6038 -0.060903,-0.93142 0,0 2.6690917,0.64914 6.0515867,0.80333 2.068278,0.0944 4.007809,-0.12055 5.977814,-0.35443 3.777883,-0.44885 7.067339,-2.76489 7.480769,-4.88111 0.651419,-3.33363 0.597759,-8.13519 0.597759,-8.13519 0,-6.50788 -4.285438,-8.41528 -4.285438,-8.41528 C 22.615269,0.44668 18.905016,0.03136 15.050286,0 Z m -4.362535,5.08496 c 1.60563,0 2.821379,0.61403 3.625335,1.84226 l 0.781694,1.30362 0.781705,-1.30362 c 0.803795,-1.22823 2.019544,-1.84226 3.625336,-1.84226 1.387633,0 2.50571,0.48536 3.359527,1.43219 0.827675,0.94683 1.23978,2.22673 1.23978,3.83722 v 7.87995 h -3.137752 v -7.6484 c 0,-1.61226 -0.681761,-2.43061 -2.045514,-2.43061 -1.50784,0 -2.263482,0.97065 -2.263482,2.89017 v 4.18645 h -3.119189 v -4.18645 c 0,-1.91952 -0.755884,-2.89017 -2.263723,-2.89017 -1.3637523,0 -2.0455133,0.81835 -2.0455133,2.43061 v 7.6484 H 5.9934856 v -7.87995 c 0,-1.61049 0.4121844,-2.89039 1.2400208,-3.83722 C 8.0871631,5.57032 9.20524,5.08496 10.593034,5.08496 Z"
            style="stroke-width:0.129631;fill:#bebebe;fill-opacity:1"/>
</svg>
