<?xml version="1.0" encoding="UTF-8" standalone="no"?>
<svg
   version="1.1"
   width="32"
   height="32"
   viewBox="0 0 32 32"
   xml:space="preserve"
   id="svg10"
   sodipodi:docname="share-reddit-symbolic.svg"
   inkscape:version="1.2.1 (9c6d41e410, 2022-07-14)"
   xmlns:inkscape="http://www.inkscape.org/namespaces/inkscape"
   xmlns:sodipodi="http://sodipodi.sourceforge.net/DTD/sodipodi-0.dtd"
   xmlns="http://www.w3.org/2000/svg"
   xmlns:svg="http://www.w3.org/2000/svg"><sodipodi:namedview
   id="namedview12"
   pagecolor="#ffffff"
   bordercolor="#666666"
   borderopacity="1.0"
   inkscape:showpageshadow="2"
   inkscape:pageopacity="0.0"
   inkscape:pagecheckerboard="0"
   inkscape:deskcolor="#d1d1d1"
   showgrid="false"
   inkscape:zoom="16.046875"
   inkscape:cx="15.703992"
   inkscape:cy="19.87926"
   inkscape:window-width="1920"
   inkscape:window-height="995"
   inkscape:window-x="0"
   inkscape:window-y="0"
   inkscape:window-maximized="1"
   inkscape:current-layer="g8" />

<defs
   id="defs2" />
<g
   style="opacity:1;fill:none;fill-rule:nonzero;stroke:none;stroke-width:0;stroke-linecap:butt;stroke-linejoin:miter;stroke-miterlimit:10;stroke-dasharray:none"
   transform="scale(0.35555556)"
   id="g8">
	<path
   id="circle4"
   style="opacity:1;fill:#bebebe;fill-rule:nonzero;stroke:none;stroke-width:1;stroke-linecap:butt;stroke-linejoin:miter;stroke-miterlimit:10;stroke-dasharray:none;fill-opacity:1"
   d="M 44.999999 0 A 45 45 0 0 0 0 44.999999 A 45 45 0 0 0 44.999999 89.999999 A 45 45 0 0 0 89.999999 44.999999 A 45 45 0 0 0 44.999999 0 z M 48.12561 17.973633 C 48.303875 17.941304 48.49317 17.942619 48.680419 17.984619 L 59.710693 20.192871 C 60.414692 18.961872 61.689963 18.129619 63.110961 17.984619 C 65.582959 17.715619 67.796795 19.506152 68.065795 21.978149 C 68.334795 24.450147 66.544262 26.664983 64.072265 26.932983 C 61.600267 27.201983 59.385431 25.41145 59.117431 22.939453 L 49.482421 20.917968 L 46.565551 34.953002 C 52.751545 35.087002 58.767996 37.000115 63.89099 40.490112 C 65.053989 39.383113 66.586633 38.722381 68.197631 38.666381 C 71.832627 38.543381 74.875154 41.376003 75.009154 44.999999 C 75.054154 47.527997 73.632678 49.857549 71.37268 50.987548 C 71.41768 51.647548 71.41768 52.305088 71.37268 52.965087 C 71.37268 63.054077 59.627807 71.240844 45.142822 71.240844 C 30.657836 71.240844 18.912964 63.043077 18.912964 52.965087 C 18.867964 52.305088 18.867964 51.647548 18.912964 50.987548 C 18.252964 50.696548 17.664657 50.282024 17.149658 49.801025 C 14.498661 47.318027 14.375523 43.157575 16.85852 40.517578 C 19.341518 37.86658 23.50197 37.743442 26.141967 40.22644 C 31.331962 36.714443 37.428633 34.790331 43.692626 34.689331 L 47.010497 19.072265 L 47.010497 19.050293 C 47.136497 18.479543 47.590813 18.070617 48.12561 17.973633 z M 34.519043 44.999999 C 32.036045 44.999999 30.009155 47.02689 30.009155 49.509887 C 30.009155 51.992885 32.025045 53.991282 34.519043 54.014282 C 37.00204 54.014282 39.02893 51.992885 39.02893 49.509887 C 39.02893 47.02689 37.00204 44.999999 34.519043 44.999999 z M 55.34912 45.153808 C 52.866123 45.153808 50.839233 47.180698 50.839233 49.663696 C 50.839233 52.146693 52.866123 54.173583 55.34912 54.173583 L 55.310668 54.338378 L 55.535888 54.338378 C 58.018885 54.237378 59.953515 52.147693 59.853515 49.663696 C 59.853515 47.180698 57.832118 45.153808 55.34912 45.153808 z M 34.848632 59.891967 C 34.575883 59.891967 34.303089 59.982125 34.079589 60.166625 C 33.56459 60.591625 33.489795 61.365493 33.914794 61.880492 C 37.114791 64.28549 41.027962 65.514679 45.032958 65.346679 C 49.037954 65.513679 52.952126 64.28549 56.151122 61.880492 L 56.151122 62.056274 C 56.643122 61.575274 56.654095 60.773981 56.173095 60.281982 C 55.691095 59.789982 54.885309 59.779009 54.39331 60.260009 C 51.653313 62.217007 48.34501 63.174605 44.989013 62.995605 C 41.634016 63.152605 38.335659 62.146623 35.628662 60.166625 C 35.399162 59.982125 35.121382 59.891967 34.848632 59.891967 z " />

</g>
</svg>
