<svg width="32" height="32" viewBox="0 0 32 32" fill="none" xmlns="http://www.w3.org/2000/svg">
<g clip-path="url(#clip0)">
<g filter="url(#filter0_d)">
<rect x="6.25" y="3.5" width="19.5" height="25.25" rx="1.75" fill="#F1F1ED"/>
</g>
<rect x="8" y="24" width="16" height="4" fill="#DCDCDC"/>
<rect x="8" y="18" width="16" height="4" fill="#DCDCDC"/>
<rect x="8" y="12" width="16" height="4" fill="#DCDCDC"/>
<rect x="8" y="6" width="16" height="4" fill="#DCDCDC"/>
<mask id="mask0" mask-type="alpha" maskUnits="userSpaceOnUse" x="9" y="9" width="14" height="14">
<circle cx="16" cy="16" r="7" fill="white"/>
<circle cx="16" cy="16" r="7" stroke="black"/>
</mask>
<g mask="url(#mask0)">
<path d="M8.31534 5.99432H9.69815V10H10.0966V5.99432H11.4794V5.63636H8.31534V5.99432ZM13.1461 10.0682C13.8024 10.0682 14.2434 9.71236 14.3926 9.30114L14.0325 9.18395C13.9068 9.47798 13.6106 9.72088 13.1461 9.72088C12.4771 9.72088 12.0531 9.23295 12.036 8.47656H14.4735V8.28906C14.4735 7.19602 13.7981 6.68253 13.0886 6.68253C12.2406 6.68253 11.6547 7.39205 11.6547 8.38281C11.6547 9.37571 12.2299 10.0682 13.1461 10.0682ZM12.0382 8.14205C12.0787 7.53267 12.4899 7.0277 13.0886 7.0277C13.6745 7.0277 14.0858 7.51136 14.0858 8.14205H12.0382ZM15.4558 6.72727H15.0169L16.0566 8.36364L15.0169 10H15.4558L16.2995 8.64915L17.1433 10H17.5843L16.5318 8.36364L17.5843 6.72727H17.1433L16.2995 8.12287L15.4558 6.72727ZM19.6687 6.72727H18.9762V5.94318H18.5948V6.72727H18.1069V7.05753H18.5948V9.23509C18.5948 9.76989 19.0167 10.049 19.4364 10.049C19.5941 10.049 19.7006 10.0192 19.7731 9.99148L19.6921 9.64844C19.6388 9.66335 19.5707 9.67827 19.4705 9.67827C19.2127 9.67827 18.9762 9.55682 18.9762 9.1456V7.05753H19.6687V6.72727ZM9.82386 16.0682C10.4801 16.0682 10.9212 15.7124 11.0703 15.3011L10.7102 15.1839C10.5845 15.478 10.2884 15.7209 9.82386 15.7209C9.15483 15.7209 8.73082 15.233 8.71378 14.4766H11.1513V14.2891C11.1513 13.196 10.4759 12.6825 9.76634 12.6825C8.91832 12.6825 8.33239 13.392 8.33239 14.3828C8.33239 15.3757 8.90767 16.0682 9.82386 16.0682ZM8.71591 14.142C8.75639 13.5327 9.16761 13.0277 9.76634 13.0277C10.3523 13.0277 10.7635 13.5114 10.7635 14.142H8.71591ZM12.1335 12.7273H11.6946L12.7344 14.3636L11.6946 16H12.1335L12.9773 14.6491L13.821 16H14.2621L13.2095 14.3636L14.2621 12.7273H13.821L12.9773 14.1229L12.1335 12.7273ZM16.3464 12.7273H15.6539V11.9432H15.2725V12.7273H14.7846V13.0575H15.2725V15.2351C15.2725 15.7699 15.6944 16.049 16.1142 16.049C16.2718 16.049 16.3784 16.0192 16.4508 15.9915L16.3699 15.6484C16.3166 15.6634 16.2484 15.6783 16.1483 15.6783C15.8904 15.6783 15.6539 15.5568 15.6539 15.1456V13.0575H16.3464V12.7273ZM17.2077 16H17.587V13.8864C17.587 13.4006 17.9599 13.049 18.4712 13.049C18.5714 13.049 18.6651 13.0661 18.6992 13.0703V12.6847C18.6481 12.6825 18.5607 12.6783 18.4989 12.6783C18.0877 12.6783 17.7362 12.8999 17.604 13.2301H17.5763V12.7273H17.2077V16ZM20.2605 16.0746C20.8059 16.0746 21.1383 15.772 21.2747 15.4822H21.2981V16H21.6774V13.7777C21.6774 12.8999 21.0169 12.6825 20.5162 12.6825C20.0154 12.6825 19.4998 12.8807 19.2782 13.4155L19.6383 13.5455C19.7576 13.2642 20.0538 13.0234 20.5268 13.0234C21.0233 13.0234 21.2981 13.2962 21.2981 13.7436V13.8203C21.2981 14.0675 20.9913 14.0717 20.4416 14.1399C19.7022 14.2315 19.1845 14.4382 19.1845 15.0859C19.1845 15.7166 19.666 16.0746 20.2605 16.0746ZM20.3116 15.7273C19.8833 15.7273 19.5637 15.4993 19.5637 15.103C19.5637 14.7067 19.8876 14.5405 20.4416 14.4723C20.71 14.4403 21.1873 14.3807 21.2981 14.272V14.745C21.2981 15.282 20.9167 15.7273 20.3116 15.7273ZM9.77912 22.0682C10.4609 22.0682 10.9403 21.6378 11.0277 21.0455H10.6442C10.5568 21.4631 10.2138 21.7209 9.77912 21.7209C9.13778 21.7209 8.71378 21.1626 8.71378 20.3658C8.71378 19.5732 9.15057 19.0277 9.77912 19.0277C10.2457 19.0277 10.5611 19.3281 10.642 19.6989H11.0256C10.9361 19.0916 10.429 18.6825 9.77273 18.6825C8.91619 18.6825 8.33239 19.3942 8.33239 20.3786C8.33239 21.3544 8.89915 22.0682 9.77912 22.0682ZM13.1296 18.7273H12.4371V17.9432H12.0558V18.7273H11.5678V19.0575H12.0558V21.2351C12.0558 21.7699 12.4776 22.049 12.8974 22.049C13.055 22.049 13.1616 22.0192 13.234 21.9915L13.1531 21.6484C13.0998 21.6634 13.0316 21.6783 12.9315 21.6783C12.6737 21.6783 12.4371 21.5568 12.4371 21.1456V19.0575H13.1296V18.7273ZM13.9952 22H14.3766V18.7273H13.9952V22ZM14.1891 18.1648C14.3446 18.1648 14.4746 18.0412 14.4746 17.892C14.4746 17.7429 14.3446 17.6193 14.1891 17.6193C14.0336 17.6193 13.9057 17.7429 13.9057 17.892C13.9057 18.0412 14.0336 18.1648 14.1891 18.1648ZM16.6516 22.0682C17.4996 22.0682 18.092 21.3757 18.092 20.3786C18.092 19.375 17.4996 18.6825 16.6516 18.6825C15.8036 18.6825 15.2113 19.375 15.2113 20.3786C15.2113 21.3757 15.8036 22.0682 16.6516 22.0682ZM16.6516 21.7209C15.9719 21.7209 15.5927 21.1115 15.5927 20.3786C15.5927 19.6456 15.9719 19.0277 16.6516 19.0277C17.3313 19.0277 17.7106 19.6456 17.7106 20.3786C17.7106 21.1115 17.3313 21.7209 16.6516 21.7209ZM19.3038 19.9545C19.3038 19.3835 19.6788 19.032 20.1944 19.032C20.6973 19.032 21.0211 19.3686 21.0211 19.9034V22H21.4004V19.88C21.4004 19.1044 20.9508 18.6847 20.2903 18.6847C19.8109 18.6847 19.4806 18.9062 19.3272 19.2408H19.2931V18.7273H18.9245V22H19.3038V19.9545ZM9.78977 24.7273H9.0973V23.9432H8.71591V24.7273H8.22798V25.0575H8.71591V27.2351C8.71591 27.7699 9.13778 28.049 9.55753 28.049C9.7152 28.049 9.82173 28.0192 9.89418 27.9915L9.81321 27.6484C9.75994 27.6634 9.69176 27.6783 9.59162 27.6783C9.33381 27.6783 9.0973 27.5568 9.0973 27.1456V25.0575H9.78977V24.7273ZM11.888 28.0682C12.736 28.0682 13.3283 27.3757 13.3283 26.3786C13.3283 25.375 12.736 24.6825 11.888 24.6825C11.04 24.6825 10.4476 25.375 10.4476 26.3786C10.4476 27.3757 11.04 28.0682 11.888 28.0682ZM11.888 27.7209C11.2083 27.7209 10.829 27.1115 10.829 26.3786C10.829 25.6456 11.2083 25.0277 11.888 25.0277C12.5676 25.0277 12.9469 25.6456 12.9469 26.3786C12.9469 27.1115 12.5676 27.7209 11.888 27.7209ZM15.4329 28.0682C16.2809 28.0682 16.8732 27.3757 16.8732 26.3786C16.8732 25.375 16.2809 24.6825 15.4329 24.6825C14.5849 24.6825 13.9925 25.375 13.9925 26.3786C13.9925 27.3757 14.5849 28.0682 15.4329 28.0682ZM15.4329 27.7209C14.7532 27.7209 14.3739 27.1115 14.3739 26.3786C14.3739 25.6456 14.7532 25.0277 15.4329 25.0277C16.1126 25.0277 16.4918 25.6456 16.4918 26.3786C16.4918 27.1115 16.1126 27.7209 15.4329 27.7209ZM18.085 23.6364H17.7058V28H18.085V23.6364ZM9.8473 30.7273H9.12287V30.3267C9.12287 29.9837 9.30824 29.7919 9.63849 29.7919C9.7642 29.7919 9.84091 29.8196 9.89844 29.8388L10.0092 29.5064C9.93253 29.4744 9.80469 29.4339 9.6044 29.4339C9.15909 29.4339 8.74148 29.7195 8.74148 30.2479V30.7273H8.23864V31.0575H8.74148V34H9.12074L9.12287 31.0575H9.8473V30.7273ZM11.7415 34.0682C12.5895 34.0682 13.1818 33.3757 13.1818 32.3786C13.1818 31.375 12.5895 30.6825 11.7415 30.6825C10.8935 30.6825 10.3011 31.375 10.3011 32.3786C10.3011 33.3757 10.8935 34.0682 11.7415 34.0682ZM11.7415 33.7209C11.0618 33.7209 10.6825 33.1115 10.6825 32.3786C10.6825 31.6456 11.0618 31.0277 11.7415 31.0277C12.4212 31.0277 12.8004 31.6456 12.8004 32.3786C12.8004 33.1115 12.4212 33.7209 11.7415 33.7209ZM14.0144 34H14.3936V31.8864C14.3936 31.4006 14.7665 31.049 15.2779 31.049C15.378 31.049 15.4718 31.0661 15.5059 31.0703V30.6847C15.4547 30.6825 15.3674 30.6783 15.3056 30.6783C14.8944 30.6783 14.5428 30.8999 14.4107 31.2301H14.383V30.7273H14.0144V34ZM9.82386 40.0682C10.4801 40.0682 10.9212 39.7124 11.0703 39.3011L10.7102 39.1839C10.5845 39.478 10.2884 39.7209 9.82386 39.7209C9.15483 39.7209 8.73082 39.233 8.71378 38.4766H11.1513V38.2891C11.1513 37.196 10.4759 36.6825 9.76634 36.6825C8.91832 36.6825 8.33239 37.392 8.33239 38.3828C8.33239 39.3757 8.90767 40.0682 9.82386 40.0682ZM8.71591 38.142C8.75639 37.5327 9.16761 37.0277 9.76634 37.0277C10.3523 37.0277 10.7635 37.5114 10.7635 38.142H8.71591ZM12.3663 35.6364H11.987V40H12.3663V35.6364ZM14.693 40.0682C15.3493 40.0682 15.7903 39.7124 15.9395 39.3011L15.5794 39.1839C15.4537 39.478 15.1575 39.7209 14.693 39.7209C14.024 39.7209 13.6 39.233 13.5829 38.4766H16.0204V38.2891C16.0204 37.196 15.345 36.6825 14.6355 36.6825C13.7875 36.6825 13.2015 37.392 13.2015 38.3828C13.2015 39.3757 13.7768 40.0682 14.693 40.0682ZM13.585 38.142C13.6255 37.5327 14.0368 37.0277 14.6355 37.0277C15.2214 37.0277 15.6326 37.5114 15.6326 38.142H13.585ZM16.8562 40H17.2354V37.9034C17.2354 37.3942 17.5742 37.032 18.0281 37.032C18.4755 37.032 18.7354 37.3303 18.7354 37.7734V40H19.1232V37.8459C19.1232 37.375 19.4045 37.032 19.9031 37.032C20.3356 37.032 20.6232 37.2919 20.6232 37.8075V40H21.0025V37.8075C21.0025 37.0746 20.6254 36.6847 20.0181 36.6847C19.5408 36.6847 19.1957 36.9169 19.0487 37.2791H19.021C18.8761 36.9084 18.5884 36.6847 18.1367 36.6847C17.7085 36.6847 17.3888 36.8913 17.2589 37.2301H17.2248V36.7273H16.8562V40ZM9.82386 46.0682C10.4801 46.0682 10.9212 45.7124 11.0703 45.3011L10.7102 45.1839C10.5845 45.478 10.2884 45.7209 9.82386 45.7209C9.15483 45.7209 8.73082 45.233 8.71378 44.4766H11.1513V44.2891C11.1513 43.196 10.4759 42.6825 9.76634 42.6825C8.91832 42.6825 8.33239 43.392 8.33239 44.3828C8.33239 45.3757 8.90767 46.0682 9.82386 46.0682ZM8.71591 44.142C8.75639 43.5327 9.16761 43.0277 9.76634 43.0277C10.3523 43.0277 10.7635 43.5114 10.7635 44.142H8.71591ZM12.3663 43.9545C12.3663 43.3835 12.7413 43.032 13.2569 43.032C13.7598 43.032 14.0836 43.3686 14.0836 43.9034V46H14.4629V43.88C14.4629 43.1044 14.0133 42.6847 13.3528 42.6847C12.8734 42.6847 12.5431 42.9062 12.3897 43.2408H12.3556V42.7273H11.987V46H12.3663V43.9545ZM16.7507 42.7273H16.0582V41.9432H15.6768V42.7273H15.1889V43.0575H15.6768V45.2351C15.6768 45.7699 16.0987 46.049 16.5185 46.049C16.6761 46.049 16.7827 46.0192 16.8551 45.9915L16.7741 45.6484C16.7209 45.6634 16.6527 45.6783 16.5526 45.6783C16.2947 45.6783 16.0582 45.5568 16.0582 45.1456V43.0575H16.7507V42.7273ZM18.5261 46.0746C19.0716 46.0746 19.4039 45.772 19.5403 45.4822H19.5637V46H19.943V43.7777C19.943 42.8999 19.2825 42.6825 18.7818 42.6825C18.2811 42.6825 17.7654 42.8807 17.5439 43.4155L17.9039 43.5455C18.0233 43.2642 18.3194 43.0234 18.7924 43.0234C19.2889 43.0234 19.5637 43.2962 19.5637 43.7436V43.8203C19.5637 44.0675 19.2569 44.0717 18.7072 44.1399C17.9679 44.2315 17.4501 44.4382 17.4501 45.0859C17.4501 45.7166 17.9316 46.0746 18.5261 46.0746ZM18.5772 45.7273C18.149 45.7273 17.8294 45.4993 17.8294 45.103C17.8294 44.7067 18.1532 44.5405 18.7072 44.4723C18.9757 44.4403 19.4529 44.3807 19.5637 44.272V44.745C19.5637 45.282 19.1824 45.7273 18.5772 45.7273ZM20.9519 46H21.3311V43.8864C21.3311 43.4006 21.704 43.049 22.2154 43.049C22.3155 43.049 22.4093 43.0661 22.4434 43.0703V42.6847C22.3922 42.6825 22.3049 42.6783 22.2431 42.6783C21.8319 42.6783 21.4803 42.8999 21.3482 43.2301H21.3205V42.7273H20.9519V46ZM8.76491 53.2273C9.17401 53.2273 9.47443 52.9929 9.64915 52.5178L11.0362 48.7337L10.6229 48.7273L9.65128 51.4993H9.62145L8.64986 48.7273H8.23864L9.44247 52.032L9.32315 52.3643C9.14205 52.8587 8.88636 52.946 8.50071 52.8246L8.39844 53.1591C8.47514 53.1953 8.61577 53.2273 8.76491 53.2273ZM17.1199 49.8182C17.1199 48.4524 16.3358 47.5767 15.2321 47.5767C14.1305 47.5767 13.3464 48.4545 13.3464 49.8182C13.3464 51.1818 14.1284 52.0597 15.2321 52.0597C16.3358 52.0597 17.1199 51.1839 17.1199 49.8182ZM16.7321 49.8182C16.7342 50.9922 16.0929 51.6847 15.2321 51.6847C14.3691 51.6847 13.7321 50.9879 13.7321 49.8182C13.7321 48.642 14.3755 47.9517 15.2321 47.9517C16.0929 47.9517 16.7321 48.6442 16.7321 49.8182ZM20.4528 48.7273H20.8384C20.8086 48.0646 20.2354 47.5746 19.4237 47.5746C18.6183 47.5746 17.9982 48.0582 17.9982 48.7614C17.9982 49.3217 18.3945 49.6733 19.0785 49.8757L19.6005 50.0291C20.1417 50.1868 20.5124 50.3892 20.5124 50.8345C20.5124 51.3587 20.0373 51.7102 19.3853 51.7102C18.7972 51.7102 18.337 51.4268 18.2944 50.9091H17.8853C17.9322 51.5994 18.4947 52.0746 19.3853 52.0746C20.3313 52.0746 20.8981 51.5398 20.8981 50.8409C20.8981 50.1165 20.2674 49.8267 19.7134 49.6712L19.2532 49.5391C18.8292 49.4197 18.3839 49.2045 18.3839 48.7443C18.3839 48.2756 18.8036 47.9325 19.413 47.9325C19.9904 47.9325 20.4038 48.2415 20.4528 48.7273ZM22.0806 52.032C22.2511 52.032 22.3874 51.8935 22.3874 51.7251C22.3874 51.5547 22.2511 51.4183 22.0806 51.4183C21.9123 51.4183 21.7738 51.5547 21.7738 51.7251C21.7738 51.8935 21.9123 52.032 22.0806 52.032ZM10.233 53.6364V56.7834C10.2308 57.4162 9.91122 57.7017 9.44886 57.7017C8.99929 57.7017 8.66264 57.4354 8.66477 57.0455H8.27273C8.2706 57.6612 8.77131 58.0597 9.44886 58.0597C10.1413 58.0597 10.6293 57.6378 10.6314 56.7834V53.6364H10.233ZM13.7912 56.7493C13.7912 57.3501 13.3395 57.674 12.8963 57.674C12.4233 57.674 12.0909 57.3352 12.0909 56.8239V54.7273H11.7116V56.8473C11.7116 57.6229 12.1591 58.0426 12.7876 58.0426C13.267 58.0426 13.608 57.7933 13.7614 57.4567H13.7912V58H14.1705V54.7273H13.7912V56.7493ZM17.3734 55.4453C17.2136 54.9723 16.8642 54.6825 16.2654 54.6825C15.6049 54.6825 15.1255 55.0597 15.1255 55.5987C15.1255 56.0376 15.3919 56.3359 15.9608 56.4723L16.4956 56.6001C16.8556 56.6854 17.0282 56.8707 17.0282 57.1328C17.0282 57.4737 16.7022 57.7273 16.1994 57.7273C15.752 57.7273 15.4728 57.5249 15.3812 57.1371L15.0169 57.2266C15.1319 57.772 15.5645 58.0682 16.2058 58.0682C16.926 58.0682 17.4203 57.6719 17.4203 57.1158C17.4203 56.679 17.1454 56.3871 16.5978 56.2528L16.1035 56.1314C15.6966 56.0291 15.5069 55.8651 15.5069 55.5817C15.5069 55.2493 15.8244 55.017 16.2654 55.017C16.7065 55.017 16.9238 55.2493 17.0261 55.5433L17.3734 55.4453ZM19.5398 54.7273H18.8473V53.9432H18.4659V54.7273H17.978V55.0575H18.4659V57.2351C18.4659 57.7699 18.8878 58.049 19.3075 58.049C19.4652 58.049 19.5717 58.0192 19.6442 57.9915L19.5632 57.6484C19.5099 57.6634 19.4418 57.6783 19.3416 57.6783C19.0838 57.6783 18.8473 57.5568 18.8473 57.1456V55.0575H19.5398V54.7273ZM9.74929 65.2955C10.5249 65.2955 11.1001 64.9162 11.1001 64.0852V60.7273H10.7294V61.3516H10.6911C10.5568 61.0575 10.2862 60.6825 9.68537 60.6825C8.87571 60.6825 8.33239 61.3601 8.33239 62.3551C8.33239 63.3587 8.89489 63.9659 9.67898 63.9659C10.267 63.9659 10.5547 63.625 10.6847 63.3246H10.7188V64.0618C10.7188 64.6712 10.3288 64.9545 9.74929 64.9545C9.18892 64.9545 8.92045 64.6839 8.78196 64.4347L8.47088 64.6392C8.66264 65.0142 9.08026 65.2955 9.74929 65.2955ZM9.72372 63.6186C9.07386 63.6186 8.71378 63.0987 8.71378 62.3487C8.71378 61.6115 9.06747 61.0277 9.72372 61.0277C10.3651 61.0277 10.7251 61.5817 10.7251 62.3487C10.7251 63.1392 10.3544 63.6186 9.72372 63.6186ZM12.1042 64H12.4835V61.8864C12.4835 61.4006 12.8564 61.049 13.3677 61.049C13.4679 61.049 13.5616 61.0661 13.5957 61.0703V60.6847C13.5446 60.6825 13.4572 60.6783 13.3954 60.6783C12.9842 60.6783 12.6326 60.8999 12.5005 61.2301H12.4728V60.7273H12.1042V64ZM15.157 64.0746C15.7024 64.0746 16.0348 63.772 16.1712 63.4822H16.1946V64H16.5739V61.7777C16.5739 60.8999 15.9134 60.6825 15.4126 60.6825C14.9119 60.6825 14.3963 60.8807 14.1747 61.4155L14.5348 61.5455C14.6541 61.2642 14.9503 61.0234 15.4233 61.0234C15.9197 61.0234 16.1946 61.2962 16.1946 61.7436V61.8203C16.1946 62.0675 15.8878 62.0717 15.3381 62.1399C14.5987 62.2315 14.081 62.4382 14.081 63.0859C14.081 63.7166 14.5625 64.0746 15.157 64.0746ZM15.2081 63.7273C14.7798 63.7273 14.4602 63.4993 14.4602 63.103C14.4602 62.7067 14.7841 62.5405 15.3381 62.4723C15.6065 62.4403 16.0838 62.3807 16.1946 62.272V62.745C16.1946 63.282 15.8132 63.7273 15.2081 63.7273ZM17.6616 64H18.0302V63.3928H18.0771C18.2092 63.6932 18.4862 64.0682 19.0827 64.0682C19.886 64.0682 20.4293 63.3885 20.4293 62.3722C20.4293 61.3643 19.8839 60.6825 19.0763 60.6825C18.4776 60.6825 18.207 61.0575 18.0771 61.3516H18.043V59.6364H17.6616V64ZM18.0366 62.3658C18.0366 61.5817 18.3967 61.0277 19.0359 61.0277C19.6921 61.0277 20.0479 61.6115 20.0479 62.3658C20.0479 63.1286 19.6879 63.7209 19.0359 63.7209C18.4009 63.7209 18.0366 63.1562 18.0366 62.3658ZM9.78977 66.7273H9.0973V65.9432H8.71591V66.7273H8.22798V67.0575H8.71591V69.2351C8.71591 69.7699 9.13778 70.049 9.55753 70.049C9.7152 70.049 9.82173 70.0192 9.89418 69.9915L9.81321 69.6484C9.75994 69.6634 9.69176 69.6783 9.59162 69.6783C9.33381 69.6783 9.0973 69.5568 9.0973 69.1456V67.0575H9.78977V66.7273ZM11.1007 67.9545C11.1007 67.3835 11.4842 67.032 12.0083 67.032C12.5154 67.032 12.8393 67.3643 12.8393 67.9034V70H13.2207V67.88C13.2207 67.1001 12.769 66.6847 12.1042 66.6847C11.6099 66.6847 11.2882 66.902 11.1348 67.2408H11.1007V65.6364H10.7214V70H11.1007V67.9545ZM15.5426 70.0682C16.1989 70.0682 16.6399 69.7124 16.7891 69.3011L16.429 69.1839C16.3033 69.478 16.0071 69.7209 15.5426 69.7209C14.8736 69.7209 14.4496 69.233 14.4325 68.4766H16.87V68.2891C16.87 67.196 16.1946 66.6825 15.4851 66.6825C14.6371 66.6825 14.0511 67.392 14.0511 68.3828C14.0511 69.3757 14.6264 70.0682 15.5426 70.0682ZM14.4347 68.142C14.4751 67.5327 14.8864 67.0277 15.4851 67.0277C16.071 67.0277 16.4822 67.5114 16.4822 68.142H14.4347ZM9.41477 76.0746C9.96023 76.0746 10.2926 75.772 10.429 75.4822H10.4524V76H10.8317V73.7777C10.8317 72.8999 10.1712 72.6825 9.67045 72.6825C9.16974 72.6825 8.65412 72.8807 8.43253 73.4155L8.79261 73.5455C8.91193 73.2642 9.2081 73.0234 9.68111 73.0234C10.1776 73.0234 10.4524 73.2962 10.4524 73.7436V73.8203C10.4524 74.0675 10.1456 74.0717 9.59588 74.1399C8.85653 74.2315 8.33878 74.4382 8.33878 75.0859C8.33878 75.7166 8.82031 76.0746 9.41477 76.0746ZM9.46591 75.7273C9.03764 75.7273 8.71804 75.4993 8.71804 75.103C8.71804 74.7067 9.0419 74.5405 9.59588 74.4723C9.86435 74.4403 10.3416 74.3807 10.4524 74.272V74.745C10.4524 75.282 10.071 75.7273 9.46591 75.7273ZM11.8406 76H12.2198V73.8864C12.2198 73.4006 12.5927 73.049 13.104 73.049C13.2042 73.049 13.2979 73.0661 13.332 73.0703V72.6847C13.2809 72.6825 13.1935 72.6783 13.1317 72.6783C12.7205 72.6783 12.369 72.8999 12.2369 73.2301H12.2092V72.7273H11.8406V76ZM15.2028 76.0682C15.859 76.0682 16.3001 75.7124 16.4492 75.3011L16.0891 75.1839C15.9634 75.478 15.6673 75.7209 15.2028 75.7209C14.5337 75.7209 14.1097 75.233 14.0927 74.4766H16.5302V74.2891C16.5302 73.196 15.8548 72.6825 15.1452 72.6825C14.2972 72.6825 13.7113 73.392 13.7113 74.3828C13.7113 75.3757 14.2866 76.0682 15.2028 76.0682ZM14.0948 74.142C14.1353 73.5327 14.5465 73.0277 15.1452 73.0277C15.7312 73.0277 16.1424 73.5114 16.1424 74.142H14.0948ZM18.28 76.0746C18.8255 76.0746 19.1578 75.772 19.2942 75.4822H19.3176V76H19.6969V73.7777C19.6969 72.8999 19.0364 72.6825 18.5357 72.6825C18.035 72.6825 17.5194 72.8807 17.2978 73.4155L17.6578 73.5455C17.7772 73.2642 18.0733 73.0234 18.5463 73.0234C19.0428 73.0234 19.3176 73.2962 19.3176 73.7436V73.8203C19.3176 74.0675 19.0108 74.0717 18.4611 74.1399C17.7218 74.2315 17.204 74.4382 17.204 75.0859C17.204 75.7166 17.6855 76.0746 18.28 76.0746ZM18.3311 75.7273C17.9029 75.7273 17.5833 75.4993 17.5833 75.103C17.5833 74.7067 17.9071 74.5405 18.4611 74.4723C18.7296 74.4403 19.2069 74.3807 19.3176 74.272V74.745C19.3176 75.282 18.9363 75.7273 18.3311 75.7273ZM9.22727 82H9.61932L10.3949 79.3175H10.4354L11.2109 82H11.603L12.5916 78.7273H12.1911L11.4155 81.4205H11.3857L10.6186 78.7273H10.2159L9.44247 81.4268H9.41477L8.6392 78.7273H8.23864L9.22727 82ZM13.3331 82H13.7145V78.7273H13.3331V82ZM13.527 78.1648C13.6825 78.1648 13.8125 78.0412 13.8125 77.892C13.8125 77.7429 13.6825 77.6193 13.527 77.6193C13.3714 77.6193 13.2436 77.7429 13.2436 77.892C13.2436 78.0412 13.3714 78.1648 13.527 78.1648ZM16.0066 78.7273H15.3141V77.9432H14.9327V78.7273H14.4448V79.0575H14.9327V81.2351C14.9327 81.7699 15.3546 82.049 15.7743 82.049C15.932 82.049 16.0385 82.0192 16.111 81.9915L16.03 81.6484C15.9767 81.6634 15.9086 81.6783 15.8084 81.6783C15.5506 81.6783 15.3141 81.5568 15.3141 81.1456V79.0575H16.0066V78.7273ZM17.3175 79.9545C17.3175 79.3835 17.701 79.032 18.2251 79.032C18.7322 79.032 19.0561 79.3643 19.0561 79.9034V82H19.4375V79.88C19.4375 79.1001 18.9858 78.6847 18.321 78.6847C17.8267 78.6847 17.505 78.902 17.3516 79.2408H17.3175V77.6364H16.9382V82H17.3175V79.9545ZM9.78977 84.7273H9.0973V83.9432H8.71591V84.7273H8.22798V85.0575H8.71591V87.2351C8.71591 87.7699 9.13778 88.049 9.55753 88.049C9.7152 88.049 9.82173 88.0192 9.89418 87.9915L9.81321 87.6484C9.75994 87.6634 9.69176 87.6783 9.59162 87.6783C9.33381 87.6783 9.0973 87.5568 9.0973 87.1456V85.0575H9.78977V84.7273ZM11.1007 85.9545C11.1007 85.3835 11.4842 85.032 12.0083 85.032C12.5154 85.032 12.8393 85.3643 12.8393 85.9034V88H13.2207V85.88C13.2207 85.1001 12.769 84.6847 12.1042 84.6847C11.6099 84.6847 11.2882 84.902 11.1348 85.2408H11.1007V83.6364H10.7214V88H11.1007V85.9545ZM15.5426 88.0682C16.1989 88.0682 16.6399 87.7124 16.7891 87.3011L16.429 87.1839C16.3033 87.478 16.0071 87.7209 15.5426 87.7209C14.8736 87.7209 14.4496 87.233 14.4325 86.4766H16.87V86.2891C16.87 85.196 16.1946 84.6825 15.4851 84.6825C14.6371 84.6825 14.0511 85.392 14.0511 86.3828C14.0511 87.3757 14.6264 88.0682 15.5426 88.0682ZM14.4347 86.142C14.4751 85.5327 14.8864 85.0277 15.4851 85.0277C16.071 85.0277 16.4822 85.5114 16.4822 86.142H14.4347ZM9.78977 90.7273H9.0973V89.9432H8.71591V90.7273H8.22798V91.0575H8.71591V93.2351C8.71591 93.7699 9.13778 94.049 9.55753 94.049C9.7152 94.049 9.82173 94.0192 9.89418 93.9915L9.81321 93.6484C9.75994 93.6634 9.69176 93.6783 9.59162 93.6783C9.33381 93.6783 9.0973 93.5568 9.0973 93.1456V91.0575H9.78977V90.7273ZM11.9391 94.0682C12.5953 94.0682 13.0364 93.7124 13.1855 93.3011L12.8255 93.1839C12.6998 93.478 12.4036 93.7209 11.9391 93.7209C11.2701 93.7209 10.8461 93.233 10.829 92.4766H13.2665V92.2891C13.2665 91.196 12.5911 90.6825 11.8816 90.6825C11.0336 90.6825 10.4476 91.392 10.4476 92.3828C10.4476 93.3757 11.0229 94.0682 11.9391 94.0682ZM10.8311 92.142C10.8716 91.5327 11.2828 91.0277 11.8816 91.0277C12.4675 91.0277 12.8787 91.5114 12.8787 92.142H10.8311ZM14.2488 90.7273H13.8098L14.8496 92.3636L13.8098 94H14.2488L15.0925 92.6491L15.9363 94H16.3773L15.3248 92.3636L16.3773 90.7273H15.9363L15.0925 92.1229L14.2488 90.7273ZM18.4616 90.7273H17.7692V89.9432H17.3878V90.7273H16.8999V91.0575H17.3878V93.2351C17.3878 93.7699 17.8097 94.049 18.2294 94.049C18.3871 94.049 18.4936 94.0192 18.5661 93.9915L18.4851 93.6484C18.4318 93.6634 18.3636 93.6783 18.2635 93.6783C18.0057 93.6783 17.7692 93.5568 17.7692 93.1456V91.0575H18.4616V90.7273ZM8.76491 101.227C9.17401 101.227 9.47443 100.993 9.64915 100.518L11.0362 96.7337L10.6229 96.7273L9.65128 99.4993H9.62145L8.64986 96.7273H8.23864L9.44247 100.032L9.32315 100.364C9.14205 100.859 8.88636 100.946 8.50071 100.825L8.39844 101.159C8.47514 101.195 8.61577 101.227 8.76491 101.227ZM12.9309 100.068C13.7789 100.068 14.3713 99.3757 14.3713 98.3786C14.3713 97.375 13.7789 96.6825 12.9309 96.6825C12.0829 96.6825 11.4906 97.375 11.4906 98.3786C11.4906 99.3757 12.0829 100.068 12.9309 100.068ZM12.9309 99.7209C12.2512 99.7209 11.872 99.1115 11.872 98.3786C11.872 97.6456 12.2512 97.0277 12.9309 97.0277C13.6106 97.0277 13.9899 97.6456 13.9899 98.3786C13.9899 99.1115 13.6106 99.7209 12.9309 99.7209ZM17.2834 98.7493C17.2834 99.3501 16.8317 99.674 16.3885 99.674C15.9155 99.674 15.5831 99.3352 15.5831 98.8239V96.7273H15.2038V98.8473C15.2038 99.6229 15.6513 100.043 16.2798 100.043C16.7592 100.043 17.1001 99.7933 17.2536 99.4567H17.2834V100H17.6626V96.7273H17.2834V98.7493ZM9.22727 106H9.61932L10.3949 103.317H10.4354L11.2109 106H11.603L12.5916 102.727H12.1911L11.4155 105.42H11.3857L10.6186 102.727H10.2159L9.44247 105.427H9.41477L8.6392 102.727H8.23864L9.22727 106ZM13.3331 106H13.7145V102.727H13.3331V106ZM13.527 102.165C13.6825 102.165 13.8125 102.041 13.8125 101.892C13.8125 101.743 13.6825 101.619 13.527 101.619C13.3714 101.619 13.2436 101.743 13.2436 101.892C13.2436 102.041 13.3714 102.165 13.527 102.165ZM16.0066 102.727H15.3141V101.943H14.9327V102.727H14.4448V103.058H14.9327V105.235C14.9327 105.77 15.3546 106.049 15.7743 106.049C15.932 106.049 16.0385 106.019 16.111 105.991L16.03 105.648C15.9767 105.663 15.9086 105.678 15.8084 105.678C15.5506 105.678 15.3141 105.557 15.3141 105.146V103.058H16.0066V102.727ZM17.3175 103.955C17.3175 103.384 17.701 103.032 18.2251 103.032C18.7322 103.032 19.0561 103.364 19.0561 103.903V106H19.4375V103.88C19.4375 103.1 18.9858 102.685 18.321 102.685C17.8267 102.685 17.505 102.902 17.3516 103.241H17.3175V101.636H16.9382V106H17.3175V103.955ZM9.78977 108.727H9.0973V107.943H8.71591V108.727H8.22798V109.058H8.71591V111.235C8.71591 111.77 9.13778 112.049 9.55753 112.049C9.7152 112.049 9.82173 112.019 9.89418 111.991L9.81321 111.648C9.75994 111.663 9.69176 111.678 9.59162 111.678C9.33381 111.678 9.0973 111.557 9.0973 111.146V109.058H9.78977V108.727ZM11.888 112.068C12.736 112.068 13.3283 111.376 13.3283 110.379C13.3283 109.375 12.736 108.683 11.888 108.683C11.04 108.683 10.4476 109.375 10.4476 110.379C10.4476 111.376 11.04 112.068 11.888 112.068ZM11.888 111.721C11.2083 111.721 10.829 111.112 10.829 110.379C10.829 109.646 11.2083 109.028 11.888 109.028C12.5676 109.028 12.9469 109.646 12.9469 110.379C12.9469 111.112 12.5676 111.721 11.888 111.721ZM15.9272 112H16.2958V111.393H16.3427C16.4748 111.693 16.7518 112.068 17.3484 112.068C18.1516 112.068 18.695 111.388 18.695 110.372C18.695 109.364 18.1495 108.683 17.342 108.683C16.7433 108.683 16.4727 109.058 16.3427 109.352H16.3086V107.636H15.9272V112ZM16.3022 110.366C16.3022 109.582 16.6623 109.028 17.3015 109.028C17.9577 109.028 18.3136 109.612 18.3136 110.366C18.3136 111.129 17.9535 111.721 17.3015 111.721C16.6665 111.721 16.3022 111.156 16.3022 110.366ZM20.8512 112.068C21.5075 112.068 21.9485 111.712 22.0977 111.301L21.7376 111.184C21.6119 111.478 21.3157 111.721 20.8512 111.721C20.1822 111.721 19.7582 111.233 19.7411 110.477H22.1786V110.289C22.1786 109.196 21.5032 108.683 20.7937 108.683C19.9457 108.683 19.3597 109.392 19.3597 110.383C19.3597 111.376 19.935 112.068 20.8512 112.068ZM19.7433 110.142C19.7837 109.533 20.195 109.028 20.7937 109.028C21.3796 109.028 21.7908 109.511 21.7908 110.142H19.7433ZM9.82386 118.068C10.4801 118.068 10.9212 117.712 11.0703 117.301L10.7102 117.184C10.5845 117.478 10.2884 117.721 9.82386 117.721C9.15483 117.721 8.73082 117.233 8.71378 116.477H11.1513V116.289C11.1513 115.196 10.4759 114.683 9.76634 114.683C8.91832 114.683 8.33239 115.392 8.33239 116.383C8.33239 117.376 8.90767 118.068 9.82386 118.068ZM8.71591 116.142C8.75639 115.533 9.16761 115.028 9.76634 115.028C10.3523 115.028 10.7635 115.511 10.7635 116.142H8.71591ZM12.1335 114.727H11.6946L12.7344 116.364L11.6946 118H12.1335L12.9773 116.649L13.821 118H14.2621L13.2095 116.364L14.2621 114.727H13.821L12.9773 116.123L12.1335 114.727ZM16.3464 114.727H15.6539V113.943H15.2725V114.727H14.7846V115.058H15.2725V117.235C15.2725 117.77 15.6944 118.049 16.1142 118.049C16.2718 118.049 16.3784 118.019 16.4508 117.991L16.3699 117.648C16.3166 117.663 16.2484 117.678 16.1483 117.678C15.8904 117.678 15.6539 117.557 15.6539 117.146V115.058H16.3464V114.727ZM17.2077 118H17.587V115.886C17.587 115.401 17.9599 115.049 18.4712 115.049C18.5714 115.049 18.6651 115.066 18.6992 115.07V114.685C18.6481 114.683 18.5607 114.678 18.4989 114.678C18.0877 114.678 17.7362 114.9 17.604 115.23H17.5763V114.727H17.2077V118ZM20.2605 118.075C20.8059 118.075 21.1383 117.772 21.2747 117.482H21.2981V118H21.6774V115.778C21.6774 114.9 21.0169 114.683 20.5162 114.683C20.0154 114.683 19.4998 114.881 19.2782 115.415L19.6383 115.545C19.7576 115.264 20.0538 115.023 20.5268 115.023C21.0233 115.023 21.2981 115.296 21.2981 115.744V115.82C21.2981 116.067 20.9913 116.072 20.4416 116.14C19.7022 116.232 19.1845 116.438 19.1845 117.086C19.1845 117.717 19.666 118.075 20.2605 118.075ZM20.3116 117.727C19.8833 117.727 19.5637 117.499 19.5637 117.103C19.5637 116.707 19.8876 116.54 20.4416 116.472C20.71 116.44 21.1873 116.381 21.2981 116.272V116.745C21.2981 117.282 20.9167 117.727 20.3116 117.727ZM9.77912 124.068C10.4609 124.068 10.9403 123.638 11.0277 123.045H10.6442C10.5568 123.463 10.2138 123.721 9.77912 123.721C9.13778 123.721 8.71378 123.163 8.71378 122.366C8.71378 121.573 9.15057 121.028 9.77912 121.028C10.2457 121.028 10.5611 121.328 10.642 121.699H11.0256C10.9361 121.092 10.429 120.683 9.77273 120.683C8.91619 120.683 8.33239 121.394 8.33239 122.379C8.33239 123.354 8.89915 124.068 9.77912 124.068ZM13.1296 120.727H12.4371V119.943H12.0558V120.727H11.5678V121.058H12.0558V123.235C12.0558 123.77 12.4776 124.049 12.8974 124.049C13.055 124.049 13.1616 124.019 13.234 123.991L13.1531 123.648C13.0998 123.663 13.0316 123.678 12.9315 123.678C12.6737 123.678 12.4371 123.557 12.4371 123.146V121.058H13.1296V120.727ZM15.2789 124.068C15.9352 124.068 16.3762 123.712 16.5254 123.301L16.1653 123.184C16.0396 123.478 15.7434 123.721 15.2789 123.721C14.6099 123.721 14.1859 123.233 14.1689 122.477H16.6064V122.289C16.6064 121.196 15.9309 120.683 15.2214 120.683C14.3734 120.683 13.7875 121.392 13.7875 122.383C13.7875 123.376 14.3627 124.068 15.2789 124.068ZM14.171 122.142C14.2115 121.533 14.6227 121.028 15.2214 121.028C15.8074 121.028 16.2186 121.511 16.2186 122.142H14.171ZM18.6204 124.068C19.2148 124.068 19.4918 123.691 19.6261 123.393H19.6708V124H20.0415V119.636H19.6602V121.352H19.6261C19.4961 121.058 19.2255 120.683 18.6268 120.683C17.8192 120.683 17.2738 121.364 17.2738 122.372C17.2738 123.388 17.8171 124.068 18.6204 124.068ZM18.6651 123.721C18.0131 123.721 17.6552 123.129 17.6552 122.366C17.6552 121.612 18.0089 121.028 18.6651 121.028C19.3043 121.028 19.6665 121.582 19.6665 122.366C19.6665 123.156 19.3001 123.721 18.6651 123.721ZM9.41477 130.075C9.96023 130.075 10.2926 129.772 10.429 129.482H10.4524V130H10.8317V127.778C10.8317 126.9 10.1712 126.683 9.67045 126.683C9.16974 126.683 8.65412 126.881 8.43253 127.415L8.79261 127.545C8.91193 127.264 9.2081 127.023 9.68111 127.023C10.1776 127.023 10.4524 127.296 10.4524 127.744V127.82C10.4524 128.067 10.1456 128.072 9.59588 128.14C8.85653 128.232 8.33878 128.438 8.33878 129.086C8.33878 129.717 8.82031 130.075 9.41477 130.075ZM9.46591 129.727C9.03764 129.727 8.71804 129.499 8.71804 129.103C8.71804 128.707 9.0419 128.54 9.59588 128.472C9.86435 128.44 10.3416 128.381 10.4524 128.272V128.745C10.4524 129.282 10.071 129.727 9.46591 129.727ZM12.2198 127.955C12.2198 127.384 12.5948 127.032 13.1104 127.032C13.6133 127.032 13.9371 127.369 13.9371 127.903V130H14.3164V127.88C14.3164 127.104 13.8668 126.685 13.2063 126.685C12.7269 126.685 12.3967 126.906 12.2433 127.241H12.2092V126.727H11.8406V130H12.2198V127.955ZM16.4934 130.068C17.0879 130.068 17.3649 129.691 17.4991 129.393H17.5439V130H17.9146V125.636H17.5332V127.352H17.4991C17.3691 127.058 17.0985 126.683 16.4998 126.683C15.6923 126.683 15.1468 127.364 15.1468 128.372C15.1468 129.388 15.6902 130.068 16.4934 130.068ZM16.5382 129.721C15.8862 129.721 15.5282 129.129 15.5282 128.366C15.5282 127.612 15.8819 127.028 16.5382 127.028C17.1774 127.028 17.5396 127.582 17.5396 128.366C17.5396 129.156 17.1731 129.721 16.5382 129.721ZM8.50071 136H8.87997V133.903C8.87997 133.394 9.21875 133.032 9.67259 133.032C10.12 133.032 10.38 133.33 10.38 133.773V136H10.7678V133.846C10.7678 133.375 11.049 133.032 11.5476 133.032C11.9801 133.032 12.2678 133.292 12.2678 133.808V136H12.647V133.808C12.647 133.075 12.2699 132.685 11.6626 132.685C11.1854 132.685 10.8402 132.917 10.6932 133.279H10.6655C10.5206 132.908 10.233 132.685 9.78125 132.685C9.35298 132.685 9.03338 132.891 8.90341 133.23H8.86932V132.727H8.50071V136ZM14.5652 136.075C15.1106 136.075 15.443 135.772 15.5794 135.482H15.6028V136H15.9821V133.778C15.9821 132.9 15.3216 132.683 14.8208 132.683C14.3201 132.683 13.8045 132.881 13.5829 133.415L13.943 133.545C14.0623 133.264 14.3585 133.023 14.8315 133.023C15.3279 133.023 15.6028 133.296 15.6028 133.744V133.82C15.6028 134.067 15.296 134.072 14.7463 134.14C14.0069 134.232 13.4892 134.438 13.4892 135.086C13.4892 135.717 13.9707 136.075 14.5652 136.075ZM14.6163 135.727C14.188 135.727 13.8684 135.499 13.8684 135.103C13.8684 134.707 14.1923 134.54 14.7463 134.472C15.0147 134.44 15.492 134.381 15.6028 134.272V134.745C15.6028 135.282 15.2214 135.727 14.6163 135.727ZM18.2395 137.295C19.0151 137.295 19.5904 136.916 19.5904 136.085V132.727H19.2196V133.352H19.1813C19.0471 133.058 18.7765 132.683 18.1756 132.683C17.3659 132.683 16.8226 133.36 16.8226 134.355C16.8226 135.359 17.3851 135.966 18.1692 135.966C18.7573 135.966 19.0449 135.625 19.1749 135.325H19.209V136.062C19.209 136.671 18.8191 136.955 18.2395 136.955C17.6792 136.955 17.4107 136.684 17.2722 136.435L16.9611 136.639C17.1529 137.014 17.5705 137.295 18.2395 137.295ZM18.214 135.619C17.5641 135.619 17.204 135.099 17.204 134.349C17.204 133.612 17.5577 133.028 18.214 133.028C18.8553 133.028 19.2154 133.582 19.2154 134.349C19.2154 135.139 18.8446 135.619 18.214 135.619ZM20.5987 136H20.9801V132.727H20.5987V136ZM20.7926 132.165C20.9482 132.165 21.0781 132.041 21.0781 131.892C21.0781 131.743 20.9482 131.619 20.7926 131.619C20.6371 131.619 20.5092 131.743 20.5092 131.892C20.5092 132.041 20.6371 132.165 20.7926 132.165ZM9.77912 142.068C10.4609 142.068 10.9403 141.638 11.0277 141.045H10.6442C10.5568 141.463 10.2138 141.721 9.77912 141.721C9.13778 141.721 8.71378 141.163 8.71378 140.366C8.71378 139.573 9.15057 139.028 9.77912 139.028C10.2457 139.028 10.5611 139.328 10.642 139.699H11.0256C10.9361 139.092 10.429 138.683 9.77273 138.683C8.91619 138.683 8.33239 139.394 8.33239 140.379C8.33239 141.354 8.89915 142.068 9.77912 142.068ZM8.87997 145.955C8.87997 145.384 9.26349 145.032 9.78764 145.032C10.2947 145.032 10.6186 145.364 10.6186 145.903V148H11V145.88C11 145.1 10.5483 144.685 9.88352 144.685C9.3892 144.685 9.06747 144.902 8.91406 145.241H8.87997V143.636H8.50071V148H8.87997V145.955ZM12.9128 148.075C13.4583 148.075 13.7907 147.772 13.927 147.482H13.9505V148H14.3297V145.778C14.3297 144.9 13.6692 144.683 13.1685 144.683C12.6678 144.683 12.1522 144.881 11.9306 145.415L12.2907 145.545C12.41 145.264 12.7061 145.023 13.1792 145.023C13.6756 145.023 13.9505 145.296 13.9505 145.744V145.82C13.9505 146.067 13.6436 146.072 13.0939 146.14C12.3546 146.232 11.8368 146.438 11.8368 147.086C11.8368 147.717 12.3184 148.075 12.9128 148.075ZM12.964 147.727C12.5357 147.727 12.2161 147.499 12.2161 147.103C12.2161 146.707 12.54 146.54 13.0939 146.472C13.3624 146.44 13.8397 146.381 13.9505 146.272V146.745C13.9505 147.282 13.5691 147.727 12.964 147.727ZM15.3322 149.227H15.7136V147.393H15.7477C15.8777 147.693 16.1589 148.068 16.7534 148.068C17.5545 148.068 18.1 147.386 18.1 146.372C18.1 145.362 17.5566 144.683 16.747 144.683C16.1461 144.683 15.8798 145.058 15.7477 145.352H15.7008V144.727H15.3322V149.227ZM15.7072 146.366C15.7072 145.582 16.0673 145.028 16.7065 145.028C17.3649 145.028 17.7186 145.612 17.7186 146.366C17.7186 147.129 17.3585 147.721 16.7065 147.721C16.0737 147.721 15.7072 147.156 15.7072 146.366ZM18.924 149.227H19.3054V147.393H19.3395C19.4695 147.693 19.7507 148.068 20.3452 148.068C21.1463 148.068 21.6918 147.386 21.6918 146.372C21.6918 145.362 21.1484 144.683 20.3388 144.683C19.7379 144.683 19.4716 145.058 19.3395 145.352H19.2926V144.727H18.924V149.227ZM19.299 146.366C19.299 145.582 19.6591 145.028 20.2983 145.028C20.9567 145.028 21.3104 145.612 21.3104 146.366C21.3104 147.129 20.9503 147.721 20.2983 147.721C19.6655 147.721 19.299 147.156 19.299 146.366ZM9.82386 154.068C10.4801 154.068 10.9212 153.712 11.0703 153.301L10.7102 153.184C10.5845 153.478 10.2884 153.721 9.82386 153.721C9.15483 153.721 8.73082 153.233 8.71378 152.477H11.1513V152.289C11.1513 151.196 10.4759 150.683 9.76634 150.683C8.91832 150.683 8.33239 151.392 8.33239 152.383C8.33239 153.376 8.90767 154.068 9.82386 154.068ZM8.71591 152.142C8.75639 151.533 9.16761 151.028 9.76634 151.028C10.3523 151.028 10.7635 151.511 10.7635 152.142H8.71591ZM12.3663 151.955C12.3663 151.384 12.7413 151.032 13.2569 151.032C13.7598 151.032 14.0836 151.369 14.0836 151.903V154H14.4629V151.88C14.4629 151.104 14.0133 150.685 13.3528 150.685C12.8734 150.685 12.5431 150.906 12.3897 151.241H12.3556V150.727H11.987V154H12.3663V151.955ZM17.6605 151.445C17.5007 150.972 17.1513 150.683 16.5526 150.683C15.892 150.683 15.4126 151.06 15.4126 151.599C15.4126 152.038 15.679 152.336 16.2479 152.472L16.7827 152.6C17.1428 152.685 17.3153 152.871 17.3153 153.133C17.3153 153.474 16.9893 153.727 16.4865 153.727C16.0391 153.727 15.7599 153.525 15.6683 153.137L15.304 153.227C15.419 153.772 15.8516 154.068 16.4929 154.068C17.2131 154.068 17.7074 153.672 17.7074 153.116C17.7074 152.679 17.4325 152.387 16.8849 152.253L16.3906 152.131C15.9837 152.029 15.794 151.865 15.794 151.582C15.794 151.249 16.1115 151.017 16.5526 151.017C16.9936 151.017 17.2109 151.249 17.3132 151.543L17.6605 151.445ZM19.0705 149.636H18.6401L18.6678 152.749H19.0428L19.0705 149.636ZM18.8553 154.032C19.0257 154.032 19.1621 153.893 19.1621 153.725C19.1621 153.555 19.0257 153.418 18.8553 153.418C18.687 153.418 18.5485 153.555 18.5485 153.725C18.5485 153.893 18.687 154.032 18.8553 154.032Z" fill="black"/>
</g>
<g filter="url(#filter1_d)">
<path d="M19.7445 21.4832L21.819 19.4088L29.6235 27.2133C30.0169 27.6067 30.0169 28.2445 29.6235 28.6379L28.9736 29.2878C28.5802 29.6811 27.9425 29.6811 27.5491 29.2878L19.7445 21.4832Z" fill="url(#paint0_linear)"/>
<circle cx="16" cy="16" r="8" stroke="#17384A" stroke-opacity="0.59" stroke-width="2"/>
<path d="M15.0947 11.7862L14.5949 12.0361C13.2018 12.7327 12.165 13.982 11.7371 15.4796V15.4796" stroke="white" stroke-width="2" stroke-linecap="round"/>
</g>
</g>
<defs>
<filter id="filter0_d" x="5.25" y="3.5" width="21.5" height="27.25" filterUnits="userSpaceOnUse" color-interpolation-filters="sRGB">
<feFlood flood-opacity="0" result="BackgroundImageFix"/>
<feColorMatrix in="SourceAlpha" type="matrix" values="0 0 0 0 0 0 0 0 0 0 0 0 0 0 0 0 0 0 127 0" result="hardAlpha"/>
<feOffset dy="1"/>
<feGaussianBlur stdDeviation="0.5"/>
<feComposite in2="hardAlpha" operator="out"/>
<feColorMatrix type="matrix" values="0 0 0 0 0 0 0 0 0 0 0 0 0 0 0 0 0 0 0.25 0"/>
<feBlend mode="normal" in2="BackgroundImageFix" result="effect1_dropShadow"/>
<feBlend mode="normal" in="SourceGraphic" in2="effect1_dropShadow" result="shape"/>
</filter>
<filter id="filter1_d" x="6.32847" y="7" width="24.6788" height="25.0146" filterUnits="userSpaceOnUse" color-interpolation-filters="sRGB">
<feFlood flood-opacity="0" result="BackgroundImageFix"/>
<feColorMatrix in="SourceAlpha" type="matrix" values="0 0 0 0 0 0 0 0 0 0 0 0 0 0 0 0 0 0 127 0" result="hardAlpha"/>
<feOffset dy="1.34307"/>
<feGaussianBlur stdDeviation="0.335766"/>
<feComposite in2="hardAlpha" operator="out"/>
<feColorMatrix type="matrix" values="0 0 0 0 0 0 0 0 0 0 0 0 0 0 0 0 0 0 0.25 0"/>
<feBlend mode="normal" in2="BackgroundImageFix" result="effect1_dropShadow"/>
<feBlend mode="normal" in="SourceGraphic" in2="effect1_dropShadow" result="shape"/>
</filter>
<linearGradient id="paint0_linear" x1="22.7084" y1="24.8174" x2="24.6011" y2="22.5701" gradientUnits="userSpaceOnUse">
<stop stop-color="#A77255"/>
<stop offset="1" stop-color="#E1B68F"/>
</linearGradient>
<clipPath id="clip0">
<rect width="32" height="32" fill="white"/>
</clipPath>
</defs>
</svg>
