<svg width="32" height="32" viewBox="0 0 32 32" fill="none" xmlns="http://www.w3.org/2000/svg">
<g clip-path="url(#clip0)">
<path opacity="0.5" d="M16 29C22.0751 29 27 27.7128 27 26.125C27 24.5372 22.0751 23.25 16 23.25C9.92487 23.25 5 24.5372 5 26.125C5 27.7128 9.92487 29 16 29Z" fill="url(#paint0_radial)"/>
<path opacity="0.6" d="M16 28.5431C20.9628 28.5431 24.9859 27.5724 24.9859 26.375C24.9859 25.1776 20.9628 24.2069 16 24.2069C11.0373 24.2069 7.01416 25.1776 7.01416 26.375C7.01416 27.5724 11.0373 28.5431 16 28.5431Z" fill="url(#paint1_radial)"/>
<g filter="url(#filter0_i)">
<path d="M25.9103 3.90741C19.9688 1.26697 16.5929 5.74423 16.998 8.15507H14.2974C14.0273 4.13701 9.42247 1.42335 5.11505 4.02221C2.0241 5.88711 2.34437 8.19015 3.19462 9.96077C3.65705 10.9238 3.48502 12.1059 2.8224 12.9439C0.913344 15.358 -0.483367 19.654 3.89974 23.1941C9.30111 27.5566 20.5089 28.9342 27.1256 23.1941C31.4906 19.4074 30.0646 15.2824 28.1935 12.8147C27.576 12.0004 27.4923 10.8742 27.9038 9.93873C29.3043 6.75483 27.2359 4.57032 25.9103 3.90741Z" fill="url(#paint2_linear)"/>
</g>
<path d="M25.9103 3.90741C19.9688 1.26697 16.5929 5.74423 16.998 8.15507H14.2974C14.0273 4.13701 9.42247 1.42335 5.11505 4.02221C2.0241 5.88711 2.34437 8.19015 3.19462 9.96077C3.65705 10.9238 3.48502 12.1059 2.8224 12.9439C0.913344 15.358 -0.483367 19.654 3.89974 23.1941C9.30111 27.5566 20.5089 28.9342 27.1256 23.1941C31.4906 19.4074 30.0646 15.2824 28.1935 12.8147C27.576 12.0004 27.4923 10.8742 27.9038 9.93873C29.3043 6.75483 27.2359 4.57032 25.9103 3.90741Z" stroke="url(#paint3_linear)" stroke-opacity="0.8"/>
<path opacity="0.3" d="M16.998 8.65507H17.5891L17.4911 8.07221C17.3281 7.10224 17.9415 5.55448 19.3637 4.54469C20.7389 3.56823 22.8748 3.10913 25.6965 4.35956C26.2719 4.65021 27.0295 5.28588 27.4811 6.1993C27.9247 7.09649 28.0856 8.28376 27.4461 9.7374C26.9692 10.8215 27.0568 12.1433 27.795 13.1168C28.6931 14.3012 29.4569 15.8498 29.4982 17.5221C29.5389 19.1686 28.8816 21.0089 26.798 22.8164C23.6112 25.581 19.2922 26.6516 15.0769 26.483C10.8574 26.3141 6.81488 24.9058 4.2139 22.8051C2.1327 21.1242 1.46515 19.3085 1.50139 17.6577C1.53824 15.9794 2.30524 14.4039 3.21459 13.254C3.98625 12.2782 4.19695 10.893 3.64535 9.74434C3.24166 8.90367 2.997 8.0014 3.16772 7.12214C3.33439 6.26369 3.91693 5.32904 5.37335 4.45032C9.38174 2.03188 13.5552 4.56879 13.7985 8.1886L13.8299 8.65507H14.2974H16.998Z" stroke="url(#paint4_linear)"/>
<circle cx="8.5" cy="8.5" r="3.5" fill="url(#paint5_linear)" stroke="#7E8087"/>
<circle cx="22.5" cy="8.5" r="3.5" fill="url(#paint6_linear)" stroke="#7E8087"/>
<circle cx="8.5" cy="8.5" r="1.5" fill="url(#paint7_linear)" stroke="black" stroke-opacity="0.7" stroke-width="0.5"/>
<circle cx="22.5" cy="8.5" r="1.5" fill="url(#paint8_linear)" stroke="black" stroke-opacity="0.7" stroke-width="0.5"/>
<path d="M6.93374 18.0165C16.2105 19.313 21.8667 18.4667 25.1367 18.0165C25.4064 17.9543 26.2154 18.0165 25.9457 19.1385C25.6761 20.2604 22.7096 25.1223 15.9678 24.9976C9.22596 24.873 6.66407 20.3851 6.12472 19.1385C5.69324 18.1411 6.48428 17.9749 6.93374 18.0165Z" fill="url(#paint9_linear)" stroke="#3F3F3F"/>
<path d="M12 23.2073C13.3134 23.7808 16.7522 24.6054 20 23.3148C18.806 22.3469 15.5343 20.9704 12 23.2073Z" fill="url(#paint10_linear)" stroke="#ED5353"/>
<path d="M25.5001 19C20 21.4148 11.5 21.5 6.5 19C6.5 18.5 7.0001 18.5 7.11707 18.5191C14 19.5 19.5 19.5 25.1298 18.5191C25.6235 18.5191 25.6766 18.9225 25.5001 19Z" fill="url(#paint11_linear)"/>
<ellipse cx="13.5" cy="17" rx="0.5" ry="1" fill="black" fill-opacity="0.15"/>
<ellipse cx="13.5" cy="17" rx="0.5" ry="1" stroke="black" stroke-opacity="0.15"/>
<ellipse cx="13.5" cy="17" rx="0.5" ry="1" stroke="black" stroke-opacity="0.07"/>
<ellipse cx="17.5" cy="17" rx="0.5" ry="1" fill="black" fill-opacity="0.15"/>
<ellipse cx="17.5" cy="17" rx="0.5" ry="1" stroke="black" stroke-opacity="0.15"/>
<ellipse cx="17.5" cy="17" rx="0.5" ry="1" stroke="black" stroke-opacity="0.07"/>
<ellipse cx="13.5" cy="16" rx="0.5" ry="1" fill="url(#paint12_linear)" stroke="black" stroke-opacity="0.7"/>
<ellipse cx="17.5" cy="16" rx="0.5" ry="1" fill="url(#paint13_linear)" stroke="black" stroke-opacity="0.7"/>
<ellipse rx="0.315293" ry="0.43428" transform="matrix(0.825149 0.564915 -0.484261 0.874924 8.09429 7.9194)" fill="white"/>
<ellipse rx="0.315293" ry="0.43428" transform="matrix(0.825149 0.564915 -0.484261 0.874924 22.0943 7.9194)" fill="white"/>
<ellipse rx="0.168324" ry="0.157208" transform="matrix(0.724085 -0.689711 0.610134 0.792299 8.5469 8.23069)" fill="white"/>
<ellipse rx="0.168324" ry="0.157208" transform="matrix(0.724085 -0.689711 0.610134 0.792299 22.5469 8.23069)" fill="white"/>
<path opacity="0.366162" fill-rule="evenodd" clip-rule="evenodd" d="M9.30549 7.78187C9.42002 7.97852 9.47354 8.2094 9.43988 8.43655C9.36536 8.93949 8.89483 9.23668 8.38961 9.10088C7.88439 8.96508 7.53609 8.44777 7.61062 7.94484C7.64112 7.739 7.73758 7.56716 7.87587 7.44574C7.62493 7.58647 7.44283 7.83824 7.39525 8.15935C7.30568 8.7638 7.72527 9.38584 8.33245 9.54906C8.93964 9.71227 9.50436 9.35481 9.59393 8.75036C9.64532 8.40357 9.52858 8.05035 9.30549 7.78187Z" fill="url(#paint14_radial)"/>
<path opacity="0.366162" fill-rule="evenodd" clip-rule="evenodd" d="M23.3055 7.78187C23.42 7.97852 23.4735 8.2094 23.4399 8.43655C23.3654 8.93949 22.8948 9.23668 22.3896 9.10088C21.8844 8.96508 21.5361 8.44777 21.6106 7.94484C21.6411 7.739 21.7376 7.56716 21.8759 7.44574C21.6249 7.58647 21.4428 7.83824 21.3953 8.15935C21.3057 8.7638 21.7253 9.38584 22.3325 9.54906C22.9396 9.71227 23.5044 9.35481 23.5939 8.75036C23.6453 8.40357 23.5286 8.05035 23.3055 7.78187Z" fill="url(#paint15_radial)"/>
<ellipse cx="13.6173" cy="16.1908" rx="0.228728" ry="0.401498" transform="rotate(14.7818 13.6173 16.1908)" fill="white"/>
<ellipse cx="17.6331" cy="16.133" rx="0.229065" ry="0.401498" transform="rotate(14.7818 17.6331 16.133)" fill="white"/>
<g filter="url(#filter1_f)">
<ellipse cx="23" cy="16" rx="2" ry="1" fill="#9BDB4D"/>
</g>
<g filter="url(#filter2_f)">
<ellipse cx="7.5" cy="16" rx="2.5" ry="1" fill="#9BDB4D"/>
</g>
<g opacity="0.4" filter="url(#filter3_f)">
<path d="M28 19C27.3542 19 25.7815 20.5344 26.0255 22.097C26.3736 24.3268 27.7156 22.097 28 19Z" fill="url(#paint16_radial)"/>
</g>
<g opacity="0.4" filter="url(#filter4_f)">
<path d="M2.00001 19C2.96866 19 5.32773 20.5344 4.96179 22.097C4.43959 24.3268 2.42653 22.097 2.00001 19Z" fill="url(#paint17_radial)"/>
</g>
</g>
<defs>
<filter id="filter0_i" x="0.5" y="-3.49878" width="30" height="30.9988" filterUnits="userSpaceOnUse" color-interpolation-filters="sRGB">
<feFlood flood-opacity="0" result="BackgroundImageFix"/>
<feBlend mode="normal" in="SourceGraphic" in2="BackgroundImageFix" result="shape"/>
<feColorMatrix in="SourceAlpha" type="matrix" values="0 0 0 0 0 0 0 0 0 0 0 0 0 0 0 0 0 0 127 0" result="hardAlpha"/>
<feOffset dy="-6"/>
<feGaussianBlur stdDeviation="10"/>
<feComposite in2="hardAlpha" operator="arithmetic" k2="-1" k3="1"/>
<feColorMatrix type="matrix" values="0 0 0 0 0 0 0 0 0 0.45098 0 0 0 0 0.403922 0 0 0 0.15 0"/>
<feBlend mode="normal" in2="shape" result="effect1_innerShadow"/>
</filter>
<filter id="filter1_f" x="15" y="9" width="16" height="14" filterUnits="userSpaceOnUse" color-interpolation-filters="sRGB">
<feFlood flood-opacity="0" result="BackgroundImageFix"/>
<feBlend mode="normal" in="SourceGraphic" in2="BackgroundImageFix" result="shape"/>
<feGaussianBlur stdDeviation="3" result="effect1_foregroundBlur"/>
</filter>
<filter id="filter2_f" x="-1" y="9" width="17" height="14" filterUnits="userSpaceOnUse" color-interpolation-filters="sRGB">
<feFlood flood-opacity="0" result="BackgroundImageFix"/>
<feBlend mode="normal" in="SourceGraphic" in2="BackgroundImageFix" result="shape"/>
<feGaussianBlur stdDeviation="3" result="effect1_foregroundBlur"/>
</filter>
<filter id="filter3_f" x="24" y="17" width="6" height="8" filterUnits="userSpaceOnUse" color-interpolation-filters="sRGB">
<feFlood flood-opacity="0" result="BackgroundImageFix"/>
<feBlend mode="normal" in="SourceGraphic" in2="BackgroundImageFix" result="shape"/>
<feGaussianBlur stdDeviation="1" result="effect1_foregroundBlur"/>
</filter>
<filter id="filter4_f" x="0" y="17" width="6.99999" height="8" filterUnits="userSpaceOnUse" color-interpolation-filters="sRGB">
<feFlood flood-opacity="0" result="BackgroundImageFix"/>
<feBlend mode="normal" in="SourceGraphic" in2="BackgroundImageFix" result="shape"/>
<feGaussianBlur stdDeviation="1" result="effect1_foregroundBlur"/>
</filter>
<radialGradient id="paint0_radial" cx="0" cy="0" r="1" gradientUnits="userSpaceOnUse" gradientTransform="translate(16 26.125) scale(11 2.875)">
<stop/>
<stop offset="1" stop-opacity="0"/>
</radialGradient>
<radialGradient id="paint1_radial" cx="0" cy="0" r="1" gradientUnits="userSpaceOnUse" gradientTransform="translate(16 26.375) scale(8.98588 2.16806)">
<stop/>
<stop offset="1" stop-opacity="0"/>
</radialGradient>
<linearGradient id="paint2_linear" x1="16" y1="6.5" x2="16" y2="41.5" gradientUnits="userSpaceOnUse">
<stop stop-color="#9BDB4D"/>
<stop offset="1" stop-color="#28BCA3"/>
</linearGradient>
<linearGradient id="paint3_linear" x1="15.5" y1="3" x2="15.5" y2="27" gradientUnits="userSpaceOnUse">
<stop stop-color="#206B00" stop-opacity="0.8"/>
<stop offset="1" stop-color="#007367" stop-opacity="0.8"/>
</linearGradient>
<linearGradient id="paint4_linear" x1="15.5" y1="3" x2="15.5" y2="27" gradientUnits="userSpaceOnUse">
<stop stop-color="#FAFAFA"/>
<stop offset="1" stop-color="#D4D4D4"/>
</linearGradient>
<linearGradient id="paint5_linear" x1="8.5" y1="5" x2="8.5" y2="15.2308" gradientUnits="userSpaceOnUse">
<stop stop-color="#FAFAFA"/>
<stop offset="1" stop-color="#D4D4D4"/>
</linearGradient>
<linearGradient id="paint6_linear" x1="22.5" y1="5" x2="22.5" y2="15.2308" gradientUnits="userSpaceOnUse">
<stop stop-color="#FAFAFA"/>
<stop offset="1" stop-color="#D4D4D4"/>
</linearGradient>
<linearGradient id="paint7_linear" x1="8.5" y1="7" x2="8.5" y2="10" gradientUnits="userSpaceOnUse">
<stop stop-color="#333333"/>
<stop offset="1" stop-color="#1A1A1A"/>
</linearGradient>
<linearGradient id="paint8_linear" x1="22.5" y1="7" x2="22.5" y2="10" gradientUnits="userSpaceOnUse">
<stop stop-color="#333333"/>
<stop offset="1" stop-color="#1A1A1A"/>
</linearGradient>
<linearGradient id="paint9_linear" x1="16" y1="18" x2="16" y2="25" gradientUnits="userSpaceOnUse">
<stop stop-color="#666666"/>
<stop offset="1" stop-color="#4D4D4D"/>
</linearGradient>
<linearGradient id="paint10_linear" x1="16" y1="22" x2="16" y2="24" gradientUnits="userSpaceOnUse">
<stop stop-color="#FF8C82"/>
<stop offset="1" stop-color="#ED5353"/>
</linearGradient>
<linearGradient id="paint11_linear" x1="16" y1="18" x2="16.0212" y2="23.1811" gradientUnits="userSpaceOnUse">
<stop stop-color="#FAFAFA"/>
<stop offset="1" stop-color="#D4D4D4"/>
</linearGradient>
<linearGradient id="paint12_linear" x1="13.5" y1="15" x2="13.5" y2="17" gradientUnits="userSpaceOnUse">
<stop stop-color="#4D4D4D"/>
<stop offset="1" stop-color="#333333"/>
</linearGradient>
<linearGradient id="paint13_linear" x1="17.5" y1="15" x2="17.5" y2="17" gradientUnits="userSpaceOnUse">
<stop stop-color="#4D4D4D"/>
<stop offset="1" stop-color="#333333"/>
</linearGradient>
<radialGradient id="paint14_radial" cx="0" cy="0" r="1" gradientUnits="userSpaceOnUse" gradientTransform="translate(8.964 8.63814) rotate(28.8799) scale(3.01273 2.7735)">
<stop stop-color="#0C1143"/>
<stop offset="0.25" stop-color="#89FFDD" stop-opacity="0.74902"/>
<stop offset="0.5" stop-opacity="0.498039"/>
<stop offset="1" stop-color="#51FFBE" stop-opacity="0"/>
</radialGradient>
<radialGradient id="paint15_radial" cx="0" cy="0" r="1" gradientUnits="userSpaceOnUse" gradientTransform="translate(22.964 8.63814) rotate(28.8799) scale(3.01273 2.7735)">
<stop stop-color="#0C1143"/>
<stop offset="0.25" stop-color="#89FFDD" stop-opacity="0.74902"/>
<stop offset="0.5" stop-opacity="0.498039"/>
<stop offset="1" stop-color="#51FFBE" stop-opacity="0"/>
</radialGradient>
<radialGradient id="paint16_radial" cx="0" cy="0" r="1" gradientUnits="userSpaceOnUse" gradientTransform="translate(26.929 17.1418) rotate(89.2669) scale(7.06164 3.46723)">
<stop stop-color="white"/>
<stop offset="0.566246" stop-color="#D1FF82"/>
<stop offset="0.928025" stop-color="#9BDB4D"/>
</radialGradient>
<radialGradient id="paint17_radial" cx="0" cy="0" r="1" gradientUnits="userSpaceOnUse" gradientTransform="translate(3.60647 17.1418) rotate(91.0996) scale(7.06236 5.20031)">
<stop stop-color="white"/>
<stop offset="0.566246" stop-color="#D1FF82"/>
<stop offset="0.928025" stop-color="#9BDB4D"/>
</radialGradient>
<clipPath id="clip0">
<rect width="32" height="32" fill="white"/>
</clipPath>
</defs>
</svg>
